<?xml version="1.0" encoding="UTF-8"?>
<svg width="354px" height="396px" viewBox="0 0 354 396" version="1.1" xmlns="http://www.w3.org/2000/svg" xmlns:xlink="http://www.w3.org/1999/xlink">
    <!-- Generator: Sketch 55.2 (78181) - https://sketchapp.com -->
    <title>Group 89</title>
    <desc>Created with Sketch.</desc>
    <defs>
        <polygon id="path-1" points="0 1.12631579 353.462932 1.12631579 353.462932 396.490526 0 396.490526"></polygon>
        <polygon id="path-3" points="0.000302398362 1.12631579 353.461879 1.12631579 353.461879 396.490877 0.000302398362 396.490877"></polygon>
    </defs>
    <g id="Page-1" stroke="none" stroke-width="1" fill="none" fill-rule="evenodd">
        <g id="Desktop" transform="translate(-23.000000, -3.000000)">
            <g id="Group-89" transform="translate(23.000000, 0.000000)">
                <g id="Group-3" transform="translate(0.000000, 2.382456)">
                    <mask id="mask-2" fill="white">
                        <use xlink:href="#path-1"></use>
                    </mask>
                    <g id="Clip-2"></g>
                    <path d="M348.272632,169.767719 C349.055088,177.143158 359.655088,279.876491 348.104211,331.953684 C341.62,361.199298 312.128772,377.427368 277.034035,386.265965 C243.339298,394.750175 204.39193,396.490526 176.732281,396.490526 C149.07614,396.490526 110.128772,394.750175 76.4305263,386.265965 C41.3322807,377.427368 11.8445614,361.199298 5.36035088,331.953684 C-6.02210526,280.658947 4.09719298,180.216842 5.15333333,170.164211 C5.04807018,169.501053 4.95684211,168.841404 4.88315789,168.174737 C4.69368421,166.472982 4.5954386,164.799298 4.5954386,163.174737 C4.5954386,150.887018 9.57438596,139.767719 17.6235088,131.715088 C18.3182456,131.020351 19.0375439,130.346667 19.7778947,129.701053 C18.6480702,127.399298 17.7042105,124.992281 16.9603509,122.497544 C15.7147368,118.294035 15.0445614,113.872982 15.0445614,109.332632 C15.0445614,96.5536842 20.2270175,84.9782456 28.6024561,76.6063158 C36.3638596,68.8414035 46.8831579,63.8203509 58.5533333,63.1326316 C60.8129825,52.6519298 66.0691228,43.2870175 73.3778947,35.9747368 C83.297193,26.0554386 97.0094737,19.9185965 112.146316,19.9185965 C116.809474,19.9185965 121.346316,20.5045614 125.686667,21.6098246 C128.27614,22.2659649 130.802456,23.1185965 133.251579,24.1466667 C135.023509,21.6659649 136.995439,19.3361404 139.142807,17.1852632 C149.069123,7.26596491 162.774386,1.12561404 177.907719,1.12561404 C187.307719,1.12561404 196.167368,3.5045614 203.918246,7.69403509 C210.349825,11.1677193 216.012982,15.8870175 220.567368,21.5221053 C225.567368,19.3887719 231.072632,18.2063158 236.841053,18.2063158 C248.328772,18.2063158 258.725263,22.8624561 266.251579,30.3852632 C273.690175,37.8238596 278.325263,48.0694737 278.434035,59.3922807 L278.693684,59.3922807 C294.609474,59.3922807 309.012982,65.8449123 319.441053,76.2729825 C329.872632,86.7010526 336.321754,101.10807 336.321754,117.020351 C336.321754,120.669474 335.967368,124.287018 335.290175,127.837895 C334.87614,130.037895 334.325263,132.199298 333.658596,134.322105 C342.64807,143.448421 348.212982,155.957193 348.272632,169.767719" id="Fill-1" fill="#5B0030" mask="url(#mask-2)"></path>
                </g>
                <path d="M72.7242105,187.192632 C87.362807,189.14 104.134737,190.687368 122.41193,191.722456 C122.331228,184.918947 119.541754,178.76807 115.06807,174.297895 C110.531228,169.761053 104.261053,166.950526 97.3347368,166.950526 C90.4084211,166.950526 84.1417544,169.761053 79.6049123,174.297895 C76.1522807,177.750526 73.6996491,182.206667 72.7242105,187.192632" id="Fill-4" fill="#FBBE00"></path>
                <path d="M80.7561404,158.740702 C79.3385965,152.098596 75.8754386,146.207368 71.0649123,141.761754 C65.2929825,136.43193 57.5736842,133.172281 49.0824561,133.172281 C40.1385965,133.172281 32.0403509,136.796842 26.1842105,142.656491 C20.3245614,148.51614 16.6964912,156.610877 16.6964912,165.554737 C16.6964912,166.86 16.7631579,168.091579 16.8929825,169.23193 C16.9561404,169.807368 17.0368421,170.375789 17.1315789,170.937193 C17.1877193,171.168772 17.2298246,171.40386 17.2578947,171.649474 C17.3315789,172.042456 17.4122807,172.428421 17.5035088,172.817895 C17.5350877,172.975789 17.5666667,173.133684 17.5912281,173.291579 C19.9070175,177.084561 35.9421053,181.400351 60.6859649,185.421404 L60.7385965,185.428421 C62.1070175,177.810877 65.7912281,170.989825 71.0403509,165.740702 C73.8684211,162.91614 77.145614,160.544211 80.7561404,158.740702" id="Fill-6" fill="#FBBE00"></path>
                <path d="M80.7561404,158.740702 C79.3385965,152.098596 75.8754386,146.207368 71.0649123,141.761754 C69.0719298,139.923158 66.8438596,138.326667 64.4403509,137.028421 C64.6438596,153.095088 58.2684211,176.891579 17.5,172.80386 L17.5035088,172.817895 C17.5350877,172.975789 17.5666667,173.133684 17.5912281,173.291579 C19.9070175,177.084561 35.9421053,181.400351 60.6859649,185.421404 L60.7385965,185.428421 C62.1070175,177.810877 65.7912281,170.989825 71.0403509,165.740702 C73.8684211,162.91614 77.145614,160.544211 80.7561404,158.740702" id="Fill-8" fill="#F08400"></path>
                <path d="M60.594386,122.575088 C67.6575439,124.466316 74.0259649,128.052281 79.2435088,132.873333 C85.6084211,138.754035 90.2540351,146.469825 92.3417544,155.178596 C93.9733333,154.961053 95.64,154.845263 97.3347368,154.845263 C98.0505263,154.845263 98.7592982,154.869825 99.4645614,154.908421 C101.471579,144.150526 106.878596,134.578596 114.524211,127.347018 C120.461053,121.732982 127.741754,117.529474 135.815439,115.276842 C133.534737,108.417193 129.394386,102.413684 123.994386,97.8698246 C117.271579,92.2101754 108.573333,88.8031579 99.0435088,88.8031579 C88.3417544,88.8031579 78.6575439,93.1294737 71.6505263,100.122456 C65.7347368,106.034737 61.7101754,113.852281 60.594386,122.575088" id="Fill-10" fill="#FBBE00"></path>
                <path d="M67.0912281,124.872632 C71.5789474,126.865614 75.6842105,129.581404 79.245614,132.872632 C85.6070175,138.753333 90.2561404,146.469123 92.3403509,155.181404 C93.9719298,154.96386 95.6421053,154.844561 97.3333333,154.844561 C98.0491228,154.844561 98.7578947,154.869123 99.4666667,154.907719 C101.473684,144.153333 106.880702,134.581404 114.526316,127.349825 C120.463158,121.732281 127.740351,117.528772 135.817544,115.279649 C133.536842,108.42 129.396491,102.416491 123.996491,97.8691228 L123.764912,97.6761404 C120.087719,113.805965 107.835088,137.016491 67.0947368,124.872632 L67.0912281,124.872632 Z" id="Fill-12" fill="#F08400"></path>
                <path d="M187.897193,159.395088 C186.777895,150.482807 182.627018,142.510877 176.518246,136.538947 C169.535789,129.728421 159.977895,125.528421 149.437544,125.528421 C139.097193,125.528421 129.725263,129.545965 122.798947,136.093333 C116.87614,141.696842 112.725263,149.152982 111.255088,157.542456 C115.925263,159.430175 120.125263,162.237193 123.630526,165.738947 C130.360351,172.468772 134.518246,181.763509 134.518246,192.030175 L134.518246,192.321404 C145.262105,192.781053 156.441053,193.068772 167.946316,193.167018 C167.942807,192.896842 167.939298,192.623158 167.939298,192.356491 C167.939298,182.093333 172.100702,172.795088 178.827018,166.065263 C181.486667,163.409123 184.539298,161.152982 187.897193,159.395088" id="Fill-14" fill="#FBBE00"></path>
                <path d="M187.897193,159.395088 C186.777895,150.482807 182.627018,142.510877 176.518246,136.538947 C175.749825,135.791579 174.946316,135.072281 174.118246,134.391579 C172.444561,150.50386 164.237544,174.33193 130.539298,175.286316 C133.086667,180.317895 134.518246,186.005614 134.518246,192.030175 L134.518246,192.321404 C145.262105,192.781053 156.441053,193.068772 167.946316,193.167018 C167.942807,192.896842 167.939298,192.623158 167.939298,192.356491 C167.939298,182.093333 172.100702,172.795088 178.827018,166.065263 C181.486667,163.409123 184.539298,161.152982 187.897193,159.395088" id="Fill-16" fill="#F08400"></path>
                <path d="M272.234386,200.407368 C272.037895,200.438947 271.844912,200.46 271.648421,200.474035 C244.644912,203.523158 211.929123,205.309123 176.732632,205.309123 C159.672982,205.309123 143.202807,204.891579 127.672982,204.112632 L127.487018,204.102105 C101.258947,202.779298 77.757193,200.424912 58.7431579,197.337193 C39.9887719,194.28807 25.2870175,190.154737 16.0729825,185.168772 C13.434386,214.635439 7.97122807,290.421404 17.1326316,331.733684 C22.3922807,355.442456 48.3221053,369.105614 79.3607018,376.919649 C111.806316,385.091579 149.73614,386.768772 176.732632,386.768772 C203.732632,386.768772 241.655439,385.091579 274.101053,376.919649 C305.146667,369.105614 331.076491,355.442456 336.332632,331.733684 C345.497544,290.421404 340.030877,214.635439 337.388772,185.168772 C328.178246,190.154737 313.48,194.28807 294.718596,197.337193 C287.792281,198.463509 280.269474,199.491579 272.234386,200.407368" id="Fill-18" fill="#CD5B5A"></path>
                <path d="M269.709123,377.978947 C271.186316,377.638596 272.649474,377.287719 274.102105,376.919298 C305.147719,369.105263 331.074035,355.442105 336.330175,331.733333 C345.498596,290.421053 340.03193,214.635088 337.389825,185.168421 C328.179298,190.154386 313.481053,194.287719 294.719649,197.340351 C291.46,197.866667 288.067018,198.375439 284.551228,198.859649 C296.08807,205.887719 305.028421,217.487719 307.561754,236.182456 C313.656491,281.164912 312.242456,339.547368 269.709123,377.978947" id="Fill-20" fill="#A53C4A"></path>
                <path d="M282.527719,186.949474 C286.082105,186.465263 289.49614,185.952982 292.780351,185.419649 C319.590877,181.065263 336.166316,176.363509 336.166316,172.356491 L336.166316,172.33193 C336.159298,161.658246 331.832982,151.998596 324.84,145.002105 C317.836491,138.005614 308.169825,133.675789 297.485614,133.675789 C291.685614,133.675789 286.208421,134.935439 281.303158,137.195088 C278.120702,138.661754 275.166316,140.549474 272.524211,142.78807 C272.794386,143.040702 273.061053,143.300351 273.324211,143.563509 C280.692632,150.93193 285.250526,161.110877 285.250526,172.356491 C285.250526,177.142456 284.397895,181.781053 282.836491,186.124912 C282.738246,186.402105 282.632982,186.675789 282.527719,186.949474" id="Fill-22" fill="#FBBE00"></path>
                <path d="M282.527719,186.949474 C286.082105,186.465263 289.49614,185.952982 292.780351,185.419649 C319.590877,181.065263 336.166316,176.363509 336.166316,172.356491 L336.166316,172.33193 C336.159298,161.658246 331.832982,151.998596 324.84,145.002105 C322.703158,142.868772 320.320702,140.981053 317.731228,139.391579 C317.043509,152.433684 310.152281,167.33193 285.197895,174.377544 C284.994386,178.447719 284.180351,182.395088 282.836491,186.124912 C282.738246,186.402105 282.632982,186.675789 282.527719,186.949474" id="Fill-24" fill="#EE8E00"></path>
                <path d="M223.810526,192.099649 C239.705263,191.334737 254.57193,190.18386 268.017544,188.724211 C269.463158,186.664561 270.638596,184.425965 271.487719,182.057544 C272.561404,179.075088 273.147368,175.808421 273.147368,172.355789 C273.147368,164.454035 269.940351,157.299649 264.764912,152.120702 C259.589474,146.945263 252.435088,143.741754 244.529825,143.741754 C236.62807,143.741754 229.473684,146.945263 224.301754,152.120702 C219.119298,157.299649 215.915789,164.454035 215.915789,172.355789 C215.915789,176.562807 216.807018,180.531228 218.4,184.082105 C219.729825,187.047018 221.568421,189.755789 223.810526,192.099649" id="Fill-26" fill="#FBBE00"></path>
                <path d="M223.810526,192.099649 C239.705263,191.334737 254.57193,190.18386 268.017544,188.724211 C269.463158,186.664561 270.638596,184.425965 271.487719,182.057544 C272.561404,179.075088 273.147368,175.808421 273.147368,172.355789 C273.147368,164.454035 269.940351,157.299649 264.764912,152.120702 C262.638596,149.997895 260.182456,148.204912 257.477193,146.832982 C261.414035,162.24 258.824561,182.762807 220.761404,188.317193 C221.670175,189.664561 222.687719,190.927719 223.810526,192.099649" id="Fill-28" fill="#EE8E00"></path>
                <path d="M204.125263,167.296491 C197.595439,167.552632 191.704211,170.303509 187.384912,174.622807 C182.84807,179.163158 180.044561,185.429825 180.044561,192.35614 C180.044561,192.647368 180.04807,192.924561 180.055088,193.198246 C190.037544,193.170175 199.802456,192.991228 209.265614,192.685965 C208.581404,191.492982 207.949825,190.264912 207.384912,188.998246 C205.086667,183.889474 203.812982,178.257895 203.812982,172.35614 C203.812982,170.64386 203.918246,168.95614 204.125263,167.296491" id="Fill-30" fill="#FBBE00"></path>
                <path d="M235.138596,132.724561 C238.152632,132.012281 241.3,131.633333 244.531579,131.633333 C250.914035,131.633333 256.952632,133.103509 262.331579,135.721053 C266.384211,131.829825 271.082456,128.608772 276.247368,126.222807 C282.72807,123.236842 289.924561,121.570175 297.485965,121.570175 C306.910526,121.570175 315.738596,124.135088 323.3,128.612281 L323.422807,127.998246 C323.945614,125.264912 324.219298,122.387719 324.219298,119.401754 C324.219298,106.829825 319.121053,95.4508772 310.885965,87.2122807 C302.64386,78.977193 291.264912,73.8789474 278.692982,73.8789474 C266.124561,73.8789474 254.742105,78.977193 246.503509,87.2122807 C238.27193,95.4508772 233.173684,106.829825 233.173684,119.401754 C233.173684,122.682456 233.503509,125.836842 234.135088,128.833333 C234.408772,130.149123 234.749123,131.447368 235.138596,132.724561" id="Fill-32" fill="#FBBE00"></path>
                <path d="M235.138596,132.724561 C238.152632,132.012281 241.3,131.633333 244.531579,131.633333 C250.914035,131.633333 256.952632,133.103509 262.331579,135.721053 C266.384211,131.829825 271.082456,128.608772 276.247368,126.222807 C282.72807,123.236842 289.924561,121.570175 297.485965,121.570175 C306.910526,121.570175 315.738596,124.135088 323.3,128.612281 L323.422807,127.998246 C323.945614,125.264912 324.219298,122.387719 324.219298,119.401754 C324.219298,106.829825 319.121053,95.4508772 310.885965,87.2122807 C310.647368,86.9736842 310.401754,86.7385965 310.159649,86.5035088 C308.454386,92.2263158 304.064912,98.8719298 294.966667,106.149123 C273.440351,123.366667 246.615789,123.780702 233.285965,122.657895 C233.433333,124.780702 233.717544,126.840351 234.135088,128.833333 C234.408772,130.149123 234.749123,131.447368 235.138596,132.724561" id="Fill-34" fill="#F08400"></path>
                <path d="M157.034386,113.990175 C167.806316,115.607719 177.476491,120.614737 184.929123,127.884912 C192.427368,135.200702 197.669474,144.818246 199.522105,155.593684 C201.346667,155.316491 203.216842,155.172632 205.118596,155.172632 C205.894035,155.172632 206.70807,155.204211 207.560702,155.26386 C209.592281,150.888421 212.371228,146.930526 215.739649,143.565614 C218.174737,141.130526 220.915088,139.004211 223.897544,137.246316 C223.272982,135.312982 222.743158,133.323509 222.311579,131.29193 C221.497544,127.411228 221.069474,123.428772 221.069474,119.400702 C221.069474,103.488421 227.518596,89.0814035 237.946667,78.6568421 L238.234386,78.3726316 C234.487018,73.397193 229.746667,69.2147368 224.30807,66.1235088 C217.697544,62.3621053 210.027368,60.2147368 201.827368,60.2147368 C189.255439,60.2147368 177.872982,65.3094737 169.637895,73.5480702 C161.399298,81.7866667 156.304561,93.165614 156.304561,105.737544 C156.304561,107.916491 156.441404,109.983158 156.704561,111.923509 C156.799298,112.614737 156.90807,113.305965 157.034386,113.990175" id="Fill-36" fill="#FBBE00"></path>
                <path d="M168.879649,117.282807 C174.897193,119.781053 180.339298,123.402105 184.928772,127.886316 C192.427018,135.202105 197.669123,144.819649 199.521754,155.591579 C201.346316,155.317895 203.216491,155.174035 205.118246,155.174035 C205.893684,155.174035 206.707719,155.205614 207.560351,155.261754 C209.59193,150.889825 212.374386,146.93193 215.739298,143.563509 C218.174386,141.128421 220.914737,139.002105 223.897193,137.244211 C223.272632,135.310877 222.742807,133.324912 222.314737,131.289825 C221.497193,127.409123 221.069123,123.430175 221.069123,119.402105 C221.069123,103.489825 227.518246,89.082807 237.946316,78.6547368 L238.234035,78.3705263 C235.286667,74.4582456 231.725263,71.037193 227.693684,68.2512281 C226.069123,86.8477193 215.574386,113.942456 168.879649,117.282807" id="Fill-38" fill="#F08400"></path>
                <path d="M221.939649,36.7182456 C221.848421,36.7778947 221.750175,36.8340351 221.658947,36.8866667 C220.560702,37.5463158 219.50807,38.2761404 218.50807,39.0691228 C215.213333,41.6901754 212.494035,44.9954386 210.560702,48.7708772 C217.62386,49.8515789 224.269474,52.2164912 230.262456,55.6270175 C237.041404,59.4796491 242.960702,64.6691228 247.662456,70.8340351 C253.290526,67.2340351 259.585263,64.5814035 266.311579,63.1077193 C266.322105,62.8024561 266.325614,62.4901754 266.325614,62.1778947 C266.325614,54.0375439 263.030877,46.6621053 257.694035,41.3252632 C252.357193,35.9919298 244.988772,32.6936842 236.841404,32.6936842 C231.399298,32.6936842 226.30807,34.1603509 221.939649,36.7182456" id="Fill-40" fill="#FBBE00"></path>
                <path d="M132.154035,67.0207018 C131.954035,67.1294737 131.754035,67.2277193 131.543509,67.3119298 C129.989123,68.0768421 128.518947,68.9715789 127.136491,69.985614 C127.024211,70.0838596 126.91193,70.1750877 126.79614,70.2663158 C123.224211,72.9715789 120.294386,76.4592982 118.259298,80.4733333 C123.189123,82.494386 127.732982,85.2663158 131.754035,88.6487719 C136.866316,92.9540351 141.122456,98.2417544 144.217193,104.224211 C144.578596,90.262807 149.91193,77.5329825 158.501404,67.7435088 C157.347018,67.1259649 156.147018,66.5821053 154.915439,66.1224561 C151.743509,64.94 148.273333,64.294386 144.599649,64.294386 C140.143509,64.294386 135.925965,65.2698246 132.154035,67.0207018" id="Fill-42" fill="#FBBE00"></path>
                <path d="M135.498596,53.1964912 C138.43193,52.5368421 141.477544,52.1894737 144.600351,52.1894737 C149.663509,52.1894737 154.561754,53.1192982 159.119649,54.8175439 C162.189825,55.9649123 165.091579,57.4596491 167.758246,59.2526316 C176.256491,53.0175439 186.51614,49.0561404 197.66,48.2596491 C200.168772,41.1929825 204.530175,35.0105263 210.154737,30.2982456 C206.786316,26.4245614 202.740702,23.1649123 198.200351,20.7157895 C192.179298,17.4631579 185.270526,15.6140351 177.909123,15.6140351 C166.11614,15.6140351 155.435439,20.3964912 147.705614,28.1263158 C141.11614,34.7192982 136.667018,43.4526316 135.498596,53.1964912" id="Fill-44" fill="#FBBE00"></path>
                <path d="M70.2505263,85.6473684 C78.44,80.0017544 88.3592982,76.6964912 99.0435088,76.6964912 C101.562807,76.6964912 104.036491,76.8789474 106.450526,77.2403509 C109.324211,70.6263158 113.854035,64.9105263 119.510175,60.6192982 C119.647018,60.5175439 119.787368,60.422807 119.927719,60.3315789 C120.948772,59.577193 122.001404,58.8719298 123.089123,58.2122807 C123.103158,50.7526316 124.61193,43.6438596 127.327719,37.1666667 C125.832982,36.6052632 124.289123,36.1210526 122.706667,35.7175439 C119.341754,34.8614035 115.801404,34.4052632 112.145263,34.4052632 C100.345263,34.4052632 89.6680702,39.1877193 81.9382456,46.9175439 C74.2119298,54.6508772 69.4294737,65.3280702 69.4294737,77.1245614 C69.4294737,80.1140351 69.7101754,82.9561404 70.2435088,85.6192982 L70.2505263,85.6473684 Z" id="Fill-46" fill="#FBBE00"></path>
                <path d="M29.9680702,125.369474 C35.6277193,122.671228 41.9540351,121.134386 48.6277193,121.067719 C49.9014035,111.095789 54.0557895,102.025614 60.2312281,94.7203509 C59.494386,92.5378947 58.8873684,90.2852632 58.4207018,87.9835088 C57.7435088,84.6045614 57.3680702,81.1870175 57.3294737,77.7694737 C49.4873684,78.6852632 42.4592982,82.2501754 37.1610526,87.5484211 C30.9785965,93.7308772 27.1505263,102.274737 27.1505263,111.716842 C27.1505263,115.137895 27.6382456,118.411579 28.5470175,121.474737 C28.9435088,122.80807 29.4207018,124.109825 29.9680702,125.369474" id="Fill-48" fill="#FBBE00"></path>
                <g id="Group-52" transform="translate(0.000000, 2.382456)">
                    <mask id="mask-4" fill="white">
                        <use xlink:href="#path-3"></use>
                    </mask>
                    <g id="Clip-51"></g>
                    <path d="M72.7242105,184.810175 C87.362807,186.757544 104.134737,188.304912 122.41193,189.34 C122.331228,182.536491 119.541754,176.385614 115.06807,171.915439 C110.531228,167.378596 104.261053,164.56807 97.3347368,164.56807 C90.4084211,164.56807 84.1417544,167.378596 79.6049123,171.915439 C76.1522807,175.36807 73.6996491,179.824211 72.7242105,184.810175 L72.7242105,184.810175 Z M80.7557895,156.357544 C79.3382456,149.715439 75.8750877,143.824211 71.0645614,139.378596 C65.2926316,134.048772 57.5733333,130.789123 49.0821053,130.789123 C40.1382456,130.789123 32.04,134.413684 26.1838596,140.273333 C20.3242105,146.132982 16.6961404,154.227719 16.6961404,163.171579 C16.6961404,164.480351 16.762807,165.708421 16.8926316,166.848772 C16.9557895,167.424211 17.0364912,167.99614 17.1312281,168.554035 C17.1873684,168.789123 17.2294737,169.020702 17.2575439,169.266316 C17.3312281,169.659298 17.4119298,170.045263 17.5031579,170.434737 C17.5347368,170.592632 17.5663158,170.750526 17.5908772,170.908421 C19.9066667,174.701404 35.9417544,179.017193 60.685614,183.038246 L60.7382456,183.048772 C62.1066667,175.427719 65.7908772,168.606667 71.0435088,163.357544 C73.8680702,160.532982 77.1452632,158.161053 80.7557895,156.357544 L80.7557895,156.357544 Z M60.594386,120.192632 C67.6575439,122.08386 74.0259649,125.669825 79.2435088,130.490877 C85.6084211,136.371579 90.2540351,144.087368 92.3417544,152.79614 C93.9733333,152.578596 95.64,152.462807 97.3347368,152.462807 C98.0505263,152.462807 98.7592982,152.487368 99.4645614,152.525965 C101.471579,141.76807 106.878596,132.19614 114.524211,124.964561 C120.461053,119.350526 127.741754,115.147018 135.815439,112.894386 C133.534737,106.034737 129.394386,100.031228 123.994386,95.4873684 C117.271579,89.8277193 108.573333,86.4207018 99.0435088,86.4207018 C88.3417544,86.4207018 78.6575439,90.7470175 71.6505263,97.74 C65.7347368,103.652281 61.7101754,111.469825 60.594386,120.192632 L60.594386,120.192632 Z M187.89614,157.013684 C186.776842,148.101404 182.625965,140.129474 176.517193,134.157544 C169.534737,127.347018 159.976842,123.147018 149.436491,123.147018 C139.09614,123.147018 129.724211,127.161053 122.797895,133.71193 C116.875088,139.31193 112.724211,146.771579 111.254035,155.157544 C115.927719,157.048772 120.124211,159.855789 123.629474,163.357544 C130.359298,170.087368 134.517193,179.382105 134.517193,189.648772 L134.517193,189.94 C145.261053,190.399649 156.44,190.687368 167.948772,190.785614 C167.941754,190.515439 167.938246,190.241754 167.938246,189.975088 C167.938246,179.708421 172.099649,170.410175 178.825965,163.68386 C181.485614,161.027719 184.538246,158.771579 187.89614,157.013684 L187.89614,157.013684 Z M272.232982,198.024211 C272.04,198.055789 271.843509,198.076842 271.647018,198.090877 C244.643509,201.14 211.931228,202.929474 176.734737,202.929474 C159.671579,202.929474 143.201404,202.508421 127.671579,201.729474 L127.485614,201.718947 C101.261053,200.39614 77.7592982,198.041754 58.7452632,194.957544 C39.9873684,191.904912 25.285614,187.771579 16.0715789,182.785614 C13.4364912,212.252281 7.96982456,288.038246 17.1312281,329.350526 C22.3908772,353.059298 48.3207018,366.722456 79.362807,374.536491 C111.808421,382.708421 149.734737,384.385614 176.734737,384.385614 C203.731228,384.385614 241.657544,382.708421 274.103158,374.536491 C305.145263,366.722456 331.075088,353.059298 336.331228,329.350526 C345.49614,288.038246 340.032982,212.252281 337.390877,182.785614 C328.180351,187.771579 313.478596,191.904912 294.720702,194.957544 C287.790877,196.080351 280.26807,197.108421 272.232982,198.024211 L272.232982,198.024211 Z M282.527719,184.56807 C286.082105,184.080351 289.49614,183.571579 292.780351,183.038246 C319.587368,178.680351 336.166316,173.982105 336.166316,169.971579 L336.166316,169.950526 C336.159298,159.276842 331.832982,149.613684 324.84,142.620702 C317.836491,135.620702 308.169825,131.294386 297.485614,131.294386 C291.685614,131.294386 286.208421,132.550526 281.303158,134.813684 C278.120702,136.280351 275.166316,138.16807 272.524211,140.403158 C272.794386,140.659298 273.061053,140.918947 273.324211,141.182105 C280.692632,148.550526 285.250526,158.729474 285.250526,169.971579 C285.250526,174.761053 284.397895,179.399649 282.836491,183.743509 C282.738246,184.017193 282.632982,184.294386 282.527719,184.56807 L282.527719,184.56807 Z M223.81193,189.715439 C239.706667,188.950526 254.569825,187.803158 268.015439,186.343509 C269.461053,184.28386 270.636491,182.045263 271.485614,179.676842 C272.559298,176.690877 273.145263,173.424211 273.145263,169.971579 C273.145263,162.073333 269.941754,154.915439 264.762807,149.74 C259.590877,144.561053 252.436491,141.357544 244.531228,141.357544 C236.629474,141.357544 229.475088,144.561053 224.299649,149.74 C219.120702,154.915439 215.917193,162.073333 215.917193,169.971579 C215.917193,174.182105 216.804912,178.147018 218.401404,181.697895 C219.727719,184.662807 221.569825,187.371579 223.81193,189.715439 L223.81193,189.715439 Z M204.124211,164.915439 C197.594386,165.16807 191.703158,167.922456 187.387368,172.241754 C182.847018,176.778596 180.043509,183.048772 180.043509,189.975088 C180.043509,190.262807 180.047018,190.543509 180.054035,190.817193 C190.04,190.785614 199.801404,190.610175 209.264561,190.301404 C208.580351,189.11193 207.948772,187.880351 207.38386,186.617193 C205.089123,181.508421 203.81193,175.873333 203.81193,169.971579 C203.81193,168.262807 203.920702,166.575088 204.124211,164.915439 L204.124211,164.915439 Z M235.138246,130.343509 C238.152281,129.627719 241.299649,129.252281 244.531228,129.252281 C250.913684,129.252281 256.952281,130.722456 262.331228,133.34 C266.38386,129.448772 271.082105,126.224211 276.247018,123.841754 C282.727719,120.852281 289.924211,119.185614 297.485614,119.185614 C306.910175,119.185614 315.738246,121.754035 323.299649,126.227719 L323.422456,125.617193 C323.945263,122.880351 324.218947,120.003158 324.218947,117.020702 C324.218947,104.448772 319.120702,93.0698246 310.885614,84.8312281 C302.643509,76.5926316 291.264561,71.4978947 278.692632,71.4978947 C266.124211,71.4978947 254.741754,76.5926316 246.503158,84.8312281 C238.271579,93.0698246 233.176842,104.448772 233.176842,117.020702 C233.176842,120.297895 233.503158,123.452281 234.134737,126.448772 C234.408421,127.764561 234.748772,129.062807 235.138246,130.343509 L235.138246,130.343509 Z M157.032982,111.606667 C167.808421,113.227719 177.475088,118.231228 184.931228,125.504912 C192.425965,132.820702 197.66807,142.434737 199.524211,153.210175 C201.345263,152.936491 203.215439,152.792632 205.117193,152.792632 C205.892632,152.792632 206.710175,152.820702 207.562807,152.880351 C209.590877,148.504912 212.373333,144.547018 215.741754,141.182105 C218.173333,138.747018 220.913684,136.620702 223.89614,134.862807 C223.271579,132.929474 222.741754,130.94 222.313684,128.908421 C221.49614,125.027719 221.06807,121.048772 221.06807,117.020702 C221.06807,101.108421 227.517193,86.7014035 237.945263,76.2733333 L238.232982,75.9891228 C234.489123,71.0136842 229.745263,66.8312281 224.306667,63.74 C217.69614,59.9785965 210.025965,57.8312281 201.825965,57.8312281 C189.254035,57.8312281 177.875088,62.9259649 169.636491,71.1645614 C161.397895,79.4031579 156.303158,90.7821053 156.303158,103.354035 C156.303158,105.532982 156.44,107.599649 156.706667,109.54 C156.797895,110.234737 156.906667,110.922456 157.032982,111.606667 L157.032982,111.606667 Z M221.938246,34.3364912 C221.847018,34.3961404 221.752281,34.4487719 221.657544,34.5049123 C220.562807,35.1645614 219.506667,35.894386 218.510175,36.6873684 C215.21193,39.3084211 212.492632,42.6136842 210.559298,46.3891228 C217.622456,47.4663158 224.26807,49.8347368 230.261053,53.2417544 C237.04,57.0978947 242.962807,62.2873684 247.661053,68.4522807 C253.289123,64.8522807 259.58386,62.1996491 266.313684,60.7259649 C266.324211,60.4207018 266.327719,60.1084211 266.327719,59.7961404 C266.327719,51.6522807 263.029474,44.2803509 257.69614,38.9435088 C252.355789,33.6101754 244.990877,30.3084211 236.84,30.3084211 C231.401404,30.3084211 226.306667,31.7785965 221.938246,34.3364912 L221.938246,34.3364912 Z M132.152281,64.6382456 C131.955789,64.7470175 131.752281,64.8452632 131.545263,64.9294737 C129.987368,65.694386 128.517193,66.5891228 127.138246,67.6031579 C127.025965,67.7014035 126.910175,67.7926316 126.794386,67.8838596 C123.225965,70.5891228 120.29614,74.0768421 118.261053,78.0908772 C123.190877,80.1119298 127.734737,82.8838596 131.752281,86.2663158 C136.864561,90.5715789 141.120702,95.8592982 144.218947,101.841754 C144.580351,87.8803509 149.910175,75.1505263 158.499649,65.3610526 C157.345263,64.7435088 156.145263,64.1996491 154.917193,63.74 C151.745263,62.5575439 148.271579,61.9119298 144.597895,61.9119298 C140.145263,61.9119298 135.927719,62.8873684 132.152281,64.6382456 L132.152281,64.6382456 Z M135.499649,50.8136842 C138.432982,50.1540351 141.478596,49.8066667 144.597895,49.8066667 C149.664561,49.8066667 154.559298,50.7364912 159.120702,52.4347368 C162.190877,53.5821053 165.089123,55.0768421 167.759298,56.8698246 C176.257544,50.6347368 186.517193,46.6733333 197.657544,45.8768421 C200.166316,38.8101754 204.527719,32.6277193 210.155789,27.9154386 C206.787368,24.0417544 202.741754,20.7821053 198.201404,18.3329825 C192.180351,15.0803509 185.26807,13.2312281 177.910175,13.2312281 C166.113684,13.2312281 155.432982,18.0136842 147.703158,25.7470175 C141.113684,32.3364912 136.66807,41.0698246 135.499649,50.8136842 L135.499649,50.8136842 Z M70.2505263,83.2663158 C78.44,77.6207018 88.3592982,74.3154386 99.0435088,74.3154386 C101.562807,74.3154386 104.036491,74.4978947 106.450526,74.8557895 C109.324211,68.2417544 113.854035,62.5259649 119.510175,58.2347368 C119.647018,58.1364912 119.787368,58.0382456 119.927719,57.9470175 C120.948772,57.1961404 122.001404,56.4908772 123.089123,55.8277193 C123.103158,48.3715789 124.61193,41.262807 127.327719,34.785614 C125.832982,34.2242105 124.289123,33.7364912 122.706667,33.3364912 C119.341754,32.4768421 115.801404,32.0242105 112.145263,32.0242105 C100.345263,32.0242105 89.6680702,36.8031579 81.9382456,44.5329825 C74.2119298,52.2663158 69.4294737,62.9470175 69.4294737,74.74 C69.4294737,77.7329825 69.7101754,80.5715789 70.2435088,83.2382456 L70.2505263,83.2663158 Z M29.9663158,122.985614 C35.6294737,120.290877 41.9522807,118.754035 48.6294737,118.687368 C49.8996491,108.71193 54.0575439,99.6417544 60.2294737,92.34 C59.4926316,90.1540351 58.8891228,87.9049123 58.4224561,85.5996491 C57.7417544,82.2242105 57.3663158,78.8066667 57.3277193,75.385614 C49.4891228,76.3014035 42.4575439,79.8698246 37.1592982,85.1645614 C30.9803509,91.3505263 27.1522807,99.894386 27.1522807,109.332982 C27.1522807,112.754035 27.6364912,116.027719 28.5452632,119.090877 C28.9417544,120.424211 29.4189474,121.725965 29.9663158,122.985614 L29.9663158,122.985614 Z M348.271579,169.76807 C349.054035,177.14 359.654035,279.876842 348.103158,331.954035 C341.622456,361.199649 312.127719,377.427719 277.036491,386.266316 C243.338246,394.750526 204.390877,396.490877 176.734737,396.490877 C149.075088,396.490877 110.127719,394.750526 76.4329825,386.266316 C41.3347368,377.427719 11.8435088,361.199649 5.35929825,331.954035 C-6.01964912,280.659298 4.09614035,180.217193 5.1522807,170.164561 C5.04701754,169.501404 4.95929825,168.841754 4.88210526,168.175088 C4.69263158,166.469825 4.59438596,164.799649 4.59438596,163.171579 C4.59438596,150.887368 9.57333333,139.76807 17.6224561,131.715439 C18.317193,131.020702 19.0364912,130.347018 19.7768421,129.697895 C18.6470175,127.399649 17.7031579,124.992632 16.9592982,122.497895 C15.7136842,118.294386 15.0470175,113.873333 15.0470175,109.332982 C15.0470175,96.5540351 20.2259649,84.9785965 28.6014035,76.6066667 C36.3663158,68.8417544 46.8821053,63.8207018 58.5522807,63.1329825 C60.8119298,52.6522807 66.0715789,43.2873684 73.3803509,35.9750877 C83.2996491,26.0557895 97.0084211,19.9189474 112.145263,19.9189474 C116.808421,19.9189474 121.345263,20.5049123 125.689123,21.6101754 C128.275088,22.2663158 130.801404,23.1154386 133.250526,24.1435088 C135.022456,21.6663158 136.994386,19.3364912 139.145263,17.185614 C149.06807,7.26280702 162.773333,1.12596491 177.910175,1.12596491 C187.306667,1.12596491 196.169825,3.50491228 203.920702,7.69438596 C210.352281,11.1680702 216.01193,15.8873684 220.566316,21.5189474 C225.569825,19.385614 231.071579,18.2066667 236.84,18.2066667 C248.327719,18.2066667 258.727719,22.862807 266.250526,30.385614 C273.689123,37.8242105 278.327719,48.0698246 278.432982,59.3926316 L278.692632,59.3926316 C294.608421,59.3926316 309.01193,65.8452632 319.44,76.2733333 C329.871579,86.7014035 336.320702,101.108421 336.320702,117.020702 C336.320702,120.669825 335.966316,124.287368 335.289123,127.838246 C334.875088,130.038246 334.327719,132.199649 333.657544,134.322456 C342.650526,143.448772 348.215439,155.957544 348.271579,169.76807 L348.271579,169.76807 Z" id="Fill-50" fill="#5B0030" mask="url(#mask-4)"></path>
                </g>
                <path d="M22.0631579,324.884561 C22.0631579,334.600351 21.754386,341.772281 25.0280702,351.502105 C26.7473684,356.621404 28.7263158,362.993333 33.9578947,363.698596 C33.7192982,355.386316 27.0105263,355.814386 27.0105263,318.652982 L26.2982456,312.038947 C23.354386,312.530175 23.3754386,313.63193 22.8947368,316.786316 C22.5333333,319.196842 22.0631579,322.670526 22.0631579,324.884561 L22.0631579,324.884561 Z M170.645614,90.4705263 C175.231579,90.6354386 174.873684,86.4249123 183.224561,81.0985965 C185.438596,79.6915789 187.782456,78.4670175 190.410526,77.2249123 C193.522807,75.7512281 196.466667,76.0740351 196.712281,71.9266667 C191.115789,70.2038596 184.705263,73.9161404 180.22807,76.7161404 C176.438596,79.0880702 170.14386,84.0459649 170.645614,90.4705263 L170.645614,90.4705263 Z M150.936842,38.1863158 C154.414035,37.7126316 154.470175,36.1301754 156.442105,34.2635088 C161.582456,29.3898246 172.273684,27.2740351 175.284211,24.1898246 L174.789474,21.3547368 C170.701754,20.3582456 148.164912,27.382807 150.936842,38.1863158 L150.936842,38.1863158 Z M259.435088,90.1547368 C262.978947,91.4038596 261.659649,88.4319298 274.224561,87.737193 C276.196491,87.6249123 285.421053,88.2108772 286.884211,86.5407018 C287.803509,85.4915789 287.663158,84.4214035 286.277193,83.5231579 C282.108772,80.8389474 257.880702,81.4915789 259.435088,90.1547368 L259.435088,90.1547368 Z M295.670175,142.393333 C285.491228,136.979298 266.491228,154.20386 273.070175,155.958246 C275.929825,156.719649 278.684211,149.551228 290.077193,146.474035 C294.031579,145.407368 295.894737,146.221404 295.670175,142.393333 L295.670175,142.393333 Z M86.3157895,56.505614 C90.6175439,56.7477193 94.4736842,53.014386 98.3473684,50.86 C100.435088,49.7021053 102.066667,48.8775439 104.284211,47.7757895 C107.049123,46.4003509 108.540351,46.0985965 108.245614,42.8529825 C104.585965,41.0214035 97.8421053,44.8424561 94.8631579,46.66 C91.6491228,48.6178947 85.8491228,52.3126316 86.3157895,56.505614 L86.3157895,56.505614 Z M234.17193,40.6529825 C239.087719,41.6915789 244.192982,40.7722807 250.017544,45.6424561 C253.154386,48.2670175 250.929825,47.7512281 255.701754,48.1301754 C255.150877,36.7161404 234.207018,32.1301754 234.17193,40.6529825 L234.17193,40.6529825 Z M137.164912,141.389825 C139.852632,142.130175 141.768421,140.551228 145.673684,140.824912 C148.796491,141.042456 151.364912,141.909123 154.65614,141.909123 C159.796491,141.909123 161,137.495088 148.785965,135.926667 C143.740351,135.284561 134.985965,135.66 137.164912,141.389825 L137.164912,141.389825 Z M81.1403509,105.989825 C83.677193,106.305614 86.4736842,104.375789 89.7508772,103.719649 C93.7157895,102.923158 97.3754386,103.554737 98.7368421,100.228421 C96.9789474,96.7266667 91.2140351,97.8529825 87.5157895,98.814386 C84.2912281,99.6529825 78.9684211,101.674035 81.1403509,105.989825 L81.1403509,105.989825 Z M246.45614,149.305614 C246.915789,152.761754 247.301754,152.46 243.670175,153.337193 C234.985965,155.435439 231.578947,158.614386 230.354386,156.544211 C227.438596,151.589825 240.898246,146.845965 246.45614,149.305614 L246.45614,149.305614 Z M86.9614035,176.954737 C88.8736842,177.789825 94.6842105,176.856491 100.094737,176.821404 C107.929825,176.768772 104.726316,171.421404 97.2736842,171.421404 C93.4035088,171.421404 87.1157895,171.547719 86.9614035,176.954737 L86.9614035,176.954737 Z M41.8947368,143.540702 C44.2105263,143.035439 52.2947368,142.807368 47.8315789,146.786316 C47.1438596,147.400351 40.4491228,149.351228 39.0877193,149.919649 C29.6245614,153.849474 32.2526316,145.667018 41.8947368,143.540702 L41.8947368,143.540702 Z M317.477193,336.179298 C323.396491,338.684561 323.077193,328.933684 321.905263,327.638947 C318.245614,323.579298 316.108772,332.884561 317.477193,336.179298 L317.477193,336.179298 Z M79.2982456,67.0319298 C84.0666667,67.5336842 85.122807,63.4810526 84.2736842,60.0073684 C79.0245614,58.7512281 77.1859649,63.6705263 79.2982456,67.0319298 L79.2982456,67.0319298 Z M24.7333333,158.982807 C27.2245614,160.130175 27.7859649,159.467018 29.0736842,157.845965 C30.1473684,156.491579 31.9508772,154.526667 30.2105263,152.789825 C27.3578947,149.947719 23.0912281,155.414386 24.7333333,158.982807 L24.7333333,158.982807 Z M248.480702,99.8670175 C257.459649,101.484561 255.94386,89.1898246 249.614035,94.9301754 C249.407018,95.1126316 248.291228,96.3547368 248.133333,96.9687719 C247.6,98.9933333 248.480702,99.8635088 248.480702,99.8635088 L248.480702,99.8670175 Z M223.789474,168.533684 L226.547368,168.800351 C227.789474,167.214386 227.870175,167.291579 227.870175,165.20386 L227.870175,164.51614 C227.870175,157.344211 219.947368,162.582807 223.789474,168.533684 L223.789474,168.533684 Z M164.084211,101.000351 C164.526316,101.249474 162.926316,102.035439 166.407018,101.744211 C167.670175,101.642456 167.705263,101.600351 168.298246,100.698596 C172.410526,94.505614 160.361404,92.2880702 164.084211,101.000351 L164.084211,101.000351 Z M78.6385965,182.607368 C81.5649123,184.08807 81.5649123,184.20386 84.0666667,181.958246 L84.0315789,177.196842 C79.8561404,176.417895 78.8175439,179.074035 78.6385965,182.607368 L78.6385965,182.607368 Z M127.842105,149.428421 C130.747368,150.267018 132.94386,148.207368 133.575439,145.849474 L132.196491,144.130175 C130.329825,143.947719 127.592982,143.965263 127.059649,146.705614 C126.407018,150.063509 127.680702,149.207368 127.842105,149.428421 L127.842105,149.428421 Z M73.7649123,115.263509 C76.7403509,115.263509 78.1789474,112.947719 77.8070175,110.014386 C71.4280702,107.354737 70.1719298,115.263509 73.7649123,115.263509 L73.7649123,115.263509 Z M23.4140351,304.663509 C27.6631579,304.417895 26.9859649,303.452982 26.9754386,298.982807 C21.5052632,297.105614 20.6210526,301.028421 23.4140351,304.663509 L23.4140351,304.663509 Z M301.249123,143.775789 C301.249123,147.323158 305.684211,146.435439 307.364912,143.775789 C305.119298,140.46 305.908772,141.091579 304.673684,141.08807 C302.164912,141.081053 301.249123,141.175789 301.249123,143.775789 L301.249123,143.775789 Z M256.336842,55.2354386 C260.533333,55.4845614 262.431579,52.7687719 259.582456,51.2038596 C256.452632,49.4775439 255.484211,52.6459649 256.336842,55.2354386 L256.336842,55.2354386 Z M179.014035,24.7757895 C181.778947,23.8073684 184.101754,25.782807 183.2,21.0845614 L179.57193,20.5687719 L179.014035,24.7757895 Z M319.112281,320.547719 C320.859649,319.719649 321.140351,318.979298 321.891228,316.565263 C322.501754,314.607368 322.936842,312.189825 323.294737,310.28807 C326.522807,293.021404 326.775439,256.333684 325.522807,238.400351 C325.031579,231.330175 326.017544,213.968772 322.649123,210.838947 C318.57193,214.63193 320.926316,258.081053 320.929825,266.130175 C320.929825,275.235439 320.821053,285.074035 320.203509,293.912632 C319.852632,298.965263 317.849123,318.06 319.112281,320.547719 L319.112281,320.547719 Z" id="Fill-53" fill="#5B0030"></path>
                <path d="M194.873333,293.41193 C194.894386,294.015439 194.908421,294.625965 194.908421,295.24 C194.908421,311.166316 186.76807,324.078596 176.732982,324.078596 C166.694386,324.078596 158.557544,311.166316 158.557544,295.24 C158.557544,294.44 158.578596,293.647018 158.617193,292.86807 C163.041754,295.882105 170.536491,298.671579 182.694386,297.489123 C187.764561,296.994386 191.736491,295.482105 194.873333,293.41193" id="Fill-55" fill="#CD5B5A"></path>
                <path d="M96.7203509,290.840351 C110.853684,290.840351 122.38,279.310526 122.38,265.177193 C122.38,251.04386 110.853684,239.514035 96.7203509,239.514035 C82.5835088,239.514035 71.057193,251.04386 71.057193,265.177193 C71.057193,279.310526 82.5835088,290.840351 96.7203509,290.840351" id="Fill-57" fill="#5B0030"></path>
                <path d="M67.8859649,242.077193 C68.5280702,243.073684 69.2157895,243.922807 70.0157895,244.792982 C71.6438596,246.445614 73.345614,247.8 75.5070175,248.680702 C75.5350877,248.694737 75.5631579,248.701754 75.5947368,248.705263 C75.6263158,248.726316 75.654386,248.740351 75.6859649,248.750877 C75.7736842,248.785965 76.054386,248.870175 76.1,248.894737 C78.577193,249.687719 80.6298246,249.715789 83.1491228,249.05614 C84.1385965,248.757895 84.9666667,248.410526 85.854386,247.884211 C86.5140351,247.487719 90.0473684,244.975439 88.9877193,243.842105 C88.2122807,243.115789 85.5280702,244.824561 84.5210526,245.25614 C83.7736842,245.557895 83.1385965,245.77193 82.345614,245.947368 C80.4824561,246.312281 79.0298246,246.22807 77.2403509,245.592982 C77.2192982,245.589474 76.9877193,245.498246 76.9385965,245.477193 C76.9105263,245.466667 76.8859649,245.463158 76.8684211,245.459649 C76.8473684,245.445614 76.8298246,245.435088 76.8052632,245.42807 C75.0333333,244.74386 73.7140351,243.77193 72.3175439,242.498246 C71.9912281,242.308772 70.6087719,240.722807 70.254386,240.322807 C69.5912281,239.554386 67.7280702,236.792982 66.6473684,237.273684 C65.3561404,237.936842 67.4719298,241.421053 67.8859649,242.077193" id="Fill-59" fill="#5B0030"></path>
                <path d="M64.0964912,250.571579 C65.222807,251.504912 66.2964912,252.161053 67.6157895,252.785614 C70.0403509,253.813684 72.2192982,254.308421 74.854386,254.220702 C74.8894737,254.217193 74.9245614,254.213684 74.9596491,254.206667 C74.9947368,254.210175 75.0333333,254.210175 75.0684211,254.206667 C75.2578947,254.19614 75.9105263,254.108421 75.9947368,254.122456 C78.8964912,253.736491 81.1596491,252.890877 83.6859649,251.427719 C84.0368421,251.301404 85.4263158,250.262807 85.7947368,249.964561 C86.3877193,249.480351 89.8649123,246.434737 88.6789474,245.389123 C87.7701754,244.676842 84.9807018,246.99614 84.0754386,247.56807 C83.4368421,247.961053 82.8157895,248.318947 82.145614,248.669825 C79.9596491,249.761053 78.0578947,250.406667 75.622807,250.655789 C75.5175439,250.690877 75.0368421,250.697895 74.8754386,250.708421 C74.8473684,250.708421 74.8157895,250.71193 74.7877193,250.722456 C74.7596491,250.715439 74.7280702,250.715439 74.7,250.715439 C72.5526316,250.824211 70.9245614,250.536491 68.8964912,249.792632 C67.7596491,249.332982 66.8859649,248.855789 65.8578947,248.206667 C64.9350877,247.59614 62.0403509,245.017193 61.1596491,245.620702 C59.9,246.617193 63.5245614,250.08386 64.0964912,250.571579" id="Fill-61" fill="#5B0030"></path>
                <path d="M198.526316,273.224561 C198.873684,271.817544 200.294737,270.957895 201.698246,271.301754 C203.108772,271.649123 203.964912,273.070175 203.621053,274.477193 C203.614035,274.512281 200.57193,286.280702 213.25614,289.22807 C214.670175,289.550877 215.550877,290.957895 215.22807,292.368421 C214.901754,293.782456 213.498246,294.663158 212.084211,294.340351 C194.154386,290.175439 198.515789,273.270175 198.526316,273.224561" id="Fill-63" fill="#5B0030"></path>
                <path d="M199.249123,282.661053 C199.666667,281.275088 201.133333,280.492632 202.515789,280.913684 C203.898246,281.331228 204.680702,282.797895 204.263158,284.180351 C204.249123,284.225965 199.589474,300.49614 176.733333,300.49614 C175.280702,300.49614 174.101754,299.320702 174.101754,297.864561 C174.101754,296.415439 175.280702,295.236491 176.733333,295.236491 C195.666667,295.236491 199.235088,282.69614 199.249123,282.661053" id="Fill-65" fill="#5B0030"></path>
                <path d="M64.0312281,257.5 C65.3821053,258.061404 66.5961404,258.373684 68.0487719,258.584211 C70.6663158,258.850877 72.8978947,258.678947 75.3821053,257.819298 C75.417193,257.808772 75.4487719,257.791228 75.4803509,257.773684 C75.5189474,257.766667 75.5540351,257.75614 75.5891228,257.745614 C75.7645614,257.678947 76.3610526,257.405263 76.4487719,257.387719 C79.1014035,256.170175 81.0242105,254.696491 83.0031579,252.549123 C83.2978947,252.32807 84.3224561,250.924561 84.585614,250.535088 C85.0101754,249.896491 87.4382456,245.959649 85.9996491,245.310526 C84.9224561,244.9 82.9435088,247.931579 82.2382456,248.745614 C81.7470175,249.310526 81.2557895,249.836842 80.7189474,250.370175 C78.9505263,252.057895 77.3259649,253.233333 75.0698246,254.187719 C74.9785965,254.250877 74.5224561,254.401754 74.3715789,254.454386 C74.3435088,254.468421 74.3224561,254.482456 74.2908772,254.496491 C74.262807,254.5 74.2347368,254.507018 74.2101754,254.514035 C72.1891228,255.250877 70.5505263,255.457895 68.3891228,255.338596 C67.1715789,255.236842 66.1926316,255.040351 65.017193,254.721053 C63.9575439,254.412281 60.4347368,252.798246 59.7680702,253.633333 C58.8557895,254.95614 63.34,257.205263 64.0312281,257.5" id="Fill-67" fill="#5B0030"></path>
                <path d="M149.845263,274.476842 C149.494386,273.069825 150.357544,271.648772 151.764561,271.301404 C153.16807,270.957544 154.592632,271.817193 154.936491,273.224211 C154.950526,273.269825 159.308421,290.175088 141.382105,294.34 C139.971579,294.662807 138.561053,293.782105 138.238246,292.36807 C137.915439,290.957544 138.799649,289.550526 140.213684,289.227719 C152.890877,286.280351 149.852281,274.51193 149.845263,274.476842" id="Fill-69" fill="#5B0030"></path>
                <path d="M149.204561,284.179298 C148.787018,282.796842 149.569474,281.330175 150.948421,280.912632 C152.337895,280.495088 153.797544,281.274035 154.215088,282.66 C154.222105,282.68807 156.98,292.358246 170.474737,294.723158 C171.401053,294.88807 172.383509,295.014386 173.425614,295.102105 C174.464211,295.189825 175.565965,295.238947 176.734386,295.238947 C178.183509,295.238947 179.362456,296.414386 179.362456,297.867018 C179.362456,299.319649 178.183509,300.495088 176.734386,300.495088 C175.43614,300.495088 174.190526,300.442456 172.990526,300.340702 C171.794035,300.238947 170.653684,300.091579 169.569474,299.898596 C152.864211,296.968772 149.215088,284.217895 149.204561,284.179298" id="Fill-71" fill="#5B0030"></path>
                <path d="M94.5617544,264.065263 C99.5722807,264.065263 103.66,259.977544 103.66,254.967018 C103.66,249.956491 99.5722807,245.868772 94.5617544,245.868772 C89.5477193,245.868772 85.4635088,249.956491 85.4635088,254.967018 C85.4635088,259.977544 89.5477193,264.065263 94.5617544,264.065263" id="Fill-73" fill="#FFFFFF"></path>
                <path d="M256.746316,290.840351 C270.87614,290.840351 282.409474,279.310526 282.409474,265.177193 C282.409474,251.04386 270.87614,239.514035 256.746316,239.514035 C242.612982,239.514035 231.086667,251.04386 231.086667,265.177193 C231.086667,279.310526 242.612982,290.840351 256.746316,290.840351" id="Fill-75" fill="#5B0030"></path>
                <path d="M285.577193,242.077193 C284.931579,243.073684 284.247368,243.922807 283.447368,244.792982 C281.815789,246.445614 280.117544,247.8 277.959649,248.680702 C277.931579,248.694737 277.9,248.701754 277.868421,248.705263 C277.840351,248.726316 277.812281,248.740351 277.780702,248.750877 C277.692982,248.785965 277.415789,248.870175 277.359649,248.894737 C274.885965,249.687719 272.836842,249.715789 270.314035,249.05614 C269.324561,248.757895 268.496491,248.410526 267.608772,247.884211 C266.949123,247.487719 263.419298,244.975439 264.475439,243.842105 C265.247368,243.115789 267.935088,244.824561 268.945614,245.25614 C269.689474,245.557895 270.324561,245.77193 271.117544,245.947368 C272.984211,246.312281 274.433333,246.22807 276.219298,245.592982 C276.247368,245.589474 276.47193,245.498246 276.52807,245.477193 C276.552632,245.466667 276.577193,245.463158 276.594737,245.459649 C276.612281,245.445614 276.640351,245.435088 276.657895,245.42807 C278.433333,244.74386 279.752632,243.77193 281.145614,242.498246 C281.475439,242.308772 282.857895,240.722807 283.208772,240.322807 C283.87193,239.554386 285.742105,236.792982 286.819298,237.273684 C288.110526,237.936842 285.991228,241.421053 285.577193,242.077193" id="Fill-77" fill="#5B0030"></path>
                <path d="M289.363509,250.571579 C288.244211,251.504912 287.174035,252.161053 285.844211,252.785614 C283.426667,253.813684 281.244211,254.308421 278.612632,254.220702 C278.577544,254.217193 278.538947,254.213684 278.50386,254.206667 C278.472281,254.210175 278.430175,254.210175 278.391579,254.206667 C278.205614,254.19614 277.556491,254.108421 277.468772,254.122456 C274.570526,253.736491 272.30386,252.890877 269.777544,251.427719 C269.430175,251.301404 268.044211,250.262807 267.672281,249.964561 C267.075789,249.480351 263.602105,246.434737 264.78807,245.389123 C265.696842,244.676842 268.482807,246.99614 269.38807,247.56807 C270.030175,247.961053 270.651228,248.318947 271.317895,248.669825 C273.507368,249.761053 275.402105,250.406667 277.844211,250.655789 C277.949474,250.690877 278.426667,250.697895 278.591579,250.708421 C278.61614,250.708421 278.644211,250.71193 278.675789,250.722456 C278.700351,250.715439 278.735439,250.715439 278.763509,250.715439 C280.907368,250.824211 282.538947,250.536491 284.567018,249.792632 C285.700351,249.332982 286.577544,248.855789 287.605614,248.206667 C288.528421,247.59614 291.423158,245.017193 292.30386,245.620702 C293.563509,246.617193 289.942456,250.08386 289.363509,250.571579" id="Fill-79" fill="#5B0030"></path>
                <path d="M289.432281,257.5 C288.081404,258.061404 286.86386,258.373684 285.414737,258.584211 C282.797193,258.850877 280.569123,258.678947 278.081404,257.819298 C278.046316,257.808772 278.011228,257.791228 277.983158,257.773684 C277.94807,257.766667 277.909474,257.75614 277.874386,257.745614 C277.698947,257.678947 277.098947,257.405263 277.018246,257.387719 C274.358596,256.170175 272.439298,254.696491 270.460351,252.549123 C270.165614,252.32807 269.141053,250.924561 268.877895,250.535088 C268.453333,249.896491 266.025263,245.959649 267.46386,245.310526 C268.544561,244.9 270.523509,247.931579 271.221754,248.745614 C271.72,249.310526 272.211228,249.836842 272.744561,250.370175 C274.512982,252.057895 276.137544,253.233333 278.393684,254.187719 C278.488421,254.250877 278.941053,254.401754 279.088421,254.454386 C279.123509,254.468421 279.14807,254.482456 279.169123,254.496491 C279.200702,254.5 279.232281,254.507018 279.256842,254.514035 C281.274386,255.250877 282.92,255.457895 285.074386,255.338596 C286.295439,255.236842 287.270877,255.040351 288.446316,254.721053 C289.505965,254.412281 293.032281,252.798246 293.698947,253.633333 C294.611228,254.95614 290.123509,257.205263 289.432281,257.5" id="Fill-81" fill="#5B0030"></path>
                <path d="M258.901754,264.065263 C263.915789,264.065263 268,259.977544 268,254.967018 C268,249.956491 263.915789,245.868772 258.901754,245.868772 C253.891228,245.868772 249.807018,249.956491 249.807018,254.967018 C249.807018,259.977544 253.891228,264.065263 258.901754,264.065263" id="Fill-83" fill="#FFFFFF"></path>
                <path d="M96.7203509,311.243509 C111.527368,311.243509 123.60807,308.141754 123.60807,304.338246 C123.60807,300.534737 111.527368,297.432982 96.7203509,297.432982 C81.9098246,297.432982 69.8291228,300.534737 69.8291228,304.338246 C69.8291228,308.141754 81.9098246,311.243509 96.7203509,311.243509" id="Fill-85" fill="#EF838A"></path>
                <path d="M256.746316,311.243509 C271.560351,311.243509 283.634035,308.141754 283.634035,304.338246 C283.634035,300.534737 271.560351,297.432982 256.746316,297.432982 C241.935789,297.432982 229.855088,300.534737 229.855088,304.338246 C229.855088,308.141754 241.935789,311.243509 256.746316,311.243509" id="Fill-87" fill="#EF838A"></path>
            </g>
        </g>
    </g>
</svg>