<?xml version="1.0" encoding="UTF-8"?>
<svg width="400px" height="400px" viewBox="0 0 400 400" version="1.1" xmlns="http://www.w3.org/2000/svg" xmlns:xlink="http://www.w3.org/1999/xlink">
    <!-- Generator: Sketch 55.2 (78181) - https://sketchapp.com -->
    <title>Desktop</title>
    <desc>Created with Sketch.</desc>
    <defs>
        <polygon id="path-1" points="0.00123577835 0.0314885444 397.018865 0.0314885444 397.018865 400 0.00123577835 400"></polygon>
        <polygon id="path-3" points="0.000873064926 0.0304019756 397.018865 0.0304019756 397.018865 399.999276 0.000873064926 399.999276"></polygon>
    </defs>
    <g id="Desktop" stroke="none" stroke-width="1" fill="none" fill-rule="evenodd">
        <g id="Group-67">
            <g id="Group-3">
                <mask id="mask-2" fill="white">
                    <use xlink:href="#path-1"></use>
                </mask>
                <g id="Clip-2"></g>
                <path d="M376.136727,168.906012 C378.048227,187.989782 386.778739,283.339816 375.6652,333.379931 C368.958629,363.568435 338.476192,380.323326 302.193968,389.446882 C267.362597,398.204626 227.101407,400.001087 198.508707,400.001087 C169.916007,400.001087 129.654817,398.204626 94.8234462,389.446882 C58.541222,380.323326 28.0587854,363.568435 21.3558413,333.379931 C10.2386747,283.339816 18.9691869,187.989782 20.8843138,168.906012 C16.3177517,162.564072 15.6975118,154.237333 15.8280886,149.177544 C11.2433909,146.149639 7.31520443,141.339761 4.53319243,135.555593 C1.4827725,129.20641 -0.254624827,121.564209 0.0319187817,113.835083 C0.322089525,105.928484 2.69060821,97.9023625 7.86652884,90.9809192 C12.8248214,84.3492276 20.296718,78.796861 30.8915773,75.4393634 C32.8212127,65.1676663 40.311245,40.3287035 67.7831601,38.1048594 C71.6496853,31.3138044 82.1937647,19.2782439 107.079533,23.9903306 C113.764341,15.3303773 132.770525,-4.30029908 157.906566,12.3423131 C164.09083,7.50346001 177.094106,0.0314885444 198.508707,0.0314885444 C219.923308,0.0314885444 232.933838,7.50346001 239.114475,12.3423131 C264.246889,-4.30029908 283.2567,15.3303773 289.937881,23.9903306 C314.827276,19.2782439 325.371356,31.3138044 329.234254,38.1048594 C356.713423,40.3287035 364.196201,65.1676663 366.125837,75.4393634 C376.724323,78.796861 384.19622,84.3492276 389.150885,90.9809192 C394.330433,97.9023625 396.698952,105.928484 396.989122,113.835083 C397.275666,121.564209 395.538269,129.20641 392.484222,135.555593 C389.70221,141.339761 385.77765,146.149639 381.189325,149.177544 C381.319902,154.237333 380.699662,162.564072 376.136727,168.906012" id="Fill-1" fill="#5B0030" mask="url(#mask-2)"></path>
            </g>
            <path d="M198.982986,12.1827411 C173.268785,12.1827411 163.673501,24.0442561 163.648146,24.0769425 C161.438586,26.7245372 157.501224,27.0768235 154.860619,24.8577832 L154.744708,24.7560923 C132.181845,6.6079017 115.715194,33.8719535 115.668105,33.9518535 C114.208347,36.3197983 111.419231,37.3693935 108.858315,36.7265618 L108.858315,36.7410891 C82.8978023,30.2328727 78.4243499,45.7007822 78.409861,45.744364 C77.5984818,48.4391723 75.1281219,50.1715492 72.4549171,50.1715492 L72.4549171,50.1969719 C45.6431807,50.1969719 43.4191323,80.5807547 43.4118878,80.6679183 C43.1836874,83.5806357 40.9994836,85.8723124 38.250212,86.3480804 C28.8287953,88.7378161 22.5152508,93.092365 18.6068661,98.3403408 C15.0534598,103.112549 13.4234569,108.694652 13.2206121,114.211382 C13.0105228,119.909703 14.2746806,125.524493 16.5023512,130.162323 C18.7626219,134.887317 21.9103386,138.453762 25.3007446,139.750321 C28.1333274,140.82897 29.7198636,143.748951 29.2381071,146.632614 C28.9917956,148.415837 26.717036,168.263718 47.5991842,164.624637 C50.7106786,164.09076 53.680906,165.968409 54.6009521,168.910181 C54.6335522,169.00824 65.1959709,204.215076 107.804246,192.179234 C110.571629,191.398393 113.429568,192.622316 114.838615,194.982997 C116.367195,197.078555 126.643458,209.815338 144.348911,199.813314 C146.982272,198.327901 150.227788,198.974364 152.122214,201.182509 C153.592839,202.711504 167.440619,216.243655 198.982986,216.243655 C230.528975,216.243655 244.376755,202.711504 245.84738,201.182509 C247.741806,198.974364 250.987323,198.327901 253.620683,199.813314 C271.326137,209.815338 281.606021,197.078555 283.13098,194.982997 C284.543649,192.622316 287.397965,191.398393 290.165348,192.179234 C332.773623,204.215076 343.336042,169.00824 343.36502,168.906549 C344.29231,165.968409 347.258916,164.09076 350.37041,164.624637 C371.252558,168.263718 368.977799,148.415837 368.731487,146.632614 C368.246108,143.748951 369.836267,140.82897 372.66885,139.750321 C376.059256,138.453762 379.206972,134.887317 381.470865,130.162323 C383.691291,125.524493 384.959071,119.909703 384.748982,114.211382 C384.546137,108.694652 382.916134,103.112549 379.362728,98.3403408 C375.454343,93.092365 369.140799,88.7378161 359.719382,86.3480804 C356.970111,85.8723124 354.785907,83.5806357 354.557706,80.6679183 C354.550462,80.5807547 352.326413,50.1969719 325.514677,50.1969719 L325.514677,50.1715492 C322.841472,50.1715492 320.371112,48.4391723 319.559733,45.744364 C319.545244,45.7007822 315.071792,30.2328727 289.114901,36.7410891 L289.111279,36.7265618 C286.550364,37.3693935 283.76487,36.3197983 282.301489,33.9518535 C282.258023,33.8719535 265.787749,6.6079017 243.224887,24.7560923 L243.108975,24.8577832 C240.468371,27.0768235 236.531008,26.7245372 234.321449,24.0769425 C234.296093,24.0442561 224.700809,12.1827411 198.982986,12.1827411" id="Fill-4" fill="#FFFFFF"></path>
            <path d="M121.940502,200.525462 C126.966506,203.039346 134.298516,204.144151 143.733167,198.841087 C146.373271,197.359561 149.6271,198.004332 151.526378,200.206698 C153.000769,201.731692 166.884015,215.228426 198.507164,215.228426 C230.133946,215.228426 244.017191,201.731692 245.487951,200.206698 C247.39086,198.004332 250.644689,197.359561 253.281162,198.841087 C271.035592,208.820556 281.341805,196.113486 282.870669,194.023411 C284.286956,191.668909 287.148582,190.448189 289.923053,191.226987 C332.640452,203.231329 343.229922,168.116635 343.258974,168.015211 C344.188639,165.08476 347.162842,163.212025 350.282306,163.744505 C371.217935,167.374061 368.937349,147.578126 368.690407,145.799571 C368.203785,142.923455 369.798016,140.011116 372.637853,138.935289 C376.036943,137.642124 379.192721,134.085013 381.462412,129.372385 C383.688525,124.746693 384.959552,119.146598 384.748924,113.463191 C384.54556,107.960899 382.911382,102.393405 379.348876,97.6336869 C375.430481,92.3994459 369.100767,88.0562937 359.655221,85.6728124 C356.898909,85.1982895 354.709111,82.9126106 354.480326,80.0075163 C354.480326,79.9712932 354.109912,74.9725025 351.880168,69.035533 C343.941697,81.0978322 327.78876,90.2115694 295.933194,86.9225101 C216.795426,78.7469517 194.712241,109.855368 194.712241,109.855368 L107.614213,151.019322 C107.614213,151.019322 144.648306,162.270224 121.940502,200.525462" id="Fill-6" fill="#F7C8DC"></path>
            <path d="M198.476125,387.817259 C226.353631,387.817259 265.508938,386.079061 299.012664,377.634828 C331.063644,369.553475 357.836194,355.419274 363.26316,330.895799 C373.015758,286.856602 366.722941,204.939922 364.118143,176.649746 C360.962677,177.455341 357.231185,177.767419 352.818605,177.411796 C347.558288,188.664725 330.737592,214.559889 290.249092,205.012498 C284.644608,210.996401 271.062702,221.643319 251.035821,212.553159 C244.148863,218.043543 227.237596,228.530794 198.476125,228.530794 C169.714655,228.530794 152.807011,218.043543 145.920053,212.553159 C125.889549,221.643319 112.311265,210.996401 106.706782,205.012498 C66.2146592,214.559889 49.4012083,188.664725 44.1372686,177.411796 C39.7246888,177.767419 35.9931968,177.455341 32.8377312,176.649746 C30.2329324,204.939922 23.9364925,286.856602 33.6927138,330.895799 C39.1196799,355.419274 65.8886065,369.553475 97.9432097,377.634828 C131.446936,386.079061 170.602242,387.817259 198.476125,387.817259" id="Fill-8" fill="#CD5B5A"></path>
            <path d="M307.274027,375.634518 C335.576078,367.246265 358.291817,353.508138 363.249761,331.138252 C373.027626,287.027235 366.718506,204.983724 364.103326,176.649746 C360.943318,177.460223 357.202159,177.769149 352.778147,177.412975 C347.504202,188.683328 330.639927,214.618585 290.046533,205.056412 C289.538026,205.597942 288.964139,206.17945 288.324873,206.782764 C303.707213,211.354871 316.710465,218.561936 321.871812,229.872267 C333.65828,255.691222 341.30768,326.075498 307.274027,375.634518" id="Fill-10" fill="#A53C4A"></path>
            <path d="M140.289361,60.7021002 C143.300443,53.1329249 149.768291,38.7037321 156.663705,35.0349253 C165.53752,30.313236 232.578485,59.3199659 246.231623,65.3152449 C255.529381,58.2598472 263.033534,53.1329249 265.218471,53.1329249 C268.207812,53.1329249 278.759282,56.3711715 289.459313,60.1231958 C301.173908,64.2297991 313.461007,69.0527966 316.196707,70.8763455 L316.196707,70.8799637 L316.218448,70.8944363 C321.769565,74.5885702 318.69326,99.7492038 316.845304,111.920669 C319.653473,112.40912 322.60658,113.158078 325.711872,114.218196 C328.972972,115.321733 330.723095,118.856668 329.617945,122.116624 C328.512794,125.372961 324.969066,127.116911 321.704343,126.016992 C287.7418,114.424431 278.509264,155.226339 278.480277,155.342119 L278.462159,155.338501 L278.433172,155.465137 C277.585286,158.793837 274.193742,160.801912 270.863797,159.951646 C242.238587,152.603178 240.662389,177.886829 240.658766,177.959192 C240.405125,181.3892 237.408536,183.968943 233.969888,183.715673 C231.263175,183.509438 229.085485,181.613526 228.411524,179.138709 C217.070144,181.826997 196.695517,184.048543 168.863842,176.692838 C168.987039,177.188525 169.110236,177.68783 169.222563,178.205226 C169.961746,181.570108 167.83116,184.902427 164.461357,185.64053 C161.087931,186.378633 157.754362,184.251159 157.011556,180.886277 C152.949675,162.448171 137.296396,163.844778 135.104212,164.13423 C132.038779,164.756553 128.929863,162.994512 127.93704,159.955264 C122.556225,143.474579 108.062448,151.242752 108.018967,151.26808 C107.417475,151.579241 106.750761,151.799948 106.04419,151.901256 C102.630905,152.400561 99.4603916,150.037908 98.9603563,146.633226 C94.594106,116.902866 69.0488243,130.250231 68.9763554,130.286412 C65.9036747,131.849454 62.1425396,130.6229 60.5772117,127.554707 C59.0155072,124.486514 60.2402314,120.727253 63.3129121,119.167829 C63.3600168,119.14612 69.095929,116.153908 76.6290696,114.858609 C76.078306,99.184772 78.4154276,60.4994837 114.457827,57.2684734 C122.969298,56.5050432 131.712669,57.8907956 140.289361,60.7021002" id="Fill-12" fill="#5B0030"></path>
            <path d="M201.015228,169.543147 L201.015228,152.284264 C196.519878,157.634183 190.262291,162.801803 181.725888,167.266269 C188.877416,168.657695 195.310859,169.334805 201.015228,169.543147" id="Fill-14" fill="#A53C4A"></path>
            <path d="M237.563452,72.1490014 C217.916247,63.6589447 165.617329,41.4536266 161.108613,43.8319956 C156.833358,46.084239 151.777467,57.7562652 149.238579,64.2427262 C154.644661,66.631906 159.923069,69.5003631 164.975311,72.6571075 C179.231025,81.5651806 191.80509,93.0137842 200.162265,102.538071 C207.239053,96.61377 223.128994,83.4174255 237.563452,72.1490014" id="Fill-16" fill="#ACD190"></path>
            <path d="M237.563452,71.8615342 C235.09752,70.7847815 232.117244,69.4934059 228.783128,68.0565232 C192.344969,87.1397809 168.637731,71.8106067 152.631059,55.8375635 C151.292306,58.7367927 150.114058,61.6214712 149.238579,63.8804691 C154.644661,66.2922495 159.923069,69.187841 164.975311,72.3744467 C179.231025,81.3667863 191.80509,92.9236886 200.162265,102.538071 C207.239053,96.5577288 223.128994,83.2365527 237.563452,71.8615342" id="Fill-18" fill="#78A765"></path>
            <path d="M250.621615,73.4123741 C250.009976,74.4199122 249.07623,75.1473765 248.015814,75.5183833 C233.542761,87.2705694 213.912393,103.97315 206.091371,110.662185 C208.27011,113.797556 209.70692,116.441889 210.257033,118.336933 L210.437991,118.969827 C211.212493,121.908783 211.596125,125.469721 211.310211,129.379842 L211.310211,129.430764 L211.310211,169.543147 C221.024058,168.942989 227.578372,167.018846 230.777716,165.851266 C234.80947,155.692226 244.534174,143.103456 267.783711,146.937193 C271.65622,135.83245 282.553536,112.742733 306.570335,111.378737 C308.314774,101.194237 311.713173,80.2250775 310.341509,79.0938704 C308.224295,77.675315 296.914395,73.2850678 285.861455,69.385859 C276.067986,65.9267662 266.788439,62.9441624 264.924568,62.9441624 C263.969107,62.9441624 258.243583,67.2798498 250.621615,73.4123741" id="Fill-20" fill="#E94F4D"></path>
            <path d="M211.167513,121.935215 C211.543269,124.258876 211.684177,126.860797 211.478234,129.643407 L211.478234,129.690386 L211.478234,169.543147 C221.179241,168.946874 227.71884,167.038798 230.912766,165.875161 C234.941304,155.785488 244.645924,143.278197 267.856081,147.083507 C271.722032,136.054252 282.600889,113.11398 306.580623,111.758812 C308.322108,101.636616 311.711137,80.8031767 310.341796,79.6829051 C310.139466,79.5455814 309.84681,79.3793476 309.474667,79.1878173 C304.506739,81.9234484 298.863174,85.3962905 292.630683,89.8051016 C267.122634,107.837861 244.212359,126.134427 238.507372,127.413705 C234.44993,128.31715 220.471086,124.775646 211.167513,121.935215" id="Fill-22" fill="#CB2D2C"></path>
            <path d="M141.653636,71.7660694 L141.639067,71.7624365 C141.507948,71.7152096 141.384113,71.6643498 141.260278,71.61349 C132.537195,68.2276797 123.661139,66.4221564 115.229433,67.1741551 C87.559596,69.6517544 85.8550437,101.402808 86.3613103,114.651788 C95.7181369,115.665352 105.304422,121.209071 109.707849,137.767572 C117.939234,135.834899 130.850854,135.932986 138.084274,151.917498 C144.414428,152.015585 155.195357,153.762983 162.658237,163.408183 C163.816458,163.041265 165.098514,163.012203 166.351433,163.390018 L166.566323,163.451777 C182.868836,157.868096 192.214736,150.137405 197.186347,142.439409 C200.103754,137.909253 201.495077,133.429957 201.899361,129.470157 C201.903004,129.197694 201.924857,128.928864 201.968563,128.667299 C202.157958,125.997159 201.899361,123.588584 201.374884,121.601418 L201.26926,121.205438 C200.762993,119.476205 199.251478,116.918683 196.913182,113.838031 C196.650943,113.634592 196.403273,113.398457 196.181098,113.140525 C195.856942,112.766342 195.601988,112.355831 195.408951,111.927156 C188.219237,103.073916 175.249342,90.8457641 160.017637,81.2332599 C154.128191,77.5168608 147.932799,74.2400359 141.653636,71.7660694" id="Fill-24" fill="#FBBE00"></path>
            <path d="M90.3502146,86.2944162 C86.4141536,96.3113495 86.1085814,107.764481 86.3595871,114.482533 C95.7050038,115.499536 105.2796,121.062069 109.677657,137.680409 C117.899004,135.737532 130.794879,135.835952 138.019479,151.878355 C144.345551,151.976774 155.109696,153.730102 162.563475,163.404389 C163.723922,163.039872 165.000777,163.007066 166.252168,163.386164 L166.466796,163.451777 C182.753067,157.845502 192.08757,150.088575 197.049481,142.364455 C197.791585,141.208936 198.431831,140.060707 198.984772,138.919768 C183.560651,146.957372 157.295992,143.224716 121.125701,118.062092 C103.107854,105.5227 94.2790001,94.8386999 90.3502146,86.2944162" id="Fill-26" fill="#F08400"></path>
            <g id="Group-30">
                <mask id="mask-4" fill="white">
                    <use xlink:href="#path-3"></use>
                </mask>
                <g id="Clip-29"></g>
                <path d="M198.508344,387.503734 C170.601173,387.503734 131.399106,385.768846 97.8553678,377.340694 C65.7624836,369.274732 38.9615884,355.167447 33.5281412,330.690674 C23.7602686,286.735344 30.064228,204.974663 32.6721375,176.738362 C35.8313715,177.542423 39.5673198,177.853906 43.9851694,177.49896 C49.2553955,188.73046 66.0889257,214.57631 106.629406,205.047101 C112.240582,211.019608 125.835082,221.646251 145.889507,212.573401 C152.784689,218.05333 169.712525,228.520609 198.508344,228.520609 C227.304163,228.520609 244.235626,218.05333 251.130808,212.573401 C271.181607,221.646251 284.779733,211.019608 290.39091,205.047101 C330.927763,214.57631 347.768547,188.73046 353.035146,177.49896 C357.452996,177.853906 361.188944,177.542423 364.348178,176.738362 C366.956088,204.974663 373.25642,286.735344 363.492174,330.690674 C358.058727,355.167447 331.254205,369.274732 299.164948,377.340694 C265.62121,385.768846 226.419143,387.503734 198.508344,387.503734 L198.508344,387.503734 Z M376.136365,168.907823 C378.051491,187.987971 386.778377,283.338005 375.664837,333.381742 C368.961893,363.570246 338.475829,380.325137 302.193605,389.445071 C267.362234,398.202815 227.101044,399.999276 198.508344,399.999276 C169.919272,399.999276 129.658081,398.202815 94.8267107,389.445071 C58.5444864,380.325137 28.0584227,363.570246 21.3554785,333.381742 C10.238312,283.338005 18.9688242,187.991593 20.8839511,168.907823 C16.317389,162.562261 15.7007762,154.235522 15.8277259,149.179355 C11.2430281,146.147828 7.31846885,141.33795 4.53282972,135.553782 C1.48240978,129.208221 -0.25498754,121.56602 0.0315560683,113.836894 C0.321726811,105.930295 2.6902455,97.9041734 7.86616613,90.9827301 C12.8244587,84.3474167 20.2963553,78.7950501 30.8948417,75.4375525 C32.82085,65.1658554 40.3108823,40.3268926 67.7827974,38.1066703 C71.6493226,31.3119934 82.1970291,19.2800549 107.07917,23.9885197 C113.763979,15.3321882 132.770162,-4.30211003 157.906203,12.344124 C164.090467,7.50164906 177.097371,0.0296775964 198.508344,0.0296775964 C219.922945,0.0296775964 232.933476,7.50164906 239.114113,12.344124 C264.250153,-4.30211003 283.256337,15.3321882 289.941145,23.9885197 C314.826914,19.2800549 325.370993,31.3119934 329.237518,38.1066703 C356.71306,40.3268926 364.199466,65.1658554 366.125474,75.4375525 C376.72396,78.7950501 384.195857,84.3474167 389.15415,90.9827301 C394.33007,97.9041734 396.698589,105.930295 396.98876,113.836894 C397.275303,121.56602 395.537906,129.208221 392.487486,135.553782 C389.701847,141.33795 385.777287,146.147828 381.188963,149.179355 C381.319539,154.235522 380.699299,162.562261 376.136365,168.907823 L376.136365,168.907823 Z M201.341136,169.849516 C195.693688,169.64669 189.320813,168.983883 182.244274,167.632915 C190.695497,163.283018 196.890642,158.255827 201.341136,153.04754 L201.341136,169.849516 Z M237.13007,72.7211305 C222.7775,84.0467993 206.977703,97.3101825 199.941062,103.26458 C191.631298,93.6919084 179.128566,82.1887666 164.953725,73.2318178 C159.930144,70.0590369 154.681681,67.1796296 149.306268,64.7746906 C151.830753,58.2552778 156.857961,46.5239566 161.108963,44.2602716 C165.592101,41.8734422 217.594325,64.1879435 237.13007,72.7211305 L237.13007,72.7211305 Z M250.746332,74.0105254 C258.385077,67.9040088 264.123204,63.5867087 265.080767,63.5867087 C266.948741,63.5867087 276.248713,66.5602854 286.067366,70.0010866 C297.141007,73.8837591 308.475802,78.2590095 310.597675,79.667927 C311.972359,80.7943367 308.570107,101.674567 306.821828,111.819498 C282.748538,113.177709 271.827237,136.165883 267.94983,147.223531 C244.645492,143.406053 234.90301,155.941435 230.858755,166.057391 C227.652368,167.223641 221.087255,169.136002 211.352027,169.733615 L211.352027,129.791346 L211.352027,129.744261 C211.634943,125.847101 211.250467,122.304887 210.47426,119.374773 L210.292904,118.744563 C209.741579,116.857555 208.301607,114.224437 206.118072,111.102362 C213.959936,104.445318 233.629886,87.8099492 248.134796,76.1076032 C249.197546,75.7381698 250.133347,75.0174125 250.746332,74.0105254 L250.746332,74.0105254 Z M140.024431,61.1672822 C143.042207,53.5902758 149.516641,39.1497764 156.419078,35.4735519 C165.298303,30.7469776 232.407541,59.7837179 246.074583,65.7851996 C255.38181,58.7261243 262.893605,53.5902758 265.080767,53.5902758 C268.07678,53.5902758 278.635368,56.8354946 289.349922,60.5914007 C301.076448,64.6986308 313.372433,69.5302401 316.114546,71.3520538 L316.110919,71.3556757 L316.132682,71.3737852 C321.693079,75.071741 318.613642,100.258406 316.760176,112.442464 C319.571205,112.927798 322.52732,113.677531 325.635774,114.738746 C328.903822,115.843424 330.652101,119.385639 329.545825,122.645345 C328.439549,125.905051 324.895838,127.654427 321.62779,126.549749 C287.630661,114.945194 278.385096,155.792937 278.359706,155.908838 L278.34157,155.905216 L278.308926,156.028361 C277.460176,159.360505 274.068806,161.370657 270.735469,160.523133 C242.081108,153.163441 240.503305,178.476872 240.499678,178.545688 C240.242151,181.982867 237.242511,184.561657 233.800361,184.308125 C231.090892,184.105298 228.914611,182.203803 228.236337,179.726426 C216.887034,182.417495 196.491658,184.641339 168.628012,177.278024 C168.754962,177.774224 168.874657,178.277668 168.987098,178.791977 C169.730661,182.16034 167.597906,185.496106 164.221044,186.234973 C160.847809,186.977462 157.507218,184.844165 156.767283,181.475802 C152.697638,163.01862 137.028418,164.420294 134.837629,164.706423 C131.769073,165.329389 128.653365,163.565526 127.65953,160.523133 C122.273236,144.029019 107.764699,151.80523 107.7248,151.826961 C107.119069,152.138444 106.455303,152.35938 105.744385,152.460793 C102.327624,152.960615 99.1538819,150.599138 98.6569645,147.190934 C94.2826405,117.429815 68.7149709,130.787367 68.6424282,130.823586 C65.5666184,132.388245 61.801653,131.164044 60.2311038,128.089055 C58.667809,125.017687 59.8937803,121.258159 62.9695902,119.6935 C63.016743,119.671768 68.7584965,116.680082 76.2993087,115.383444 C75.7516114,99.69339 78.0874859,60.964456 114.170218,57.7301029 C122.686729,56.9695047 131.442631,58.353069 140.024431,61.1672822 L140.024431,61.1672822 Z M141.344708,72.2285526 C147.597887,74.6914419 153.767643,77.962014 159.632719,81.6672136 C174.801395,91.2507504 187.713993,103.438431 194.877583,112.264991 C195.069821,112.692375 195.32372,113.101649 195.642908,113.474704 C195.86779,113.735481 196.114436,113.970904 196.375589,114.17373 C198.70421,117.241476 200.20947,119.794913 200.713642,121.518935 L200.818829,121.913722 C201.341136,123.891277 201.598663,126.292594 201.410052,128.95831 C201.366526,129.219086 201.341136,129.483485 201.341136,129.755127 C200.934897,133.702994 199.552959,138.172413 196.643997,142.688918 C191.696586,150.360093 182.389359,158.07111 166.154306,163.637964 L165.940305,163.576392 C164.692571,163.196093 163.41582,163.22869 162.258764,163.594501 C154.830393,153.978367 144.094076,152.236235 137.790116,152.138444 C130.583,136.19848 117.728437,136.104311 109.531113,138.031159 C105.142281,121.518935 95.5956631,115.995544 86.2811823,114.981413 C85.7770106,101.77598 87.4745095,70.1206091 115.026222,67.6504761 C123.426665,66.8971217 132.262364,68.7008259 140.94935,72.076433 C141.0763,72.1271395 141.199623,72.1778461 141.326572,72.2249307 L141.344708,72.2285526 Z M198.508344,12.5252188 C172.759318,12.5252188 163.151039,24.3543312 163.125649,24.3869282 C160.913097,27.0272904 156.970402,27.3786144 154.326222,25.1656359 L154.210153,25.0678447 C131.616734,6.96923035 115.127781,34.1551818 115.080629,34.2348635 C113.618893,36.5999616 110.826,37.6430676 108.261616,37.0056139 L108.261616,37.0164796 C82.2659446,30.526042 77.7864338,45.9516971 77.7719252,45.9951598 C76.9594472,48.6826067 74.4857416,50.413873 71.8089165,50.4102511 L71.8089165,50.4356043 C44.9608685,50.4356043 42.733808,80.7363863 42.7265538,80.8233118 C42.4980443,83.7280724 40.3108823,86.0134888 37.5578874,86.4879572 C28.1237111,88.8711648 21.8016161,93.21744 17.8879382,98.4474578 C14.3297194,103.206629 12.697509,108.773483 12.4943895,114.275143 C12.2840157,119.957898 13.5498856,125.557349 15.7805731,130.186133 C18.0439049,134.894597 21.1958846,138.451299 24.5908823,139.744316 C27.4273013,140.820019 29.0159862,143.732024 28.5335773,146.607809 C28.2869322,148.38616 26.0090918,168.179822 46.919521,164.550682 C50.0352293,164.018263 53.0094795,165.890783 53.9307716,168.824519 C53.9634158,168.92231 64.5401394,204.03297 107.20612,192.030007 C109.977251,191.251299 112.83906,192.471878 114.250015,194.826111 C115.780665,196.915945 126.070845,209.621556 143.800278,199.643232 C146.437204,198.165499 149.687117,198.806574 151.584108,201.008687 C153.056725,202.537127 166.923259,216.02869 198.508344,216.02869 C230.097057,216.02869 243.963591,202.537127 245.436208,201.008687 C247.333199,198.806574 250.583111,198.165499 253.220038,199.643232 C270.94947,209.621556 281.243277,196.915945 282.770301,194.826111 C284.184883,192.471878 287.043065,191.251299 289.814196,192.030007 C332.480176,204.03297 343.0569,168.92231 343.085917,168.824519 C344.014463,165.890783 346.985086,164.018263 350.100795,164.550682 C371.011224,168.179822 368.733383,148.38616 368.486738,146.607809 C368.000702,143.732024 369.593014,140.820019 372.429433,139.744316 C375.824431,138.451299 378.976411,134.894597 381.24337,130.186133 C383.466803,125.557349 384.7363,119.957898 384.525926,114.275143 C384.322807,108.773483 382.690596,103.206629 379.132377,98.4474578 C375.2187,93.21744 368.896605,88.8711648 359.462428,86.4879572 C356.709433,86.0134888 354.522271,83.7280724 354.293762,80.8233118 C354.286508,80.7363863 352.059447,50.4356043 325.211399,50.4356043 L325.211399,50.4102511 C322.534574,50.413873 320.060868,48.6826067 319.24839,45.9951598 C319.233882,45.9516971 314.754371,30.526042 288.762327,37.0164796 L288.7587,37.0056139 C286.194316,37.6430676 283.405049,36.5999616 281.939687,34.2348635 C281.896162,34.1551818 265.403582,6.96923035 242.810162,25.0678447 L242.694094,25.1656359 C240.049913,27.3786144 236.107218,27.0272904 233.894666,24.3869282 C233.869276,24.3543312 224.260998,12.5252188 198.508344,12.5252188 L198.508344,12.5252188 Z" id="Fill-28" fill="#5B0030" mask="url(#mask-4)"></path>
            </g>
            <path d="M238.603752,127.300063 C245.266008,128.824342 272.194596,107.669087 278.272316,103.125215 L306.246533,83.2154518 C309.48508,81.1082538 314.571631,79.6998345 314.691443,75.583195 C305.331607,74.2399467 259.124228,110.105761 246.925219,119.599014 C243.886359,121.966896 239.151981,124.055991 238.603752,127.300063 L238.603752,127.300063 Z M144.086843,136.623147 C144.028752,133.846135 143.284468,133.806308 141.559905,132.6984 L120.948662,118.335419 C111.959154,112.238303 95.3815715,104.504669 91.0138904,91.8071717 C89.3655719,87.0098565 91.315235,82.4406402 90.4583998,79.5550099 C86.4392619,78.9503671 82.7686671,89.8629013 89.8194041,100.159931 C98.0682581,112.198477 111.429078,118.798858 123.53369,126.434735 C128.718269,129.707772 136.683932,136.344359 144.086843,136.623147 L144.086843,136.623147 Z M36.9969669,322.230364 C36.9969669,330.105202 41.4880904,362.690739 50.5756263,365.482234 C50.5066438,359.247534 45.1986224,347.154679 43.5684572,334.652695 C42.3739708,325.5034 42.5591344,304.460385 39.487598,301.66527 C35.8569405,304.78262 36.9969669,317.67563 36.9969669,322.230364 L36.9969669,322.230364 Z M235.096537,36.3574499 C229.991832,37.3313954 224.298961,38.953431 224.705595,44.7283122 C230.282285,44.4060775 230.852298,41.0171817 242.644674,41.0171817 C248.962018,41.0171817 250.958879,44.6160732 255.424588,44.062119 C255.235794,37.5450117 246.685596,35.5102259 239.772823,35.5102259 C240.789408,31.6759944 242.68098,24.2718363 245.574614,21.2956907 C248.206841,18.5910911 248.381113,20.6367387 248.370221,16.9400906 C240.164935,12.7220739 235.111059,28.7288137 235.096537,36.3574499 L235.096537,36.3574499 Z M230.957587,162.456236 C230.855928,166.89149 230.191518,169.773499 232.63132,172.094314 C236.810207,170.468658 236.846513,154.574157 237.115182,150.334416 C237.354806,146.64501 237.652519,141.862177 237.405635,138.589141 C237.020785,133.545624 238.088198,129.139335 232.870943,128.57814 L230.957587,162.456236 Z M18.3825855,90.7535727 C21.8716475,90.873053 36.2599435,82.8135635 49.6970072,88.8237848 C52.445415,90.0511733 59.082257,94.7072845 57.7280217,89.4103244 C57.2524056,87.5493282 53.4511071,85.0366213 51.512336,84.1387087 C36.5867026,77.2341955 16.6253473,83.7947503 18.3825855,90.7535727 L18.3825855,90.7535727 Z M335.712688,98.2989347 C340.091523,98.4256563 343.293763,92.8571501 351.509941,88.4037934 C362.365607,82.5166731 366.551756,85.0221388 371.87793,85.1814459 C374.143461,71.7163779 335.596769,84.0952613 335.712688,98.2989347 L335.712688,98.2989347 Z M351.517203,138.914996 C351.822178,141.923727 353.129214,141.804247 359.747903,143.386456 C363.403975,144.266265 367.913252,144.936079 371.605631,144.259024 C377.309394,143.212666 387.311856,137.846915 386.78178,133.038738 C386.400561,132.912016 386.248073,132.749088 385.18429,132.843224 C382.965958,133.042358 381.346685,134.46526 379.418806,135.479032 C377.080663,136.717283 374.379453,138.078634 371.899714,138.654312 C365.364531,140.17135 355.140599,136.670215 351.517203,138.914996 L351.517203,138.914996 Z M54.8961088,50.7385335 C63.5080286,50.4018163 63.355541,47.6465281 72.8642332,51.4517947 C76.9813989,53.1027952 83.480276,57.8820073 87.4304314,57.7263208 C87.3541876,53.8595038 85.1031799,52.3786722 82.4310159,50.441643 C80.3470185,48.9282259 76.8506952,47.1287801 74.0369356,45.9774245 C68.8668792,43.8629852 55.7057455,42.1504342 54.8961088,50.7385335 L54.8961088,50.7385335 Z M228.339883,129.526741 C229.788515,125.196485 221.859159,123.335489 218.337421,121.818451 C216.471263,121.018295 205.615597,116.10512 203.429941,118.386108 C199.468894,122.506368 225.297392,131.040158 228.339883,129.526741 L228.339883,129.526741 Z M24.463937,155.236729 C28.8969699,153.249012 24.2751428,146.996209 36.4959362,140.229279 C39.2298214,138.712242 40.6203632,139.262575 40.8164187,135.446447 C36.5358734,134.284229 28.8897086,137.87588 26.5370425,140.269106 C24.6672538,142.17355 19.1123477,152.666093 24.463937,155.236729 L24.463937,155.236729 Z M334.794394,45.5900186 C333.385699,35.9193554 315.922236,46.2381088 314.996418,55.0470656 C314.636983,58.4287202 316.205427,59.239738 318.500002,57.0275421 C320.210042,55.3801622 320.689289,53.6169226 322.562708,51.6943759 C327.790855,46.3141417 328.53514,48.193241 334.794394,45.5900186 L334.794394,45.5900186 Z M282.610952,184.560092 C282.610952,189.379131 284.894636,192.0258 287.258194,194.288685 C288.488987,195.465385 289.676212,196.504501 291.400774,197.333622 C296.305793,199.690643 299.885621,197.087421 294.58123,193.419737 C292.573477,192.029421 291.909066,191.783219 290.293424,189.828087 C286.542954,185.284215 288.191273,180.714999 286.001986,178.495561 C283.144659,179.259511 282.610952,180.9612 282.610952,184.560092 L282.610952,184.560092 Z M348.721596,337.91849 C350.380807,332.79894 345.330562,332.969109 343.845623,336.198698 C342.092015,340.003964 346.692059,344.189396 348.721596,337.91849 L348.721596,337.91849 Z M157.897864,140.337898 C157.897864,139.501536 157.712701,139.019994 157.513015,138.194494 C155.145826,137.434164 149.848697,136.536252 151.170256,140.873749 C152.034352,143.708691 157.897864,143.256114 157.897864,140.337898 L157.897864,140.337898 Z M352.831501,204.766745 C349.79264,209.643714 351.782241,228.876422 351.764087,235.900415 C351.735042,246.534162 349.433205,306.368449 348.220565,315.572053 C347.697751,319.551109 345.468527,325.597536 347.80304,328.50489 C349.24078,327.349914 348.739749,327.929213 349.759964,325.601157 C352.755257,318.787159 354.073185,307.146881 354.305548,300.122888 C354.857407,283.489782 360.459512,211.982631 352.831501,204.766745 L352.831501,204.766745 Z" id="Fill-31" fill="#5B0030"></path>
            <path d="M217.218999,303.107832 C217.240754,303.736029 217.258883,304.371531 217.258883,305.010686 C217.258883,321.588527 208.846991,335.025381 198.473532,335.025381 C188.103698,335.025381 179.695431,321.588527 179.695431,305.010686 C179.695431,304.174307 179.713561,303.352537 179.75707,302.538071 C184.329224,305.679059 192.070341,308.582646 204.637418,307.348165 C209.873096,306.836842 213.984772,305.262695 217.218999,303.107832" id="Fill-33" fill="#CD5B5A"></path>
            <path d="M115.736041,300.507614 C130.276544,300.507614 142.13198,288.648569 142.13198,274.115284 C142.13198,259.571172 130.276544,247.715736 115.736041,247.715736 C101.199147,247.715736 89.3401015,259.571172 89.3401015,274.115284 C89.3401015,288.648569 101.199147,300.507614 115.736041,300.507614" id="Fill-35" fill="#5B0030"></path>
            <path d="M85.9442157,249.880774 C86.5975233,250.949496 87.2972407,251.860168 88.1147677,252.793419 C89.7676716,254.565843 91.4991152,256.018402 93.6946571,256.966705 C93.726787,256.977995 93.7553469,256.989284 93.7874768,256.993047 C93.8160367,257.011863 93.8445966,257.026915 93.8767265,257.041967 C93.9659761,257.075835 94.2551451,257.16615 94.3015549,257.196255 C96.8219656,258.046717 98.906838,258.073059 101.473659,257.369358 C102.476825,257.041967 103.322912,256.676946 104.226118,256.11248 C104.893706,255.691012 108.492253,252.985337 107.414117,251.77738 C106.62515,250.994653 103.89411,252.83105 102.869523,253.293912 C102.109116,253.613776 101.459379,253.847089 100.656132,254.035244 C98.7568985,254.426608 97.278924,254.336293 95.4653706,253.655171 C95.4403807,253.651407 95.2047616,253.553567 95.1512118,253.527225 C95.1297919,253.519699 95.104802,253.515936 95.0798121,253.512172 C95.0619621,253.49712 95.0405422,253.482068 95.0191223,253.474541 C93.2162789,252.744498 91.8739638,251.698355 90.4495391,250.332346 C90.1175303,250.129139 88.7145255,248.431977 88.3539568,248.002983 C87.6792293,247.178862 85.7835663,244.217296 84.6840103,244.729079 C83.3702551,245.440306 85.5193872,249.177072 85.9442157,249.880774" id="Fill-37" fill="#5B0030"></path>
            <path d="M81.536591,259.221126 C82.7161128,260.178627 83.8440306,260.84316 85.2299687,261.482685 C87.7769987,262.525931 90.0696942,263.026118 92.8341985,262.933226 C92.8710586,262.933226 92.9079186,262.926081 92.9447787,262.922508 C92.9816388,262.926081 93.0221848,262.926081 93.0590449,262.926081 C93.2580892,262.91179 93.9436862,262.826043 94.0358364,262.840334 C97.0767911,262.447331 99.4616368,261.582722 102.115561,260.09288 C102.47679,259.967834 103.940134,258.906723 104.327164,258.606611 C104.950099,258.109997 108.602931,255.012412 107.357061,253.944156 C106.406072,253.218886 103.475697,255.580481 102.524708,256.162842 C101.850169,256.562991 101.19406,256.927413 100.493718,257.288262 C98.1973369,258.399391 96.2032078,259.053206 93.6414338,259.306873 C93.5271676,259.339027 93.0295568,259.349746 92.8563146,259.360464 C92.8268265,259.360464 92.7973385,259.36761 92.7641644,259.378328 C92.7383624,259.371182 92.7051883,259.371182 92.6757003,259.371182 C90.4198648,259.478365 88.7095581,259.188971 86.5790468,258.4244 C85.384781,257.959941 84.4669655,257.477618 83.3832798,256.813084 C82.4175463,256.191424 79.3765916,253.572589 78.4514042,254.179959 C77.1244421,255.194623 80.932086,258.724512 81.536591,259.221126" id="Fill-39" fill="#5B0030"></path>
            <path d="M220.807556,282.303807 C221.171982,280.824813 222.678027,279.921188 224.172917,280.282638 C225.664088,280.644088 226.575152,282.141523 226.207008,283.61683 C226.19957,283.650024 222.975518,296.027844 236.414649,299.122299 C237.913257,299.461619 238.850352,300.944302 238.508238,302.426985 C238.162405,303.909667 236.671234,304.835422 235.172626,304.49979 C216.174142,300.121819 220.7964,282.355443 220.807556,282.303807" id="Fill-41" fill="#5B0030"></path>
            <path d="M222.083518,292.26899 C222.521265,290.840113 224.038787,290.037048 225.479704,290.474755 C226.916973,290.901609 227.730453,292.410069 227.292706,293.838945 C227.278114,293.882354 222.433716,310.659898 198.675004,310.659898 C197.164778,310.659898 195.939086,309.444449 195.939086,307.950459 C195.939086,306.452851 197.164778,305.237402 198.675004,305.237402 C218.355374,305.237402 222.072574,292.305164 222.083518,292.26899" id="Fill-43" fill="#5B0030"></path>
            <path d="M81.6427648,265.736642 C83.0242726,266.327233 84.2658354,266.657816 85.7514048,266.88068 C88.4283004,267.16669 90.7104794,266.984684 93.2510184,266.070939 C93.2869017,266.059796 93.3191967,266.044938 93.3514917,266.026366 C93.387375,266.018937 93.4268466,266.007794 93.4591416,265.992936 C93.6421465,265.926077 94.252163,265.636353 94.3418713,265.621496 C97.0546501,264.325167 99.0174677,262.765115 101.044875,260.495611 C101.346295,260.261604 102.394088,258.779555 102.663213,258.363541 C103.097401,257.687518 105.580527,253.519952 104.105722,252.832786 C103.007693,252.394486 100.980285,255.603735 100.266207,256.465478 C99.756664,257.067212 99.2578859,257.624373 98.7052828,258.188964 C96.8967635,259.97188 95.2389542,261.219921 92.9316568,262.23024 C92.8383602,262.2971 92.3718771,262.453105 92.2175788,262.512535 C92.1888721,262.523679 92.1637538,262.542251 92.1386355,262.557108 C92.1063405,262.560823 92.0776339,262.564537 92.0489272,262.57568 C89.9856364,263.351992 88.3062971,263.574856 86.099473,263.448566 C84.8507335,263.337134 83.8531772,263.132842 82.6510861,262.79483 C81.5674098,262.464248 77.9647247,260.759334 77.2829416,261.639649 C76.346387,263.039981 80.9322751,265.417203 81.6427648,265.736642" id="Fill-45" fill="#5B0030"></path>
            <path d="M170.744533,283.618369 C170.376361,282.143005 171.287494,280.641823 172.782497,280.284047 C174.270062,279.918895 175.77994,280.822555 176.144393,282.305295 C176.159269,282.353245 180.781876,300.124 161.774518,304.498453 C160.279516,304.837787 158.788232,303.911996 158.446092,302.429256 C158.103952,300.942827 159.041118,299.463775 160.536121,299.120753 C173.976268,296.026177 170.751971,283.651565 170.744533,283.618369" id="Fill-47" fill="#5B0030"></path>
            <path d="M169.661288,293.838695 C169.223537,292.409797 170.040672,290.901315 171.477956,290.474455 C172.91524,290.036742 174.436426,290.843436 174.870529,292.268716 C174.881473,292.297656 177.745096,302.263767 191.775027,304.709172 C192.741728,304.875575 193.763148,305.009421 194.842934,305.099858 C195.926369,305.190294 197.06817,305.237321 198.279282,305.237321 C199.793173,305.237321 201.015228,306.452789 201.015228,307.950419 C201.015228,309.444431 199.793173,310.659898 198.279282,310.659898 C196.933197,310.659898 195.638183,310.605637 194.394239,310.497113 C193.150296,310.395824 191.964719,310.240273 190.833862,310.041312 C173.469725,307.024348 169.672232,293.878487 169.661288,293.838695" id="Fill-49" fill="#5B0030"></path>
            <path d="M113.19797,273.096447 C118.509419,273.096447 122.84264,268.766946 122.84264,263.455496 C122.84264,258.140327 118.509419,253.807107 113.19797,253.807107 C107.88652,253.807107 103.553299,258.140327 103.553299,263.455496 C103.553299,268.766946 107.88652,273.096447 113.19797,273.096447" id="Fill-51" fill="#FFFFFF"></path>
            <path d="M281.218274,300.507614 C295.758777,300.507614 307.614213,288.648569 307.614213,274.115284 C307.614213,259.571172 295.758777,247.715736 281.218274,247.715736 C266.677771,247.715736 254.822335,259.571172 254.822335,274.115284 C254.822335,288.648569 266.677771,300.507614 281.218274,300.507614" id="Fill-53" fill="#5B0030"></path>
            <path d="M311.01011,249.880774 C310.356807,250.949496 309.657094,251.860168 308.839573,252.793419 C307.18311,254.565843 305.455247,256.018402 303.25615,256.966705 C303.22759,256.977995 303.199031,256.989284 303.166901,256.993047 C303.138341,257.011863 303.109782,257.026915 303.077652,257.041967 C302.984833,257.075835 302.699236,257.16615 302.652826,257.196255 C300.132432,258.046717 298.047574,258.073059 295.48077,257.369358 C294.477611,257.041967 293.631529,256.676946 292.728329,256.11248 C292.057176,255.691012 288.462223,252.985337 289.540352,251.77738 C290.325743,250.994653 293.060335,252.83105 294.084915,253.293912 C294.845317,253.613776 295.49148,253.847089 296.294722,254.035244 C298.197512,254.426608 299.671907,254.336293 301.492588,253.655171 C301.514008,253.651407 301.749626,253.553567 301.803175,253.527225 C301.824595,253.519699 301.849585,253.515936 301.874574,253.512172 C301.892424,253.49712 301.913844,253.482068 301.935264,253.474541 C303.738095,252.744498 305.080401,251.698355 306.504817,250.332346 C306.836823,250.129139 308.243389,248.431977 308.600385,248.002983 C309.271538,247.178862 311.174328,244.217296 312.270307,244.729079 C313.584054,245.440306 311.434936,249.177072 311.01011,249.880774" id="Fill-55" fill="#5B0030"></path>
            <path d="M315.41919,259.221126 C314.239769,260.178627 313.111947,260.84316 311.722441,261.482685 C309.175628,262.525931 306.883128,263.026118 304.122544,262.933226 C304.082002,262.933226 304.045145,262.926081 304.008288,262.922508 C303.971431,262.926081 303.930888,262.926081 303.894031,262.926081 C303.695004,262.91179 303.009465,262.826043 302.921009,262.840334 C299.876627,262.447331 297.49567,261.582722 294.841972,260.09288 C294.477088,259.967834 293.017554,258.906723 292.626871,258.606611 C292.003989,258.109997 288.351468,255.012412 289.597232,253.944156 C290.551826,253.218886 293.478266,255.580481 294.43286,256.162842 C295.107341,256.562991 295.759709,256.927413 296.463676,257.288262 C298.759862,258.399391 300.753822,259.053206 303.315378,259.306873 C303.425948,259.339027 303.927203,259.349746 304.096744,259.360464 C304.129916,259.360464 304.159401,259.36761 304.188887,259.378328 C304.218372,259.371182 304.247858,259.371182 304.281029,259.371182 C306.532987,259.478365 308.246834,259.188971 310.373478,258.4244 C311.567642,257.959941 312.489065,257.477618 313.568973,256.813084 C314.53831,256.191424 317.57532,253.572589 318.504115,254.179959 C319.827278,255.194623 316.023644,258.724512 315.41919,259.221126" id="Fill-57" fill="#5B0030"></path>
            <path d="M315.312575,265.736642 C313.931106,266.327233 312.68599,266.657816 311.204051,266.88068 C308.527231,267.16669 306.248705,266.984684 303.701062,266.070939 C303.668768,266.059796 303.632885,266.044938 303.60418,266.026366 C303.564709,266.018937 303.528827,266.007794 303.492944,265.992936 C303.313533,265.926077 302.703534,265.636353 302.613828,265.621496 C299.897538,264.325167 297.938364,262.765115 295.911014,260.495611 C295.606014,260.261604 294.561839,258.779555 294.292722,258.363541 C293.858546,257.687518 291.375491,253.519952 292.846665,252.832786 C293.948252,252.394486 295.975602,255.603735 296.68966,256.465478 C297.199189,257.067212 297.697953,257.624373 298.246952,258.188964 C300.059008,259.97188 301.716771,261.219921 304.024003,262.23024 C304.117297,262.2971 304.583766,262.453105 304.73806,262.512535 C304.766766,262.523679 304.791884,262.542251 304.82059,262.557108 C304.849295,262.560823 304.878001,262.564537 304.906707,262.57568 C306.96994,263.351992 308.649231,263.574856 310.855993,263.448566 C312.104697,263.337134 313.102225,263.132842 314.304282,262.79483 C315.387928,262.464248 318.994099,260.759334 319.672275,261.639649 C320.605214,263.039981 316.019456,265.417203 315.312575,265.736642" id="Fill-59" fill="#5B0030"></path>
            <path d="M283.756345,273.096447 C289.067795,273.096447 293.401015,268.766946 293.401015,263.455496 C293.401015,258.140327 289.067795,253.807107 283.756345,253.807107 C278.444896,253.807107 274.111675,258.140327 274.111675,263.455496 C274.111675,268.766946 278.444896,273.096447 283.756345,273.096447" id="Fill-61" fill="#FFFFFF"></path>
            <path d="M116.243655,321.827411 C131.62212,321.827411 144.162437,318.63242 144.162437,314.719007 C144.162437,310.805594 131.62212,307.614213 116.243655,307.614213 C100.86519,307.614213 88.3248731,310.805594 88.3248731,314.719007 C88.3248731,318.63242 100.86519,321.827411 116.243655,321.827411" id="Fill-63" fill="#EF838A"></path>
            <path d="M281.725888,321.827411 C297.102347,321.827411 309.64467,318.63242 309.64467,314.719007 C309.64467,310.805594 297.102347,307.614213 281.725888,307.614213 C266.34943,307.614213 253.807107,310.805594 253.807107,314.719007 C253.807107,318.63242 266.34943,321.827411 281.725888,321.827411" id="Fill-65" fill="#EF838A"></path>
        </g>
    </g>
</svg>