<?xml version="1.0" encoding="UTF-8"?>
<svg width="399px" height="293px" viewBox="0 0 399 293" version="1.1" xmlns="http://www.w3.org/2000/svg" xmlns:xlink="http://www.w3.org/1999/xlink">
    <!-- Generator: Sketch 55.2 (78181) - https://sketchapp.com -->
    <title>Group 69</title>
    <desc>Created with Sketch.</desc>
    <defs>
        <polygon id="path-1" points="0.000143202261 0.153459119 398.339217 0.153459119 398.339217 291.823899 0.000143202261 291.823899"></polygon>
        <polygon id="path-3" points="0 0.153459119 398.339623 0.153459119 398.339623 291.823899 0 291.823899"></polygon>
    </defs>
    <g id="Page-1" stroke="none" stroke-width="1" fill="none" fill-rule="evenodd">
        <g id="Desktop" transform="translate(0.000000, -54.000000)">
            <g id="Group-69" transform="translate(0.000000, 52.000000)">
                <g id="Group-3" transform="translate(0.000000, 2.362264)">
                    <mask id="mask-2" fill="white">
                        <use xlink:href="#path-1"></use>
                    </mask>
                    <g id="Clip-2"></g>
                    <path d="M189.448302,291.823899 C171.244528,291.823899 161.564025,284.171069 157.619371,279.962264 C131.848302,287.916981 112.701132,274.953459 106.650818,270.037736 C85.3803774,276.81761 73.5866667,259.700629 70.2659119,253.864151 C35.8508176,244.442767 40.1728302,209.539623 42.4118239,198.681761 C38.3137107,195.743396 31.8130818,189.23522 33.7778616,178.387421 C17.7023899,176.178616 7.38037736,165.25283 2.74641509,150.384906 C-1.2208805,137.672956 -0.881257862,122.012579 3.70993711,106.669182 C8.26591195,91.4415094 17.038239,76.4553459 29.9690566,64.9333333 C54.3791195,43.1949686 93.4231447,33.7534591 146.587925,58.2792453 C151.823145,57.7383648 173.254591,55.9748428 187.106164,61.6603774 C194.114969,58.7371069 220.336352,49.9572327 257.209308,63.5471698 C276.907421,70.8075472 292.723774,73.6754717 304.545157,72.7069182 C315.065912,71.8440252 322.180377,67.8641509 325.787925,61.2125786 C323.262138,53.7735849 313.943899,24.518239 318.525031,9.95471698 C320.092327,4.97358491 322.962767,2.13333333 326.462138,0.870440252 C329.101132,-0.0855345912 331.964025,-0.0377358491 334.786667,0.727044025 C337.327547,1.41383648 339.853333,2.68679245 342.12,4.30691824 C345.470943,6.70691824 348.351447,9.98993711 350.011824,13.3937107 C361.516226,8.94842767 391.330063,0.0981132075 397.151447,24.9735849 C400.192956,37.9773585 397.118742,50.7849057 391.053333,61.2654088 C383.946415,73.5446541 372.577862,82.7169811 362.099874,85.290566 C360.228176,85.7484277 357.04327,91.4012579 352.52,99.4289308 C346.006792,110.986164 337.075975,126.83522 322.514969,141.391195 C328.358994,147.262893 328.691069,158.674214 328.371572,164.915723 C349.453333,169.162264 339.478491,191.036478 336.17283,197.232704 C338.197987,205.962264 344.781635,243.967296 308.633208,253.864151 C305.317484,259.700629 293.521258,276.81761 272.248302,270.037736 C266.200503,274.953459 247.050818,287.916981 221.282264,279.962264 C217.33761,284.171069 207.657107,291.823899 189.448302,291.823899" id="Fill-1" fill="#5B0030" mask="url(#mask-2)"></path>
                </g>
                <path d="M146.602516,172.161258 C146.272956,199.192704 150.630189,233.079497 162.924528,275.396478 C164.413836,277.393962 171.553459,285.50717 189.447799,285.50717 C209.832704,285.50717 216.262893,274.983899 216.283019,274.953711 C217.372327,273.23044 219.462893,272.553711 221.284277,273.210314 C249.221384,283.331069 268.350943,264.41283 268.408805,264.36 C269.666667,263.139874 271.477987,262.863145 272.98239,263.504654 C292.574843,271.102138 301.890566,250.684528 301.915723,250.629182 C302.51195,249.356226 303.636478,248.515975 304.896855,248.246792 C339.135849,240.053082 327.553459,200.284528 327.518239,200.171321 C327.158491,198.885786 327.410063,197.570063 328.096855,196.543648 C329.269182,194.538616 339.314465,176.563774 323.460377,175.341132 C321.113208,175.16 319.354717,173.082013 319.528302,170.694591 C319.540881,170.536101 319.561006,170.380126 319.588679,170.226667 C319.830189,168.349937 321.596226,153.383899 316.250314,149.610314 C286.65283,175.451824 236.690566,194.410314 146.602516,172.161258" id="Fill-4" fill="#FFFFFF"></path>
                <path d="M289.961509,263.188931 C298.001761,259.201509 301.898616,250.668176 301.916226,250.63044 C302.509937,249.354969 303.636981,248.514717 304.897358,248.24805 C339.136352,240.05434 327.553962,200.28327 327.518742,200.170063 C327.158994,198.887044 327.410566,197.568805 328.094843,196.544906 C329.269686,194.537358 339.312453,176.565031 323.460881,175.339874 C321.113711,175.161258 319.35522,173.08327 319.528805,170.695849 C319.541384,170.537358 319.561509,170.381384 319.589182,170.227925 C319.830692,168.351195 321.594214,153.385157 316.248302,149.611572 C302.48478,161.631698 284.303648,172.16 259.732579,177.747421 L259.770314,177.74239 C287.352704,173.873208 304.703648,160.670692 312.826918,163.118491 C320.952704,165.566289 316.011824,174.919748 316.011824,174.919748 C334.877233,186.539874 316.384151,201.261887 316.384151,201.261887 C316.384151,201.261887 324.567799,210.270692 320.04956,231.704654 C315.536352,253.138616 288.177862,242.031698 288.177862,242.031698 C301.941384,250.451824 290.170314,262.967547 289.961509,263.188931 L289.961509,263.188931 Z M146.603019,172.162516 C146.517484,179.010314 146.736352,186.308428 147.307421,194.066918 C149.878491,180.844277 157.865912,176.887044 165.435723,176.333585 C159.357736,175.146164 153.086038,173.762516 146.603019,172.162516 L146.603019,172.162516 Z" id="Fill-6" fill="#F7C8DC"></path>
                <path d="M188.831698,72.7313208 C185.749937,74.356478 150.504654,94.3715723 146.879497,163.297358 C288.024151,198.774088 326.746164,130.099874 345.121006,97.4860377 C350.713459,87.5665409 354.645535,80.5854088 360.097107,79.2445283 C368.492075,77.1866667 377.754969,69.556478 383.719748,59.2545912 C388.766289,50.5376101 391.34239,39.9665409 388.85434,29.3376101 C384.278239,9.80301887 352.409057,23.9766038 349.282013,25.4181132 C348.680755,25.7501887 347.991447,25.9388679 347.25434,25.9388679 C344.897107,25.9388679 342.985157,23.9967296 342.985157,21.601761 C342.985157,19.2571069 340.456855,16.074717 337.219119,13.7577358 C335.734843,12.6935849 334.144906,11.8734591 332.620377,11.4633962 C331.37761,11.1262893 330.217862,11.0684277 329.292075,11.4030189 C328.227925,11.7879245 327.276981,12.8822642 326.622893,14.9627673 C322.258113,28.8394969 334.366289,62.283522 334.396478,62.3791195 C334.758742,63.3979874 334.748679,64.5527044 334.280755,65.6168553 C329.609057,76.2256604 319.853082,82.5149686 305.209057,83.7149686 C292.237987,84.7791195 275.216604,81.7527044 254.305912,74.047044 C214.517233,59.3778616 189.105912,72.5979874 189.035472,72.6332075 C188.967547,72.6684277 188.899623,72.7011321 188.831698,72.7313208" id="Fill-8" fill="#EE792B"></path>
                <path d="M155.633459,117.139874 C151.220881,129.293333 147.867421,144.46566 146.881258,163.295849 C288.023396,198.772579 326.747925,130.100881 345.120252,97.487044 C350.712704,87.5675472 354.64478,80.5838994 360.096352,79.2455346 C368.491321,77.1851572 377.754214,69.5549686 383.718994,59.2555975 C388.765535,50.5386164 391.341635,39.9650314 388.853585,29.3386164 C384.28,9.80150943 352.410818,23.9750943 349.283774,25.4191195 C348.68,25.751195 347.990692,25.9398742 347.253585,25.9398742 C344.896352,25.9398742 342.986918,23.9977358 342.986918,21.6002516 C342.986918,19.2581132 340.458616,16.0757233 337.220881,13.7562264 C335.734088,12.6920755 334.144151,11.8744654 332.622138,11.4644025 C331.376855,11.1247799 330.217107,11.0669182 329.291321,11.4040252 C328.22717,11.7889308 327.278742,12.8832704 326.624654,14.9637736 C322.257358,28.8379874 334.365535,62.2820126 334.398239,62.3776101 C334.757987,63.3989937 334.747925,64.551195 334.282516,65.6178616 C331.693836,71.4895597 327.55044,76.0379874 321.882516,79.132327 C332.908931,137.660629 233.877484,142.70717 189.716478,137.029182 C169.741635,134.463145 160.073711,126.141132 155.633459,117.139874" id="Fill-10" fill="#DB691B"></path>
                <path d="M343.757484,99.9006289 C336.824151,100.776101 328.96,103.012579 320.376352,105.767296 C290.670692,115.289308 279.161258,90.9974843 277.961258,88.2377358 C277.37761,87.2691824 275.508428,84.1396226 272.990189,79.9761006 C277.000252,81.0201258 280.821635,81.8528302 284.456855,82.4767296 L285.244277,83.7974843 C285.43044,84.0591195 285.591447,84.3459119 285.717233,84.6603774 C285.74239,84.7157233 293.88327,105.176101 317.840503,97.4930818 C329.344906,93.8050314 339.74239,90.9899371 348.934843,90.8415094 C347.729811,92.8591195 346.47195,95.0855346 345.121006,97.4880503 L343.757484,99.9006289 Z M167.727296,93.2616352 C174.514717,97.4679245 182.029182,107.500629 187.782642,129.616352 L187.853082,129.883019 C193.44805,151.389937 196.841761,164.433962 201.531069,172.539623 C198.190189,172.28805 194.761258,171.963522 191.259371,171.563522 C187.553711,162.58239 184.278239,149.986164 179.624151,132.086792 L179.551195,131.820126 C174.197736,111.228931 168.024151,103.309434 163.201509,100.52956 C164.688302,97.8880503 166.207799,95.4704403 167.727296,93.2616352 L167.727296,93.2616352 Z M183.201509,76.4918239 C197.437987,81.2213836 205.443019,86.5471698 218.431698,129.769811 C225.405283,152.96478 239.23673,164.627673 250.788931,170.481761 C246.534843,171.249057 242.076981,171.865409 237.427925,172.320755 C226.87195,164.597484 216.28327,152.189937 210.300881,132.277987 C197.641761,90.154717 190.859371,87.9962264 177.28956,83.6742138 C176.92478,83.5584906 176.557484,83.4402516 175.835472,83.208805 C178.575094,80.3232704 181.103396,78.1220126 183.201509,76.4918239 L183.201509,76.4918239 Z M188.831698,72.7308176 C188.426667,72.9446541 187.463145,73.4805031 186.087044,74.4012579 C191.151195,73.4628931 196.90717,72.5220126 200.321006,71.963522 C201.83044,71.7169811 202.96,71.5333333 203.573836,71.4050314 C203.68956,71.3874214 203.797736,71.3647799 203.908428,71.3371069 C204.348679,71.2238994 205.903396,71.2314465 208.494591,72.2050314 C210.305912,72.8867925 212.414088,74.0314465 214.653082,75.9106918 C217.571321,78.3584906 220.710943,82.036478 223.739874,87.5132075 C226.371321,92.2628931 228.879497,98.2805031 231.053082,105.895597 C236.64805,125.495597 248.046792,141.080503 262.076981,151.206289 C268.162516,155.591195 274.738616,158.957233 281.558742,161.186164 C285.765031,159.324528 289.70717,157.289308 293.402767,155.125786 C284.16,153.76478 275.100881,149.988679 267.010314,144.152201 C254.461887,135.098113 244.245535,121.110692 239.216604,103.48805 C236.831698,95.1283019 234.066918,88.509434 231.171321,83.2767296 C227.578868,76.7861635 223.717233,72.3056604 220.051824,69.2314465 C219.67195,68.9119497 219.292075,68.6075472 218.914717,68.318239 C240.343648,72.3786164 243.362516,77.3194969 249.148679,86.8163522 C253.470692,93.9132075 259.143648,103.221384 272.582642,115.840252 C289.181384,131.427673 304.643019,136.403774 316.736101,137.103145 C319.634214,134.21761 322.300881,131.279245 324.753711,128.333333 C313.905912,129.543396 297.196478,127.168553 278.348679,109.465409 C265.727296,97.6163522 260.424151,88.909434 256.378868,82.2754717 C254.034214,78.4289308 252.064403,75.1937107 249.586415,72.4163522 C212.519748,60.4238994 189.100881,72.6 189.035472,72.6352201 C188.967547,72.6679245 188.899623,72.7006289 188.831698,72.7308176 L188.831698,72.7308176 Z" id="Fill-12" fill="#FFF7BD"></path>
                <path d="M317.642013,106.561006 C319.553962,103.408805 320.982893,99.9748428 321.833208,96.236478 C331.760252,93.1849057 340.816855,90.9735849 348.932579,90.8402516 C347.730063,92.8603774 346.472201,95.0867925 345.121258,97.4867925 L343.757736,99.9018868 C336.824403,100.774843 328.960252,103.013836 320.376604,105.766038 C319.448302,106.065409 318.532579,106.327044 317.642013,106.561006 M212.48478,138.706918 C215.488553,138.787421 218.570314,138.822642 221.72,138.802516 C229.21434,156.100629 240.84956,165.444025 250.789182,170.480503 C246.532579,171.250314 242.077233,171.866667 237.428176,172.322013 C228.057107,165.464151 218.663396,154.918239 212.48478,138.706918 M180.444528,135.250314 C183.262138,135.992453 186.333836,136.593711 189.714969,137.028931 C194.248302,154.34717 197.385409,165.376101 201.531321,172.540881 C198.19044,172.289308 194.761509,171.962264 191.259623,171.56478 C187.777862,163.119497 184.673459,151.481761 180.444528,135.250314 M288.753962,128.143396 C292.223145,126.787421 295.513711,125.27044 298.592956,123.597484 C308.987925,128.447799 318.004277,129.086792 324.753962,128.332075 C322.301132,131.277987 319.634465,134.218868 316.736352,137.104403 C308.683522,136.638994 299.136352,134.274214 288.753962,128.143396 M247.420629,137.403774 C251.813082,142.739623 256.758994,147.366038 262.077233,151.205031 C268.162767,155.592453 274.738868,158.958491 281.558994,161.187421 C285.765283,159.32327 289.707421,157.290566 293.403019,155.124528 C284.157736,153.763522 275.101132,149.987421 267.010566,144.153459 C263.73761,141.788679 260.618113,139.089308 257.712453,136.077987 C254.306164,136.601258 250.864654,137.041509 247.420629,137.403774" id="Fill-14" fill="#DBD37C"></path>
                <path d="M188.831698,72.7313208 C187.385157,73.4935849 178.844277,78.3137107 169.817862,90.3489308 C182.904654,86.8118239 200.826667,83.9766038 221.747421,85.9313208 C265.988931,90.0646541 314.741132,120.854591 348.980126,64.2005031 C362.786415,41.3552201 363.805283,28.6986164 359.480755,21.5841509 C354.336101,23.1464151 350.298365,24.9501887 349.282013,25.4181132 C348.680755,25.7501887 347.991447,25.9388679 347.25434,25.9388679 C344.897107,25.9388679 342.985157,23.9967296 342.985157,21.601761 C342.985157,19.2571069 340.456855,16.074717 337.219119,13.7577358 C336.175094,13.010566 335.08327,12.3816352 333.993962,11.9338365 C332.061887,11.792956 330.426667,11.6545912 329.292075,11.4030189 C328.227925,11.7879245 327.276981,12.8822642 326.622893,14.9627673 C322.258113,28.8394969 334.366289,62.283522 334.396478,62.3791195 C334.758742,63.3979874 334.748679,64.5527044 334.280755,65.6168553 C329.609057,76.2256604 319.853082,82.5149686 305.209057,83.7149686 C292.237987,84.7791195 275.216604,81.7527044 254.305912,74.047044 C214.517233,59.3778616 189.105912,72.5979874 189.035472,72.6332075 C188.967547,72.6684277 188.899623,72.7011321 188.831698,72.7313208" id="Fill-16" fill="#EE792B"></path>
                <path d="M322.612075,91.1718239 C332.041006,86.0397484 340.913962,77.5491824 348.979371,64.2007547 C362.788176,41.3554717 363.804528,28.6988679 359.48,21.5844025 C354.335346,23.1441509 350.29761,24.9504403 349.283774,25.4183648 C348.68,25.7504403 347.990692,25.9391195 347.253585,25.9391195 C344.896352,25.9391195 342.986918,23.9969811 342.986918,21.6020126 C342.986918,19.2573585 340.458616,16.0749686 337.220881,13.7579874 C336.176855,13.0108176 335.082516,12.3818868 333.993208,11.9340881 C332.061132,11.7932075 330.425912,11.6548428 329.291321,11.4032704 C328.22717,11.7881761 327.276226,12.8825157 326.624654,14.9630189 C322.257358,28.8397484 334.365535,62.2837736 334.398239,62.3793711 C334.757987,63.398239 334.747925,64.5504403 334.282516,65.6171069 C331.693836,71.488805 327.55044,76.0372327 321.882516,79.1315723 C322.690063,83.4259119 322.921509,87.4384906 322.612075,91.1718239" id="Fill-18" fill="#DB691B"></path>
                <path d="M305.81283,96.9771069 C309.74239,96.285283 313.604025,95.2085535 317.390189,93.6538365 C318.914717,89.0978616 318.985157,84.685283 318.368805,80.7833962 C315.827925,81.8072956 313.032956,82.5871698 309.991447,83.112956 C310.366289,87.3041509 309.533585,92.1871698 305.81283,96.9771069 M276.497107,96.4966038 C279.322264,96.9368553 282.134843,97.3016352 284.929811,97.558239 C285.905912,93.5330818 287.674465,88.5142138 290.869434,83.3896855 C288.001509,83.0727044 285.000252,82.612327 281.86566,82.0010063 C279.053082,87.2966038 277.43044,92.3657862 276.497107,96.4966038 M238.554969,88.5167296 C239.123522,81.7066667 245.045535,76.6475472 251.621635,73.0928302 C252.512201,73.3972327 253.402767,73.7116981 254.305912,74.0462893 C257.46566,75.2110692 260.537358,76.267673 263.518491,77.2186164 C256.406541,79.7167296 247.478239,84.1192453 247.611572,90.4563522 C244.590189,89.7771069 241.568805,89.1179874 238.554969,88.5167296 M213.294591,85.3846541 C216.051824,85.4827673 218.866918,85.6613836 221.747421,85.930566 C221.993962,85.9532075 222.235472,85.9783648 222.482013,86.0060377 C225.259371,80.3532075 230.54239,74.4362264 240.295849,69.8249057 C235.561258,68.7205031 231.103396,68.0060377 226.937358,67.5934591 C219.523522,73.0777358 215.44805,79.4148428 213.294591,85.3846541 M181.541132,87.6991195 C184.464403,87.1657862 187.538616,86.6953459 190.753711,86.312956 C193.968805,79.2714465 203.053082,72.4865409 211.601509,67.3469182 C202.708428,67.9733333 196.185157,69.8475472 192.499623,71.1859119 C187.161258,76.1645283 182.929811,81.767044 181.541132,87.6991195" id="Fill-20" fill="#FFF7BD"></path>
                <path d="M354.233208,83.2130818 C356.08478,81.1426415 357.979119,79.7665409 360.097358,79.2457862 C368.492327,77.1854088 377.75522,69.5552201 383.72,59.2558491 C388.766541,50.5388679 391.342642,39.965283 388.854591,29.3363522 C384.278491,9.80176101 352.409308,23.9753459 349.282264,25.4168553 C348.681006,25.7514465 347.991698,25.9401258 347.254591,25.9401258 C344.897358,25.9401258 342.985409,23.9979874 342.985409,21.6005031 C342.985409,19.2583648 340.457107,16.0759748 337.219371,13.756478 C335.732579,12.692327 334.145157,11.874717 332.620629,11.4621384 C331.377862,11.1250314 330.218113,11.0671698 329.292327,11.4042767 C328.228176,11.7891824 327.277233,12.883522 326.623145,14.9640252 C322.258365,28.838239 334.366541,62.2822642 334.39673,62.3778616 C334.592956,62.9313208 334.681006,63.5225157 334.645786,64.1187421 C341.314969,63.7363522 351.35522,66.1665409 354.233208,83.2130818" id="Fill-22" fill="#DF4C31"></path>
                <path d="M89.8437736,167.589434 C68.8651572,181.295094 50.0701887,181.951698 42.3544654,181.493836 C40.4903145,190.369308 47.8437736,194.437233 48.930566,194.988176 C50.8953459,195.823396 51.9796226,198.037233 51.3833962,200.170566 C51.3481761,200.283774 39.7632704,240.054843 74.0047799,248.248553 C75.2651572,248.51522 76.3871698,249.355472 76.9833962,250.630943 C77.0085535,250.681258 85.1293082,268.48 102.158239,264.656101 C98.1481761,251.775597 87.0085535,211.320252 89.8437736,167.589434" id="Fill-24" fill="#FFFFFF"></path>
                <path d="M89.8437736,167.589434 C68.8651572,181.295094 50.0701887,181.951698 42.3544654,181.493836 C40.4903145,190.369308 47.8437736,194.437233 48.930566,194.988176 C50.8953459,195.823396 51.9796226,198.037233 51.3833962,200.170566 C51.3481761,200.283774 39.7632704,240.054843 74.0047799,248.248553 C75.2651572,248.51522 76.3871698,249.355472 76.9833962,250.630943 C77.0085535,250.681258 85.1293082,268.48 102.158239,264.656101 C100.902893,260.633459 98.958239,253.926541 96.958239,245.269937 C84.5431447,244.691321 86.4928302,232.316478 86.4928302,232.316478 C86.4928302,232.316478 67.2324528,235.073711 67.2324528,203.229686 C67.2324528,182.376855 80.3695597,177.672453 89.4462893,176.907673 C89.5091824,173.825912 89.64,170.716478 89.8437736,167.589434" id="Fill-26" fill="#F7C8DC"></path>
                <path d="M99.1501887,158.385157 C99.1778616,158.875723 99.1174843,159.371321 98.9866667,159.844277 C93.5828931,209.514717 108.692327,257.451824 111.220629,265.024151 C114.760252,268.123522 130.986667,280.775094 153.789182,274.432956 C141.336352,230.508428 137.374088,195.333585 138.350189,167.290818 C138.28478,166.800252 138.299874,166.28956 138.405535,165.781384 C140.828176,107.260629 164.891069,80.3021384 177.53761,70.0983648 C165.93761,67.6027673 151.464654,68.8455346 147.46717,69.2656604 C115.90239,92.1386164 102.984151,125.557484 99.1501887,158.385157" id="Fill-28" fill="#ACD190"></path>
                <path d="M101.250566,223.028679 C104.74239,244.829937 109.844277,260.905409 111.220377,265.023648 C114.76,268.123019 130.986415,280.774591 153.788931,274.434969 C143.801509,239.209811 139.278239,209.612327 138.382642,184.809811 C136.629182,200.784654 129.051824,222.055094 101.250566,223.028679" id="Fill-30" fill="#78A765"></path>
                <path d="M39.1461635,172.507673 C39.450566,172.492579 39.7574843,172.510189 40.0719497,172.560503 C40.1423899,172.573082 63.9411321,176.993208 90.8895597,156.316478 C94.8769811,123.586918 107.541132,90.1957233 137.508428,66.0674214 C90.8945912,46.3516981 56.887044,54.8221384 35.568805,73.8057862 C23.8883019,84.2083019 15.9637736,97.7630189 11.8405031,111.541635 C7.74993711,125.204528 7.41534591,139.030943 10.8769811,150.137862 C14.9096855,163.066164 24.3134591,172.208302 39.1461635,172.507673" id="Fill-32" fill="#EE792B"></path>
                <path d="M39.1461635,172.507673 C39.450566,172.492579 39.7574843,172.510189 40.0719497,172.560503 C40.1423899,172.573082 63.9411321,176.993208 90.8895597,156.316478 C93.9889308,130.869937 102.336101,105.025912 119.981384,83.443522 L114.245535,81.443522 C114.245535,81.443522 113.787673,108.37434 52.56,140.849811 C31.5059119,152.017107 17.8581132,149.539119 9.01031447,141.478742 C9.4027673,144.502642 10.0241509,147.40327 10.8769811,150.137862 C14.9096855,163.066164 24.3134591,172.208302 39.1461635,172.507673" id="Fill-34" fill="#DB691B"></path>
                <path d="M13.3207547,107.057107 C16.7396226,108.518742 19.9748428,110.730063 22.6440252,113.947673 C26.9484277,119.132579 29.6754717,126.79044 29.1119497,137.882264 C28.9937107,140.257107 28.7220126,142.800503 28.281761,145.512453 C26.7044025,155.260881 27.4591195,163.81434 29.0264151,170.697358 C25.3106918,169.346415 22.1031447,167.281006 19.4062893,164.652075 C18.6968553,158.521258 18.6716981,151.618113 19.8842767,144.121258 C20.2742138,141.726289 20.5106918,139.499874 20.6163522,137.442013 C21.0616352,128.609308 19.2477987,119.497358 10.7874214,115.391698 C11.1044025,114.108679 11.4566038,112.823145 11.8415094,111.540126 C12.2893082,110.04327 12.7823899,108.546415 13.3207547,107.057107 M99.7987421,118.916226 C98.2213836,113.346415 96.7345912,106.533836 95.1496855,98.1715723 C90.8779874,75.638239 77.4490566,73.1275472 77.4113208,73.12 C75.1119497,72.6420126 73.6251572,70.3577358 74.0955975,68.0181132 C74.563522,65.6784906 76.8075472,64.1665409 79.1119497,64.6445283 C79.1647799,64.6545912 98.1509434,68.2495597 103.51195,96.5438994 C104.161006,99.9753459 104.792453,103.127547 105.413836,106.018113 C103.300629,110.239497 101.436478,114.548931 99.7987421,118.916226 M49.8264151,172.833208 C52.9308176,172.621887 56.6641509,172.123774 60.8578616,171.10239 C51.5144654,163.952704 51.9874214,153.409308 52.5610063,140.850818 C52.918239,132.918742 53.3106918,124.28478 51.7610063,115.016855 C48.8150943,97.4344654 43.2201258,90.3426415 38.5433962,87.5778616 C41.5698113,83.5250314 46.9157233,78.7225157 53.9220126,82.0005031 C60.3396226,85.0042767 64.1106918,88.4910692 66.472956,95.1803774 C69.1220126,102.679748 70.2716981,114.221887 71.3031447,132.805535 C72.0301887,145.932579 75.0540881,156.229434 78.8025157,164.153962 C81.1849057,162.878491 83.6201258,161.419371 86.1006289,159.758994 C82.9710692,152.868428 80.4427673,143.874717 79.8012579,132.332579 C78.7245283,112.951447 77.4691824,100.760252 74.472956,92.2646541 C71.1899371,82.9539623 66.0830189,78.1740881 57.4566038,74.1363522 C38.5408805,65.2860377 28.090566,88.4005031 28.0628931,88.4684277 C27.0591195,90.629434 27.9672956,93.210566 30.0955975,94.229434 C31.0465409,94.6872956 32.0805031,94.7527044 33.0238994,94.4935849 L33.0264151,94.5011321 C33.0440252,94.4986164 39.3484277,92.4457862 43.363522,116.440755 C44.7698113,124.855849 44.4,132.999245 44.0628931,140.478491 C43.481761,153.210566 42.9836478,164.247044 49.8264151,172.833208" id="Fill-36" fill="#FFF7BD"></path>
                <path d="M97.4254088,109.375094 C100.207799,106.580126 102.532327,103.933585 104.47195,101.470692 C104.788931,103.055597 105.100881,104.570063 105.415346,106.019119 C103.299623,110.240503 101.437987,114.549937 99.7977358,118.914717 C98.9927044,116.074465 98.2103145,112.90717 97.4254088,109.375094 M19.4354717,147.334843 C21.9989937,148.064403 24.8040252,148.43673 27.8807547,148.376352 C26.8644025,156.939874 27.6166038,164.494591 29.0279245,170.695849 C25.3096855,169.344906 22.1046541,167.282013 19.405283,164.650566 C18.7989937,159.407799 18.6908176,153.598994 19.4354717,147.334843 M71.1436478,130.034214 C71.1989937,130.94239 71.2518239,131.863145 71.3021384,132.806541 C72.0291824,145.933585 75.0530818,156.23044 78.8040252,164.154969 C81.1838994,162.879497 83.6216352,161.417862 86.0996226,159.757484 C82.9700629,152.869434 80.441761,143.875723 79.8002516,132.331069 C79.6518239,129.581384 79.4933333,126.975094 79.3272956,124.504654 C76.7914465,126.315975 74.0644025,128.16 71.1436478,130.034214 M49.8254088,172.831698 C52.9298113,172.620377 56.6631447,172.12478 60.8568553,171.103396 C51.5134591,163.953711 51.9864151,153.410314 52.56,140.849308 C49.5109434,142.466918 46.6203774,143.787673 43.8732075,144.856855 C43.4681761,155.747421 43.7826415,165.246792 49.8254088,172.831698" id="Fill-38" fill="#DBD37C"></path>
                <path d="M119.602516,83.9109434 C124.742138,77.5612579 130.671698,71.5738365 137.506918,66.069434 C90.8955975,46.351195 56.8855346,54.8216352 35.5698113,73.805283 C23.8867925,84.2103145 15.9647799,97.7625157 11.8415094,111.541132 C10.8226415,114.939874 10.0352201,118.351195 9.48679245,121.727296 C22.636478,106.670692 41.2201258,88.7738365 49.5471698,84.3184906 C61.1371069,78.1172327 85.2150943,77.123522 98.0805031,77.5813836 C106.490566,77.8832704 114.832704,81.4681761 119.602516,83.9109434" id="Fill-40" fill="#EE792B"></path>
                <path d="M25.636478,84.5041509 C20.6628931,90.9695597 16.7660377,98.0739623 13.9509434,105.367044 C14.0389937,109.641258 14.5144654,113.138113 14.9874214,115.606038 C17.4251572,112.962013 19.9584906,110.297862 22.5169811,107.696604 C22.1295597,101.907925 22.5320755,93.8072956 25.636478,84.5041509 M45.918239,66.0991195 C42.1874214,68.3984906 38.7358491,70.9846541 35.5685535,73.8072956 C34.1949686,75.0324528 32.8691824,76.3028931 31.5962264,77.6135849 C29.0352201,85.276478 27.5811321,93.558239 28.572327,101.678994 C31.3899371,98.9519497 34.154717,96.3808805 36.7584906,94.0739623 C37.281761,84.1393711 41.4628931,74.1242767 45.918239,66.0991195 M76.6704403,55.4727044 C71.8930818,56.0638994 67.3647799,57.04 63.0880503,58.3506918 C56.8163522,67.367044 53.327044,77.0047799 51.5257862,83.3620126 C54.3584906,82.1167296 57.7396226,81.1154717 61.4075472,80.3154717 C64.0842767,72.7934591 68.7735849,63.0425157 76.6704403,55.4727044 M103.43522,56.0563522 C99.6742138,55.4777358 96.0238994,55.1079245 92.4842767,54.9318239 C86.9144654,61.0701887 82.1874214,68.7230189 80.527044,77.8525786 C83.5534591,77.6638994 86.5119497,77.5557233 89.2867925,77.5104403 C91.4654088,68.6349686 97.3169811,61.4425157 103.43522,56.0563522 M135.588679,65.2689308 C131.236478,63.4877987 126.994969,61.9532075 122.866667,60.6525786 C113.299371,65.5154717 107.377358,72.9091824 104.071698,78.3054088 C107.100629,78.9041509 110.003774,79.8098113 112.602516,80.7934591 C116.534591,75.1456604 123.699371,67.8953459 135.588679,65.2689308" id="Fill-42" fill="#FFF7BD"></path>
                <g id="Group-46" transform="translate(0.000000, 2.362264)">
                    <mask id="mask-4" fill="white">
                        <use xlink:href="#path-3"></use>
                    </mask>
                    <g id="Clip-45"></g>
                    <path d="M146.602516,169.798994 C146.272956,196.83044 150.630189,230.717233 162.924528,273.034214 C164.413836,275.031698 171.553459,283.144906 189.447799,283.144906 C209.832704,283.144906 216.262893,272.621635 216.283019,272.591447 C217.372327,270.868176 219.462893,270.191447 221.284277,270.84805 C249.221384,280.968805 268.350943,262.050566 268.408805,261.997736 C269.666667,260.77761 271.477987,260.500881 272.98239,261.14239 C292.574843,268.739874 301.890566,248.322264 301.915723,248.266918 C302.51195,246.993962 303.636478,246.153711 304.896855,245.884528 C339.135849,237.690818 327.553459,197.922264 327.518239,197.809057 C327.158491,196.523522 327.410063,195.207799 328.096855,194.181384 C329.269182,192.176352 339.314465,174.201509 323.460377,172.978868 C321.113208,172.797736 319.354717,170.719748 319.528302,168.332327 C319.540881,168.173836 319.561006,168.017862 319.588679,167.864403 C319.830189,165.987673 321.596226,151.021635 316.250314,147.24805 C286.65283,173.08956 236.690566,192.04805 146.602516,169.798994 M188.831447,70.3700629 C185.752201,71.9927044 150.504403,92.0103145 146.879245,160.933585 C288.023899,196.410314 326.745912,127.738616 345.120755,95.1247799 C350.713208,85.205283 354.645283,78.2216352 360.096855,76.8832704 C368.491824,74.8228931 377.754717,67.1927044 383.719497,56.8933333 C388.766038,48.1763522 391.342138,37.6027673 388.854088,26.9763522 C384.280503,7.43924528 352.411321,21.6128302 349.281761,23.0543396 C348.680503,23.3889308 347.991195,23.5776101 347.254088,23.5776101 C344.896855,23.5776101 342.987421,21.6354717 342.987421,19.2379874 C342.987421,16.8958491 340.459119,13.7134591 337.221384,11.3939623 C335.734591,10.3298113 334.144654,9.51220126 332.620126,9.10213836 C331.377358,8.76251572 330.21761,8.70465409 329.291824,9.04176101 C328.227673,9.42666667 327.27673,10.5210063 326.625157,12.6015094 C322.257862,26.4757233 334.366038,59.9197484 334.396226,60.0153459 C334.758491,61.0367296 334.748428,62.1889308 334.283019,63.2530818 C329.608805,73.8618868 319.85283,80.151195 305.208805,81.351195 C292.240252,82.4178616 275.216352,79.3889308 254.308176,71.6857862 C214.516981,57.0166038 189.108176,70.2342138 189.03522,70.2719497 C188.967296,70.3071698 188.899371,70.3373585 188.831447,70.3700629 M89.8427673,165.227925 C68.8666667,178.933585 50.0716981,179.590189 42.3559748,179.132327 C40.4893082,188.005283 47.8427673,192.073208 48.9320755,192.624151 C50.8943396,193.459371 51.9811321,195.673208 51.3823899,197.809057 C51.3496855,197.922264 39.7622642,237.690818 74.0062893,245.884528 C75.2666667,246.153711 76.3886792,246.993962 76.9823899,248.266918 C77.0100629,248.319748 85.1283019,266.118491 102.157233,262.294591 C98.1471698,249.411572 87.0100629,208.956226 89.8427673,165.227925 M99.1509434,156.022893 C99.1761006,156.513459 99.118239,157.009057 98.9849057,157.482013 C93.5836478,207.152453 108.693082,255.08956 111.221384,262.661887 C114.761006,265.761258 130.987421,278.41283 153.787421,272.070692 C141.334591,228.146164 137.374843,192.971321 138.350943,164.926038 C138.283019,164.437987 138.298113,163.927296 138.403774,163.419119 C140.828931,104.898365 164.891824,77.9398742 177.538365,67.7361006 C165.938365,65.2405031 151.465409,66.4832704 147.467925,66.9033962 C115.903145,89.7763522 102.984906,123.19522 99.1509434,156.022893 M39.1459119,170.146164 C39.4503145,170.131069 39.7572327,170.148679 40.0716981,170.198994 C40.1421384,170.211572 63.9433962,174.631698 90.8893082,153.954969 C94.8767296,121.222893 107.543396,87.8316981 137.508176,63.7059119 C90.8943396,43.9901887 56.8867925,52.4581132 35.5685535,71.4442767 C23.8880503,81.8467925 15.963522,95.3989937 11.8427673,109.17761 C7.74968553,122.843019 7.41509434,136.669434 10.8767296,147.776352 C14.909434,160.704654 24.3132075,169.846792 39.1459119,170.146164 M189.447799,291.824151 C171.244025,291.824151 161.563522,284.171321 157.618868,279.962516 C131.847799,287.917233 112.700629,274.953711 106.650314,270.037987 C85.3798742,276.817862 73.5886792,259.700881 70.2654088,253.864403 C35.8528302,244.443019 40.172327,209.539874 42.4113208,198.679497 C38.3132075,195.743648 31.8125786,189.235472 33.7773585,178.387673 C17.7044025,176.178868 7.37987421,165.253082 2.74591195,150.385157 C-1.22138365,137.670692 -0.881761006,122.01283 3.70943396,106.669434 C8.26792453,91.441761 17.0377358,76.4555975 29.9710692,64.9335849 C54.3786164,43.1952201 93.4226415,33.7537107 146.587421,58.2769811 C151.822642,57.7386164 173.256604,55.9750943 187.108176,61.6606289 C194.116981,58.7373585 220.338365,49.9574843 257.208805,63.5474214 C276.906918,70.8077987 292.72327,73.6757233 304.544654,72.7071698 C315.065409,71.8442767 322.179874,67.8644025 325.789937,61.2103145 C323.264151,53.7713208 313.945912,24.5159748 318.524528,9.95496855 C320.091824,4.97383648 322.96478,2.13358491 326.461635,0.870691824 C329.100629,-0.0852830189 331.966038,-0.0374842767 334.788679,0.724779874 C337.327044,1.41157233 339.85283,2.68704403 342.119497,4.30716981 C345.47044,6.70465409 348.350943,9.99018868 350.011321,13.3939623 C361.518239,8.94867925 391.32956,0.0958490566 397.150943,24.9738365 C400.194969,37.9776101 397.118239,50.7851572 391.05283,61.2656604 C383.945912,73.5449057 372.577358,82.7172327 362.099371,85.2908176 C360.227673,85.7486792 357.042767,91.4015094 352.522013,99.4291824 C346.008805,110.986415 337.075472,126.835472 322.514465,141.391447 C328.358491,147.263145 328.690566,158.674465 328.371069,164.915975 C349.45283,169.162516 339.477987,191.034214 336.172327,197.232956 C338.197484,205.962516 344.781132,243.965031 308.632704,253.864403 C305.316981,259.700881 293.520755,276.817862 272.247799,270.037987 C266.2,274.953711 247.05283,287.917233 221.284277,279.962516 C217.337107,284.171321 207.659119,291.824151 189.447799,291.824151" id="Fill-44" fill="#5B0030" mask="url(#mask-4)"></path>
                </g>
                <path d="M162.451069,96.2254088 C176.828428,95.2367296 179.059874,79.2971069 234.420881,90.4342138 C246.549182,92.8719497 257.578113,95.4405031 269.701384,97.7449057 C275.995723,98.9398742 281.467421,99.76 288.40327,99.7549916 C292.846038,99.7499371 299.183145,99.7348428 303.336604,98.8266667 C305.447296,98.3637736 306.113962,98.2933333 306.418365,96.5298113 C302.763019,95.1864151 291.120252,96.5197484 286.456101,96.5298113 C263.077484,96.587673 210.780629,73.3851572 175.978113,87.7071698 C171.371824,89.6040252 163.145409,92.2455346 162.451069,96.2254088 L162.451069,96.2254088 Z M30.7378616,99.4178616 C36.2674214,98.0669182 45.4699371,87.4530818 54.9768553,84.1197484 C66.1592453,80.1927044 87.7139623,79.4706918 100.327799,79.4706918 C114.931572,79.4706918 113.145409,88.9373585 137.339119,85.8430189 C137.13283,83.787673 137.019623,83.6895597 134.908931,83.2140881 L126.60956,82.7184906 C123.42717,83.0807547 125.092579,85.5461635 117.593208,81.4354717 C103.573082,73.7499371 90.6875472,75.2342138 74.6850314,76.9222642 C64.4938365,77.996478 56.088805,78.5901887 48.1013836,83.5411321 C46.0284277,84.8291824 44.9919497,85.6065409 43.2057862,86.9952201 C40.4812579,89.1084277 31.1479245,96.9222642 30.7378616,99.4178616 L30.7378616,99.4178616 Z M243.190692,150.05434 C255.017107,150.094591 258.506415,149.352453 270.15673,145.84805 C284.672453,141.480755 302.083774,133.08327 314.081258,124.61283 C318.229686,121.684528 328.939119,112.87195 329.749182,107.792704 C326.57434,108.074465 319.686289,116.894591 311.560503,122.064403 C295.761761,132.112201 274.106415,142.149937 255.42717,146.21283 C253.283774,146.675723 250.896352,147.045535 248.846038,147.453082 C245.557987,148.104654 244.051069,147.938616 243.190692,150.05434 L243.190692,150.05434 Z M163.495094,144.26566 C170.144151,145.317233 175.225912,146.715975 181.590692,148.197736 C185.318994,149.063145 215.935346,155.576352 219.339119,150.866918 C214.994465,149.327296 205.145409,149.007799 200.098868,148.240503 C187.588176,146.341132 177.112704,142.409057 163.432201,140.798994 C160.267421,140.426667 146.237233,139.211572 144.365535,141.48327 C147.253585,143.163774 159.012075,143.556226 163.495094,144.26566 L163.495094,144.26566 Z M60.6498113,148.864403 C58.0108176,149.915975 55.5101887,151.186415 52.9969811,151.948679 C42.916478,155.017862 25.1630189,155.631698 15.3013836,151.79522 C12.6221384,150.753711 10.2875472,148.965031 8.96679245,147.332327 C8.08125786,146.227925 7.65861635,145.246792 7.42968553,143.453082 L6.5391195,139.191447 C6.50641509,138.987673 6.38062893,138.962516 6.29006289,138.856855 C4.44100629,140.932327 4.55924528,145.651824 5.74666667,148.127296 C9.33157233,155.621635 20.2976101,157.370063 28.0862893,158.069434 C40.5869182,159.193962 52.5265409,157.055597 62.8988679,150.627925 C67.3944654,147.840503 65.0045283,147.131069 60.6498113,148.864403 L60.6498113,148.864403 Z M313.394465,247.317233 C301.085031,249.634214 294.355472,242.227925 288.179371,242.031698 C289.11522,247.747421 309.492579,256.10717 320.833459,247.983899 C322.73283,246.622893 321.580629,248.104654 322.202013,246.205283 L313.394465,247.317233 Z M125.175597,200.273208 C123.588176,200.273208 119.973082,200.570063 118.091321,200.743648 C115.007044,201.03044 113.474969,200.622893 113.039748,203.246792 C116.194465,205.256855 125.366792,203.835472 130.005786,204.149937 C132.508931,204.321006 135.930314,204.537358 138.393208,205.020377 C141.155472,205.566289 142.944151,207.105912 144.931572,206.831698 C145.552956,200.723522 130.501384,200.273208 125.175597,200.273208 L125.175597,200.273208 Z M62.4812579,250.087044 C68.4535849,255.007799 91.0724528,245.971321 89.2535849,238.632956 C85.3642767,238.288302 84.3277987,245.365031 69.5781132,247.641761 C66.6825157,248.08956 63.5504403,247.772579 62.4812579,250.087044 L62.4812579,250.087044 Z M151.183145,256.904654 C150.335346,256.728553 148.783145,256.637987 147.600755,256.522264 C142.061132,255.986415 131.381887,254.227925 127.492579,255.918491 C128.305157,257.626667 126.717736,257.226667 129.613333,258.046792 C134.913962,259.546164 150.113962,261.234214 153.570566,258.597736 C153.00956,257.327296 153.120252,257.299623 151.183145,256.904654 L151.183145,256.904654 Z M309.263648,180.783899 C309.965535,181.490818 309.384403,181.44805 310.808302,181.629182 C312.166792,181.805283 314.931572,180.429182 316.048553,179.639245 C323.326541,174.514717 328.088805,163.39522 323.485031,161.473208 C320.931572,162.85434 323.165535,166.474465 317.95044,172.678239 C316.375597,174.554969 315.822138,175.282013 313.814591,176.899623 C310.491321,179.586415 310.038491,178.587673 309.263648,180.783899 L309.263648,180.783899 Z M61.9806289,199.77761 C63.970566,199.39522 63.7944654,199.480755 64.5038994,198.132327 C62.6875472,196.039245 53.3768553,196.632956 50.4133333,195.898365 C47.7491824,195.239245 39.9403774,189.817862 40.7655346,193.274465 C41.9227673,198.097107 51.4825157,200.713459 58.4410063,200.127296 C59.6762264,200.021635 61.1026415,199.946164 61.9806289,199.77761 L61.9806289,199.77761 Z M96.2850314,230.346164 C96.7605031,230.766289 96.3504403,230.713459 97.5680503,231.153711 C99.316478,231.785157 107.04478,231.206541 108.908931,231.063145 C111.852327,230.834214 118.75044,231.523522 120.524025,228.859371 C118.541635,226.479497 110.989434,227.178868 107.623396,227.337358 C105.344151,227.44805 103.024654,227.76 101.039748,228.066918 C95.7315723,228.884528 96.68,228.88956 96.2850314,230.346164 L96.2850314,230.346164 Z M84.7428931,140.736101 C88.4133333,141.312201 95.9403774,137.093333 101.288805,137.055597 C103.718994,137.040503 106.101384,137.659371 107.266164,135.684528 C106.544151,133.173836 105.022138,133.694591 101.359245,133.508428 C96.6372327,133.274465 98.707673,133.420377 94.7353459,134.482013 C90.5542138,135.598994 85.1906918,136.650566 84.7428931,140.736101 L84.7428931,140.736101 Z M335.44478,190.919748 C332.735346,190.48956 330.853585,193.973836 325.990692,196.708428 C318.501384,200.919748 312.876226,197.875723 316.383145,201.261887 C319.407044,204.180126 326.302642,201.068176 328.798239,199.568805 L333.16805,196.087044 C333.542893,195.737358 334.692579,194.237987 334.929057,193.870692 C335.927799,192.305912 335.983145,192.804025 335.44478,190.919748 L335.44478,190.919748 Z M135.334088,110.539874 C137.188176,111.25434 158.805786,113.933585 156.468679,109.797736 C155.243522,107.626667 142.506415,107.978868 139.271195,107.948679 C136.405786,107.923522 135.535346,107.561258 135.334088,110.539874 L135.334088,110.539874 Z M90.8007547,172.14239 C92.5265409,173.123522 97.9127044,172.019119 100.805786,172.034214 C104.212075,172.051824 109.369308,172.464403 112.071195,171.435472 C111.673711,169.105912 110.866164,169.261887 108.614591,168.85434 C104.551698,168.119748 91.3793711,166.99522 90.8007547,172.14239 L90.8007547,172.14239 Z M214.828428,283.168805 C221.623396,283.168805 223.48,270.011572 222.149182,265.037987 C218.345409,265.078239 219.580629,268.615346 218.00327,274.700881 C217.530314,276.54239 216.727799,278.446792 215.79195,279.400252 C214.274969,280.949937 213.228428,280.122264 213.024654,282.776352 L214.828428,283.168805 Z M331.807044,102.45434 C330.720252,100.829182 331.80956,97.7625157 334.617107,98.1449057 C335.510189,98.2681761 335.286289,98.3461635 335.726541,98.5423899 L336.357987,99.0077987 C336.196981,101.455597 333.975597,103.83044 331.807044,102.45434 L331.807044,102.45434 Z M72.4334591,143.473208 C72.3881761,145.365031 72.6246541,146.922264 74.8057862,146.406541 C76.5139623,146.006541 76.5240252,144.670692 76.7781132,142.431698 C74.8108176,142.373836 73.4397484,142.554969 72.4334591,143.473208 L72.4334591,143.473208 Z M126.921509,229.126038 C127.032201,232.03673 128.951698,232.587673 131.248553,232.074465 L131.525283,229.239245 C129.230943,228.134843 129.414591,228.484528 126.921509,229.126038 L126.921509,229.126038 Z M117.955472,254.137358 C117.955472,255.445535 121.716478,256.300881 121.716478,253.641761 C121.716478,250.879497 117.955472,250.232956 117.955472,254.137358 L117.955472,254.137358 Z M112.463648,136.675723 C112.463648,138.846792 113.726541,138.366289 115.286289,138.014088 C115.80956,136.456855 115.754214,136.718491 115.42717,134.771321 C113.351698,134.708428 112.463648,134.361258 112.463648,136.675723 L112.463648,136.675723 Z M381.469937,53.1813836 L381.469937,51.8430189 C380.765535,51.287044 381.140377,51.5461635 380.008302,51.4656604 C374.096352,57.3272956 374.083774,57.0254088 365.822138,61.7851572 L355.102642,69.2216352 C353.75673,70.4191195 353.256101,71.4430189 352.196981,72.5574843 C349.95044,70.2883019 350.312704,68.6027673 351.935346,65.5109434 C356.667421,56.4920755 368.584403,48.7788679 375.06239,38.9524528 C376.571824,36.650566 381.512704,27.450566 379.029686,23.7474214 C375.839748,25.2644025 377.952956,31.1813836 369.213333,40.4518239 C367.623396,42.1398742 366.881258,43.4128302 365.112704,45.1989937 C359.570566,50.7889308 353.13283,55.9461635 348.981887,64.2027673 C343.980629,54.7008805 350.29761,51.1562264 354.649811,44.9675472 C358.317736,39.7423899 362.481258,30.8291824 360.722767,22.5298113 C357.223396,23.4254088 359.535346,27.5461635 355.336604,36.2480503 C353.82717,39.3750943 349.739119,46.1021384 347.746667,47.432956 C348.146667,40.7889308 354.078742,20.7134591 347.864906,17.0883019 C345.698868,16.5549686 347.940377,17.2241509 346.242264,17.3172327 C344.491321,17.4153459 346.57434,16.9272956 344.207044,17.005283 C343.396981,19.9210063 344.639748,23.6945912 344.763019,26.6832704 C344.939119,31.0178616 344.778113,33.1059119 344.360503,36.9952201 C341.993208,34.1901887 340.55673,25.3801258 339.995723,21.2367296 C339.326541,16.2732075 339.313962,16.9071698 338.103899,16.3386164 C335.53283,19.450566 338.018365,30.9247799 339.002013,34.1524528 C340.488805,39.0279245 344.873711,44.8065409 342.00327,49.9361006 C340.134088,44.5776101 337.190692,39.6015094 335.258616,34.0140881 C333.074969,27.6845283 333.034717,25.9889308 332.015849,19.923522 C331.467421,16.6279245 331.590692,16.632956 330.307673,15.7499371 C327.238491,20.1071698 331.457358,34.514717 333.049811,38.7335849 C334.511447,42.6153459 341.256101,55.3725786 341.349182,58.1776101 C337.379371,54.4467925 335.578113,45.4656604 331.578113,45.7851572 C330.292579,49.5386164 338.22717,60.3788679 339.580629,62.9549686 C335.638491,62.4467925 330.096352,63.850566 329.170566,67.4203774 C332.476226,67.3071698 343.766792,61.3977358 349.708931,76.8316981 C355.004528,90.5927044 345.789434,97.5989937 345.437233,102.398994 C348.207044,102.205283 348.969308,100.487044 350.292579,98.5272956 C357.620881,87.6845283 354.088805,82.6128302 353.608302,75.714717 C355.947925,73.2266667 357.054843,72.1247799 360.146667,69.9059119 C362.80327,68.0040252 365.228428,66.7738365 367.990692,64.9750943 C371.381887,62.7637736 376.398239,59.8807547 379.152956,57.0077987 C380.810818,55.2719497 380.33283,55.0430189 381.469937,53.1813836 L381.469937,53.1813836 Z" id="Fill-47" fill="#5B0030"></path>
                <path d="M295.300377,222.166289 C305.265157,222.166289 313.385912,213.899623 313.385912,203.766289 C313.385912,193.63044 305.265157,185.363774 295.300377,185.363774 C285.338113,185.363774 277.214843,193.63044 277.214843,203.766289 C277.214843,213.899623 285.338113,222.166289 295.300377,222.166289" id="Fill-49" fill="#5B0030"></path>
                <path d="M252.211321,202.679245 C252.455346,201.67044 253.454088,201.054088 254.447799,201.300629 C255.438994,201.549686 256.042767,202.568553 255.801258,203.577358 C255.796226,203.6 253.65283,212.040252 262.591195,214.153459 C263.584906,214.38239 264.208805,215.393711 263.977358,216.405031 C263.753459,217.416352 262.759748,218.050314 261.763522,217.818868 C249.127044,214.832704 252.201258,202.71195 252.211321,202.679245" id="Fill-51" fill="#5B0030"></path>
                <path d="M252.717233,209.445283 C253.014088,208.451572 254.043019,207.893082 255.021635,208.192453 C255.997736,208.491824 256.546164,209.543396 256.249308,210.534591 C256.239245,210.56478 252.958742,222.230189 236.84805,222.230189 C235.826667,222.230189 234.996478,221.387421 234.996478,220.345912 C234.996478,219.304403 235.826667,218.461635 236.84805,218.461635 C250.193962,218.461635 252.709686,209.47044 252.717233,209.445283" id="Fill-53" fill="#5B0030"></path>
                <path d="M291.51195,203.516981 C295.044025,203.516981 297.924528,200.588679 297.924528,196.993711 C297.924528,193.401258 295.044025,190.467925 291.51195,190.467925 C287.984906,190.467925 285.101887,193.401258 285.101887,196.993711 C285.101887,200.588679 287.984906,203.516981 291.51195,203.516981" id="Fill-55" fill="#FFFFFF"></path>
                <path d="M178.397736,222.166289 C188.36,222.166289 196.48327,213.899623 196.48327,203.766289 C196.48327,193.63044 188.36,185.363774 178.397736,185.363774 C168.435472,185.363774 160.312201,193.63044 160.312201,203.766289 C160.312201,213.899623 168.435472,222.166289 178.397736,222.166289" id="Fill-57" fill="#5B0030"></path>
                <path d="M217.89761,203.578365 C217.653585,202.56956 218.264906,201.548176 219.251069,201.301635 C220.24478,201.052579 221.246038,201.668931 221.487547,202.680252 C221.495094,202.71044 224.569308,214.833711 211.935346,217.817358 C210.939119,218.051321 209.95044,217.417358 209.718994,216.406038 C209.492579,215.392201 210.111447,214.383396 211.110189,214.15195 C220.046038,212.038742 217.905157,203.601006 217.89761,203.578365" id="Fill-59" fill="#5B0030"></path>
                <path d="M217.44805,210.533585 C217.151195,209.54239 217.704654,208.490818 218.678239,208.191447 C219.65434,207.892075 220.685786,208.453082 220.980126,209.444277 C220.987673,209.469434 223.508428,218.460629 236.849308,218.460629 C237.873208,218.460629 238.703396,219.303396 238.703396,220.344906 C238.703396,221.386415 237.873208,222.229182 236.849308,222.229182 C220.743648,222.229182 217.458113,210.566289 217.44805,210.533585" id="Fill-61" fill="#5B0030"></path>
                <path d="M182.183648,203.516981 C185.715723,203.516981 188.596226,200.588679 188.596226,196.993711 C188.596226,193.401258 185.715723,190.467925 182.183648,190.467925 C178.651572,190.467925 175.771069,193.401258 175.771069,196.993711 C175.771069,200.588679 178.651572,203.516981 182.183648,203.516981" id="Fill-63" fill="#FFFFFF"></path>
                <path d="M180.459119,238.484025 C190.891824,238.484025 199.407547,236.260126 199.407547,233.535597 C199.407547,230.806038 190.891824,228.584654 180.459119,228.584654 C170.018868,228.584654 161.508176,230.806038 161.508176,233.535597 C161.508176,236.260126 170.018868,238.484025 180.459119,238.484025" id="Fill-65" fill="#EF838A"></path>
                <path d="M293.244025,238.484025 C303.679245,238.484025 312.194969,236.260126 312.194969,233.535597 C312.194969,230.806038 303.679245,228.584654 293.244025,228.584654 C282.803774,228.584654 274.290566,230.806038 274.290566,233.535597 C274.290566,236.260126 282.803774,238.484025 293.244025,238.484025" id="Fill-67" fill="#EF838A"></path>
            </g>
        </g>
    </g>
</svg>