<?xml version="1.0" encoding="UTF-8"?>
<svg width="400px" height="397px" viewBox="0 0 400 397" version="1.1" xmlns="http://www.w3.org/2000/svg" xmlns:xlink="http://www.w3.org/1999/xlink">
    <!-- Generator: Sketch 55.2 (78181) - https://sketchapp.com -->
    <title>Group 42</title>
    <desc>Created with Sketch.</desc>
    <defs>
        <polygon id="path-1" points="0.000117775247 0.565401565 399.827519 0.565401565 399.827519 396.721311 0.000117775247 396.721311"></polygon>
    </defs>
    <g id="Page-1" stroke="none" stroke-width="1" fill="none" fill-rule="evenodd">
        <g id="Desktop" transform="translate(0.000000, -3.000000)">
            <g id="Group-42">
                <g id="Group-3" transform="translate(0.000000, 2.714754)">
                    <mask id="mask-2" fill="white">
                        <use xlink:href="#path-1"></use>
                    </mask>
                    <g id="Clip-2"></g>
                    <path d="M106.738689,369.435738 C99.1321311,365.98 94.112459,359.284918 91.5222951,355.00623 C35.2468852,362.589836 25.9419672,320.520984 24.407541,307.065246 C5.81409836,299.183279 7.9157377,273.960328 9.04032787,266.225902 C-14.2154098,228.53082 13.6403279,201.914426 23.0632787,194.422623 C20.4501639,169.022623 37.8272131,157.802951 45.9157377,153.999672 C46.4206557,118.970164 67.7878689,107.917705 77.7911475,104.661967 C77.2927869,72.5013115 105.98459,64.6160656 116.968197,62.7832787 C121.476393,47.6783607 135.155082,41.1242623 141.102623,38.9340984 C157.804262,-0.10852459 196.102623,0.435737705 199.912459,0.589836066 C203.722295,0.435737705 242.020656,-0.10852459 258.722295,38.9340984 C264.669836,41.1242623 278.348525,47.6783607 282.86,62.7832787 C293.846885,64.6160656 322.53541,72.5013115 322.037049,104.661967 C332.040328,107.917705 353.407541,118.970164 353.912459,153.999672 C361.997705,157.802951 379.374754,169.022623 376.764918,194.422623 C386.18459,201.914426 414.043607,228.53082 390.787869,266.225902 C391.90918,273.960328 394.014098,299.183279 375.420656,307.065246 C373.88623,320.520984 364.58459,362.583279 308.315738,355.00623 C305.525574,359.609508 299.912459,367.022623 291.243607,370.176721 C285.787869,379.60623 273.968197,386.609508 258.269836,391.012787 C241.476393,395.717705 219.892787,397.602951 196.991148,396.337377 C193.348525,396.140656 190.292787,395.983279 187.269836,395.825902 C147.519016,393.78 115.217377,392.111148 106.738689,369.435738" id="Fill-1" fill="#5B0030" mask="url(#mask-2)"></path>
                </g>
                <path d="M282.102295,366.057377 C282.144918,365.94918 282.187541,365.840984 282.243279,365.732787 C286.617049,355.703279 288.846557,329.637705 285.659672,305.306557 C283.387541,287.945902 278.387541,271.840984 269.495738,264.070492 L269.331803,263.932787 C258.220328,254.490164 222.400656,249.165574 187.551475,248.014754 C153.177705,246.877049 120.528525,249.555738 114.659672,256.152459 L114.617049,256.204918 C103.144918,269.696721 115.843279,359.863934 116.81377,366.640984 C121.702295,383.863934 151.220328,385.388525 187.846557,387.277049 C191.223607,387.447541 194.669508,387.62459 197.607213,387.788525 C219.295738,388.981967 239.584262,387.237705 255.223607,382.854098 C268.951475,379.008197 278.761311,373.316393 282.102295,366.057377" id="Fill-4" fill="#CD5B5A"></path>
                <path d="M282.102295,366.057377 C282.144918,365.94918 282.187541,365.840984 282.243279,365.732787 C286.617049,355.703279 288.846557,329.637705 285.659672,305.306557 C283.387541,287.945902 278.387541,271.840984 269.495738,264.070492 L269.331803,263.932787 C262.085902,257.772131 244.325246,253.368852 223.174426,250.72623 C234.348197,263.345902 242.587541,282.703279 242.833443,312.342623 C243.138361,348.296721 229.479344,372.37541 211.859672,388.152459 C228.105574,388.07377 243.072787,386.260656 255.223607,382.854098 C268.951475,379.008197 278.761311,373.316393 282.102295,366.057377" id="Fill-6" fill="#A53C4A"></path>
                <path d="M200.10459,14.5911475 L200.05541,14.5944262 L199.989836,14.5944262 L199.914426,14.5944262 L199.839016,14.5944262 L199.770164,14.5944262 L199.724262,14.5911475 L199.60623,14.5845902 L199.550492,14.5813115 C198.094754,14.502623 164.222623,13.007541 150.586557,48.2304918 C149.907869,49.9911475 148.442295,51.2140984 146.743934,51.6534426 L146.707869,51.6665574 C145.90459,51.8698361 129.678361,56.2763934 127.137377,71.5255738 C126.698033,74.1518033 124.511148,76.0534426 121.966885,76.2337705 C121.865246,76.2436066 86.022623,78.4534426 89.2914754,111.145246 C89.5898361,114.155082 87.4619672,116.843607 84.4980328,117.276393 L84.4980328,117.28623 C84.4160656,117.299344 56.0685246,121.099344 57.2062295,160.348525 C57.275082,162.928852 55.5996721,165.155082 53.2488525,165.889508 L53.2521311,165.896066 C53.1865574,165.912459 30.3439344,172.817377 34.6652459,198.748525 C35.0586885,201.099344 33.9340984,203.351803 32.0095082,204.512459 C28.9996721,206.587869 -3.11508197,229.88623 19.6980328,264.653443 C20.5340984,265.932131 20.7865574,267.430492 20.5111475,268.827213 C20.4980328,268.899344 14.8816393,296.037049 31.1078689,300.155082 C33.7537705,300.817377 35.4914754,303.243607 35.3832787,305.863279 C35.5537705,310.253443 38.6521311,355.33541 93.6685246,345.981311 C96.3898361,345.528852 98.98,347.099344 99.8947541,349.597705 C100.301311,350.469836 101.681639,353.237049 104.02918,356.046885 C100.609508,328.243607 94.0685246,262.948525 105.999672,248.915738 C106.10459,248.791148 106.216066,248.669836 106.327541,248.551803 C114.809508,239.499344 150.917705,235.525574 187.901311,236.748525 C224.861967,237.968197 263.478361,244.141967 276.622623,255.315738 L276.98,255.63377 C288.18,265.476393 294.25541,284.132131 296.835738,303.850164 C299.20623,321.93541 298.652131,341.250164 296.425902,355.253443 C298.478361,352.61082 299.668525,350.151803 299.976721,349.479672 C300.93082,347.050164 303.481639,345.53541 306.157049,345.981311 C361.18,355.33541 364.275082,310.250164 364.448852,305.86 C364.337377,303.243607 366.075082,300.817377 368.720984,300.155082 C384.947213,296.037049 379.33082,268.899344 379.314426,268.827213 C379.045574,267.430492 379.294754,265.932131 380.134098,264.653443 C402.943934,229.889508 370.832459,206.591148 367.819344,204.512459 C365.894754,203.355082 364.770164,201.099344 365.160328,198.748525 C369.484918,172.817377 346.642295,165.912459 346.576721,165.896066 L346.58,165.889508 C344.22918,165.155082 342.55377,162.928852 342.619344,160.348525 C343.757049,121.099344 315.412787,117.299344 315.33082,117.28623 L315.33082,117.276393 C312.366885,116.843607 310.239016,114.155082 310.534098,111.145246 C313.802951,78.4534426 277.966885,76.2436066 277.861967,76.2370492 C275.317705,76.0534426 273.127541,74.1518033 272.688197,71.5255738 C270.147213,56.2763934 253.920984,51.8698361 253.114426,51.6665574 L253.084918,51.6534426 C251.386557,51.2140984 249.920984,49.9911475 249.239016,48.2304918 C235.60623,13.007541 201.734098,14.502623 200.278361,14.5813115 L200.222623,14.5845902 L200.10459,14.5911475 Z" id="Fill-8" fill="#FFFFFF"></path>
                <path d="M293.542295,286.661311 C294.981639,292.159672 296.066885,297.953115 296.837377,303.848197 C299.207869,321.936721 298.65377,341.248197 296.427541,355.254754 C298.48,352.608852 299.666885,350.149836 299.978361,349.477705 C300.932459,347.051475 303.48,345.533443 306.158689,345.982623 C361.181639,355.333443 364.273443,310.248197 364.447213,305.858033 C364.339016,303.244918 366.073443,300.81541 368.722623,300.153115 C384.948852,296.035082 379.32918,268.900656 379.312787,268.828525 C379.043934,267.431803 379.293115,265.933443 380.132459,264.651475 C402.942295,229.89082 370.83082,206.58918 367.817705,204.510492 C365.893115,203.356393 364.771803,201.097377 365.161967,198.749836 C369.483279,172.81541 346.640656,165.91377 346.578361,165.897377 L346.581639,165.887541 C344.227541,165.153115 342.552131,162.930164 342.620984,160.349836 C343.75541,121.100656 315.414426,117.300656 315.332459,117.287541 L315.332459,117.277705 C312.365246,116.844918 310.240656,114.156393 310.535738,111.146557 C313.80459,78.4514754 277.965246,76.2416393 277.863607,76.235082 C275.316066,76.0547541 273.125902,74.1531148 272.689836,71.5268852 C270.145574,56.2744262 253.919344,51.8711475 253.116066,51.6645902 L253.083279,51.6514754 C251.388197,51.2121311 249.919344,49.9891803 249.237377,48.2285246 C244.23082,35.2940984 236.499672,27.3104918 228.637377,22.392459 C233.663607,28.0481967 237.539016,36.8547541 237.247213,50.5727869 C236.447213,88.0842623 243.23082,70.1236066 251.214426,68.5268852 C259.191475,66.9301639 267.175082,80.1006557 261.188197,93.2711475 C255.201311,106.438361 274.35541,90.4777049 281.142295,97.2580328 C287.925902,104.041639 297.850492,109.362951 290.722623,127.185902 C283.588197,145.01541 303.689836,131.379344 312.870164,130.779344 C322.043934,130.179344 344.791475,153.923607 316.060328,185.848197 C316.060328,185.848197 314.063607,187.441639 315.860328,188.838361 C317.65377,190.238361 332.620984,179.461311 342.598033,184.848197 C352.571803,190.238361 350.175082,220.962951 333.017705,229.343279 C315.860328,237.720328 333.017705,240.517049 333.414426,248.894098 C333.784918,256.595738 337.325902,295.09082 293.542295,286.661311 M53.1390164,340.048197 C61.775082,345.923607 74.6045902,349.221967 93.6701639,345.982623 C96.3881967,345.526885 98.9783607,347.100656 99.8931148,349.595738 C100.302951,350.471148 101.683279,353.238361 104.03082,356.044918 C102.85377,346.500656 101.316066,332.546557 100.276721,317.756393 C91.4832787,330.333443 76.3619672,343.861311 53.1390164,340.048197" id="Fill-10" fill="#F7C8DC"></path>
                <path d="M282.102295,366.057377 C278.761311,373.316393 268.951475,379.008197 255.223607,382.854098 C239.584262,387.237705 219.295738,388.981967 197.607213,387.788525 C194.669508,387.62459 191.223607,387.447541 187.846557,387.277049 C151.220328,385.388525 121.702295,383.863934 116.81377,366.640984 C115.843279,359.863934 103.144918,269.696721 114.617049,256.204918 L114.659672,256.152459 C120.528525,249.555738 153.177705,246.877049 187.551475,248.014754 C222.400656,249.165574 258.220328,254.490164 269.331803,263.932787 L269.495738,264.070492 C278.387541,271.840984 283.387541,287.945902 285.659672,305.306557 C288.846557,329.637705 286.617049,355.703279 282.243279,365.732787 C282.187541,365.840984 282.144918,365.94918 282.102295,366.057377 L282.102295,366.057377 Z M106.738361,372.14918 C99.1318033,368.696721 94.1121311,362.001639 91.5252459,357.719672 C35.2465574,365.306557 25.9416393,323.234426 24.4072131,309.778689 C5.81377049,301.9 7.91868852,276.67377 9.04,268.942623 C-14.2157377,231.247541 13.6432787,204.631148 23.0629508,197.136066 C20.4498361,171.736066 37.8268852,160.519672 45.9154098,156.713115 C46.4203279,121.686885 67.787541,110.634426 77.7940984,107.378689 C77.292459,75.2147541 105.984262,67.3327869 116.967869,65.4967213 C121.476066,50.395082 135.154754,43.8409836 141.102295,41.6508197 C157.803934,2.60491803 196.102295,3.14918033 199.91541,3.30327869 C203.721967,3.14918033 242.020328,2.60491803 258.721967,41.6508197 C264.672787,43.8409836 278.348197,50.395082 282.859672,65.4967213 C293.846557,67.3327869 322.535082,75.2147541 322.036721,107.378689 C332.04,110.634426 353.407213,121.686885 353.912131,156.713115 C361.997377,160.519672 379.374426,171.736066 376.76459,197.136066 C386.184262,204.631148 414.043279,231.247541 390.787541,268.942623 C391.908852,276.67377 394.01377,301.9 375.420328,309.778689 C373.885902,323.234426 364.584262,365.3 308.31541,357.719672 C305.528525,362.322951 299.91541,369.736066 291.243279,372.890164 C285.787541,382.319672 273.971148,389.32623 258.269508,393.72623 C241.476066,398.431148 219.892459,400.316393 196.99082,399.05082 C193.348197,398.854098 190.292459,398.696721 187.269508,398.539344 C147.518689,396.493443 115.220328,394.82459 106.738361,372.14918 L106.738361,372.14918 Z M200.105574,14.5918033 L200.056393,14.595082 L199.99082,14.595082 L199.91541,14.595082 L199.84,14.595082 L199.771148,14.595082 L199.725246,14.5918033 L199.603934,14.5852459 L199.548197,14.5819672 C198.095738,14.5 164.220328,13.004918 150.587541,48.2278689 C149.908852,49.9918033 148.44,51.2147541 146.744918,51.6508197 L146.708852,51.6639344 C145.905574,51.8704918 129.679344,56.2770492 127.135082,71.5262295 C126.699016,74.152459 124.512131,76.0540984 121.967869,76.2344262 C121.86623,76.2409836 86.0236066,78.4508197 89.292459,111.145902 C89.5908197,114.155738 87.4596721,116.844262 84.4957377,117.277049 L84.4990164,117.286885 C84.4170492,117.3 56.0695082,121.1 57.2072131,160.34918 C57.2760656,162.929508 55.6006557,165.155738 53.2498361,165.886885 L53.2531148,165.896721 C53.187541,165.913115 30.3416393,172.818033 34.6662295,198.74918 C35.0563934,201.096721 33.935082,203.352459 32.0104918,204.513115 C29.0006557,206.585246 -3.11737705,229.886885 19.6957377,264.65082 C20.535082,265.932787 20.7842623,267.431148 20.5121311,268.827869 C20.4990164,268.9 14.882623,296.037705 31.1088525,300.152459 C33.7514754,300.818033 35.492459,303.244262 35.3809836,305.863934 C35.5547541,310.25082 38.6531148,355.332787 93.6695082,345.981967 C96.387541,345.52623 98.9777049,347.1 99.8957377,349.595082 C100.302295,350.470492 101.682623,353.237705 104.030164,356.044262 C100.610492,328.244262 94.0695082,262.94918 106.000656,248.913115 C106.105574,248.788525 106.21377,248.667213 106.328525,248.552459 C114.810492,239.496721 150.91541,235.522951 187.902295,236.74918 C224.862951,237.968852 263.476066,244.139344 276.623607,255.316393 L276.980984,255.631148 C288.180984,265.47377 294.256393,284.132787 296.836721,303.847541 C299.207213,321.936066 298.653115,341.25082 296.426885,355.254098 C298.479344,352.608197 299.66623,350.14918 299.977705,349.477049 C300.931803,347.05082 303.482623,345.532787 306.158033,345.981967 C361.180984,355.332787 364.272787,310.25082 364.446557,305.860656 C364.338361,303.244262 366.072787,300.818033 368.721967,300.152459 C384.948197,296.037705 379.328525,268.9 379.312131,268.827869 C379.043279,267.431148 379.295738,265.932787 380.131803,264.65082 C402.941639,229.890164 370.830164,206.588525 367.820328,204.513115 C365.895738,203.355738 364.771148,201.096721 365.161311,198.74918 C369.482623,172.818033 346.643279,165.913115 346.577705,165.896721 L346.580984,165.886885 C344.226885,165.155738 342.551475,162.929508 342.620328,160.34918 C343.758033,121.1 315.41377,117.3 315.331803,117.286885 L315.331803,117.277049 C312.36459,116.844262 310.24,114.155738 310.535082,111.145902 C313.803934,78.4508197 277.96459,76.2409836 277.862951,76.2344262 C275.318689,76.0540984 273.128525,74.152459 272.68918,71.5262295 C270.148197,56.2770492 253.918689,51.8704918 253.11541,51.6639344 L253.082623,51.6508197 C251.387541,51.2147541 249.921967,49.9918033 249.24,48.2278689 C235.603934,13.004918 201.731803,14.5 200.279344,14.5819672 L200.223607,14.5852459 L200.105574,14.5918033 Z" id="Fill-12" fill="#5B0030"></path>
                <path d="M121.496066,343.718361 C117.194426,349.747869 122.525574,376.587213 127.240328,385.836393 C128.351803,388.016721 128.466557,388.77082 131.263279,388.826557 C131.650164,386.288852 127.374754,370.767541 126.53541,365.879016 L124.040328,347.64623 C123.564918,344.747869 123.61082,344.413443 121.496066,343.718361 M360.532131,270.013443 C364.614098,274.04623 377.204262,270.701967 381.073115,267.816721 C384.741967,265.072459 390.840328,257.610164 389.08623,251.374098 C385.676393,251.711803 386.702623,252.803607 383.515738,257.960984 C381.896066,260.577377 380.305902,262.456066 377.882951,263.980656 C369.66,269.138033 362.81082,265.879016 360.532131,270.013443 M61.4468852,173.731475 C61.3813115,170.587213 59.5977049,169.24623 58.3222951,166.64623 C57.1485246,164.256066 56.3222951,161.672459 55.6403279,158.951148 C54.912459,156.056066 54.4501639,153.449508 54.0829508,150.17082 C53.6304918,146.108525 55.0042623,144.99377 53.007541,142.980656 C45.102623,144.279016 51.2370492,174.360984 61.4468852,173.731475 M31.5157377,203.485574 C36.407541,202.462623 36.0665574,202.685574 40.9747541,203.29541 C52.9845902,204.777377 39.8862295,193.806885 25.6862295,199.911803 C18.7485246,202.898689 15.2206557,211.86918 19.0108197,212.292131 C21.6042623,212.577377 20.7944262,205.728197 31.5157377,203.485574 M313.502623,100.049508 C312.332131,100.947869 312.000984,100.738033 311.430492,103.967541 C311.125574,105.679016 311.089508,106.711803 310.804262,108.39377 C308.276393,123.338033 296.358361,129.062623 303.505902,128.311803 C311.220656,127.501967 320.61082,103.777377 313.502623,100.049508 M125.519016,66.5445902 C125.519016,61.2003279 127.873115,64.3937705 128.532131,60.724918 C124.43377,57.462623 120.912459,61.8036066 120.912459,66.5445902 C120.912459,76.4790164 132.620656,86.3085246 137.223934,83.9806557 C137.000984,81.2134426 135.800984,81.1019672 133.974754,79.3872131 C130.817377,76.42 125.519016,71.2560656 125.519016,66.5445902 M351.551803,300.200328 C352.863279,303.197049 365.453443,307.24623 369.607541,306.164262 C372.315738,305.456066 382.069836,300.256066 382.564918,295.86918 C376.732131,295.436393 372.502623,300.790492 367.607541,301.547869 C362.70918,302.301967 358.591148,297.282295 351.551803,300.200328 M31.0337705,317.754426 C35.6698361,317.160984 32.7977049,312.426557 37.1616393,303.115082 C38.4829508,300.305246 39.6206557,298.84623 41.4731148,297.065902 C43.3419672,295.265902 45.3386885,294.338033 45.2927869,291.413443 C34.8501639,290.456066 26.5616393,310.124918 31.0337705,317.754426 M253.515738,51.0363934 C253.551803,47.4232787 251.823934,40.9806557 249.863279,37.7872131 C248.93541,36.2757377 249.079672,36.167541 247.046885,35.6921311 C245.296066,40.2757377 249.296066,46.1872131 248.73541,51.5052459 C248.325574,55.4232787 243.082951,62.4101639 246.964918,66.272459 C248.938689,65.6167213 253.48623,53.82 253.515738,51.0363934 M345.119016,151.380656 C341.505902,152.331475 341.076393,160.06918 339.250164,163.364262 C337.741967,166.088852 329.882951,171.551148 333.666557,172.698689 C340.725574,174.826557 350.256721,156.318361 345.119016,151.380656 M82.8796721,113.072459 C81.0534426,113.072459 76.5321311,114.013443 75.3288525,115.315082 C71.9518033,118.967541 77.512459,118.059344 79.6501639,118.059344 C89.7518033,118.059344 94.6698361,120.708525 97.4927869,119.911803 C98.2731148,114.111803 87.5190164,113.072459 82.8796721,113.072459 M262.558361,275.82 C264.964918,284.954426 274.981311,281.810164 266.591148,273.580656 C264.614098,271.639672 261.499344,271.810164 262.558361,275.82 M274.617377,350.010164 C277.941967,333.882295 278.358361,314.82 275.263279,298.567541 C274.492787,294.501967 273.299344,287.397049 269.512459,286.229836 L269.315738,289.364262 L272.227213,311.99377 C272.889508,322.29541 272.053443,339.04623 270.122295,349.400328 C269.358361,353.485574 266.263279,362.721639 266.758361,365.915082 C271.528852,364.351148 273.758361,354.167541 274.617377,350.010164" id="Fill-14" fill="#5B0030"></path>
                <path d="M125.147869,191.265574 C138.354426,191.265574 149.124918,180.495082 149.124918,167.285246 C149.124918,154.078689 138.354426,143.304918 125.147869,143.304918 C111.941311,143.304918 101.167541,154.078689 101.167541,167.285246 C101.167541,180.495082 111.941311,191.265574 125.147869,191.265574" id="Fill-16" fill="#5B0030"></path>
                <path d="M98.2059016,145.7 C98.8059016,146.627869 99.4485246,147.42459 100.199344,148.237705 C101.720656,149.778689 103.307541,151.05082 105.323934,151.870492 C105.353443,151.880328 105.379672,151.890164 105.40918,151.896721 C105.43541,151.916393 105.461639,151.922951 105.491148,151.936066 C105.576393,151.968852 105.83541,152.047541 105.881311,152.070492 C108.196066,152.811475 110.11082,152.837705 112.468197,152.221311 C113.389508,151.942623 114.166557,151.618033 114.996066,151.12623 C115.612459,150.759016 118.914098,148.404918 117.923934,147.34918 C117.202623,146.670492 114.691148,148.270492 113.746885,148.670492 C113.051803,148.94918 112.455082,149.152459 111.717377,149.316393 C109.973115,149.654098 108.619016,149.578689 106.950164,148.985246 C106.927213,148.985246 106.71082,148.896721 106.661639,148.877049 C106.641967,148.870492 106.619016,148.863934 106.599344,148.860656 C106.579672,148.847541 106.56,148.834426 106.540328,148.827869 C104.88459,148.195082 103.651803,147.283607 102.343607,146.093443 C102.038689,145.916393 100.750164,144.434426 100.419016,144.060656 C99.7993443,143.342623 98.055082,140.762295 97.0485246,141.211475 C95.8419672,141.831148 97.8157377,145.086885 98.2059016,145.7" id="Fill-18" fill="#5B0030"></path>
                <path d="M94.6662295,153.637377 C95.7154098,154.509508 96.7154098,155.122623 97.9547541,155.70623 C100.217049,156.670164 102.256393,157.132459 104.71541,157.043934 C104.748197,157.043934 104.780984,157.040656 104.81377,157.03082 C104.849836,157.034098 104.885902,157.037377 104.918689,157.034098 C105.092459,157.024262 105.702295,156.942295 105.784262,156.95541 C108.48918,156.594754 110.610492,155.80459 112.971148,154.434098 C113.295738,154.322623 114.594098,153.348852 114.938361,153.066885 C115.492459,152.617705 118.741639,149.768525 117.633443,148.794754 C116.784262,148.132459 114.180984,150.293115 113.335082,150.83082 C112.735082,151.198033 112.151475,151.532459 111.528525,151.857049 C109.485902,152.883279 107.712131,153.483279 105.433443,153.712787 C105.335082,153.748852 104.88918,153.75541 104.738361,153.765246 C104.708852,153.765246 104.679344,153.771803 104.653115,153.778361 C104.626885,153.771803 104.600656,153.771803 104.571148,153.771803 C102.567869,153.873443 101.046557,153.607869 99.1514754,152.90623 C98.0891803,152.476721 97.2695082,152.037377 96.3088525,151.427541 C95.4465574,150.857049 92.744918,148.447213 91.9219672,149.011148 C90.7416393,149.942295 94.1285246,153.178361 94.6662295,153.637377" id="Fill-20" fill="#5B0030"></path>
                <path d="M188.954098,177.859344 C186.222951,176.331475 183.87541,174.623279 181.180328,174.226557 C174.101639,173.183934 174.577049,182.957705 177.062295,187.39377 C181.967213,196.157705 190.97377,200.465902 199.914754,200.318361 C208.855738,200.465902 217.862295,196.157705 222.767213,187.39377 C225.24918,182.957705 225.727869,173.183934 218.64918,174.226557 C215.95082,174.623279 213.609836,176.331475 210.87541,177.859344 C207.406557,179.800328 203.652459,180.672459 199.914754,180.567541 C196.177049,180.672459 192.419672,179.800328 188.954098,177.859344" id="Fill-22" fill="#5B0030"></path>
                <path d="M94.6055738,160.111803 C95.8645902,160.636393 97.0022951,160.928197 98.3563934,161.121639 C100.802295,161.374098 102.887541,161.216721 105.212131,160.413443 C105.241639,160.397049 105.274426,160.383934 105.300656,160.367541 C105.336721,160.360984 105.369508,160.351148 105.402295,160.338033 C105.56623,160.279016 106.123607,160.02 106.205574,160.010164 C108.687541,158.86918 110.480984,157.492131 112.333443,155.485574 C112.608852,155.279016 113.562951,153.97082 113.808852,153.603607 C114.208852,153.006885 116.474426,149.328197 115.130164,148.724918 C114.123607,148.334754 112.271148,151.17082 111.618689,151.931475 C111.153115,152.459344 110.697377,152.951148 110.195738,153.449508 C108.543279,155.026557 107.028525,156.121639 104.920328,157.02 C104.831803,157.075738 104.408852,157.213443 104.26459,157.26918 C104.241639,157.279016 104.21541,157.292131 104.192459,157.305246 C104.16623,157.308525 104.14,157.315082 104.11377,157.321639 C102.225246,158.010164 100.694098,158.203607 98.6744262,158.09541 C97.5367213,157.997049 96.6252459,157.813443 95.5268852,157.515082 C94.5334426,157.223279 91.2416393,155.718361 90.6186885,156.49541 C89.7662295,157.734754 93.9563934,159.836393 94.6055738,160.111803" id="Fill-24" fill="#5B0030"></path>
                <path d="M123.132131,166.249508 C127.814098,166.249508 131.630492,162.426557 131.630492,157.74459 C131.630492,153.062623 127.814098,149.242951 123.132131,149.242951 C118.450164,149.242951 114.630492,153.062623 114.630492,157.74459 C114.630492,162.426557 118.450164,166.249508 123.132131,166.249508" id="Fill-26" fill="#FFFFFF"></path>
                <path d="M274.683607,191.265574 C287.886885,191.265574 298.660656,180.495082 298.660656,167.285246 C298.660656,154.078689 287.886885,143.304918 274.683607,143.304918 C261.47377,143.304918 250.7,154.078689 250.7,167.285246 C250.7,180.495082 261.47377,191.265574 274.683607,191.265574" id="Fill-28" fill="#5B0030"></path>
                <path d="M301.623934,145.7 C301.020656,146.627869 300.378033,147.42459 299.630492,148.237705 C298.10918,149.778689 296.519016,151.05082 294.502623,151.870492 C294.473115,151.880328 294.450164,151.890164 294.420656,151.896721 C294.394426,151.916393 294.361639,151.922951 294.33541,151.936066 C294.253443,151.968852 293.991148,152.047541 293.945246,152.070492 C291.63377,152.811475 289.715738,152.837705 287.358361,152.221311 C286.437049,151.942623 285.663279,151.618033 284.830492,151.12623 C284.217377,150.759016 280.915738,148.404918 281.902623,147.34918 C282.627213,146.670492 285.138689,148.270492 286.079672,148.670492 C286.778033,148.94918 287.371475,149.152459 288.10918,149.316393 C289.853443,149.654098 291.21082,149.578689 292.879672,148.985246 C292.899344,148.985246 293.115738,148.896721 293.164918,148.877049 C293.187869,148.870492 293.21082,148.863934 293.227213,148.860656 C293.246885,148.847541 293.266557,148.834426 293.289508,148.827869 C294.945246,148.195082 296.174754,147.283607 297.479672,146.093443 C297.791148,145.916393 299.079672,144.434426 299.407541,144.060656 C300.027213,143.342623 301.771475,140.762295 302.781311,141.211475 C303.987869,141.831148 302.01082,145.086885 301.623934,145.7" id="Fill-30" fill="#5B0030"></path>
                <path d="M305.161967,153.637377 C304.112787,154.509508 303.109508,155.122623 301.873443,155.70623 C299.614426,156.670164 297.571803,157.132459 295.116066,157.043934 C295.08,157.043934 295.043934,157.040656 295.014426,157.03082 C294.981639,157.034098 294.945574,157.037377 294.909508,157.034098 C294.735738,157.024262 294.122623,156.942295 294.043934,156.95541 C291.339016,156.594754 289.217705,155.80459 286.860328,154.434098 C286.532459,154.322623 285.234098,153.348852 284.889836,153.066885 C284.335738,152.617705 281.083279,149.768525 282.191475,148.794754 C283.040656,148.132459 285.647213,150.293115 286.496393,150.83082 C287.093115,151.198033 287.673443,151.532459 288.299672,151.857049 C290.342295,152.883279 292.116066,153.483279 294.394754,153.712787 C294.496393,153.748852 294.939016,153.75541 295.089836,153.765246 C295.119344,153.765246 295.145574,153.771803 295.171803,153.778361 C295.201311,153.771803 295.23082,153.771803 295.257049,153.771803 C297.260328,153.873443 298.784918,153.607869 300.676721,152.90623 C301.739016,152.476721 302.55541,152.037377 303.519344,151.427541 C304.381639,150.857049 307.083279,148.447213 307.909508,149.011148 C309.083279,149.942295 305.702951,153.178361 305.161967,153.637377" id="Fill-32" fill="#5B0030"></path>
                <path d="M305.222623,160.111803 C303.960328,160.636393 302.825902,160.928197 301.471803,161.121639 C299.025902,161.374098 296.943934,161.216721 294.619344,160.413443 C294.583279,160.397049 294.55377,160.383934 294.524262,160.367541 C294.494754,160.360984 294.458689,160.351148 294.422623,160.338033 C294.261967,160.279016 293.701311,160.02 293.622623,160.010164 C291.140656,158.86918 289.343934,157.492131 287.494754,155.485574 C287.222623,155.279016 286.261967,153.97082 286.019344,153.603607 C285.619344,153.006885 283.350492,149.328197 284.698033,148.724918 C285.70459,148.334754 287.557049,151.17082 288.209508,151.931475 C288.675082,152.459344 289.127541,152.951148 289.632459,153.449508 C291.284918,155.026557 292.802951,156.121639 294.907869,157.02 C294.996393,157.075738 295.419344,157.213443 295.560328,157.26918 C295.589836,157.279016 295.612787,157.292131 295.635738,157.305246 C295.661967,157.308525 295.688197,157.315082 295.717705,157.321639 C297.599672,158.010164 299.137377,158.203607 301.150492,158.09541 C302.291475,157.997049 303.202951,157.813443 304.301311,157.515082 C305.291475,157.223279 308.583279,155.718361 309.20623,156.49541 C310.058689,157.734754 305.871803,159.836393 305.222623,160.111803" id="Fill-34" fill="#5B0030"></path>
                <path d="M276.694426,166.249508 C281.379672,166.249508 285.199344,162.426557 285.199344,157.74459 C285.199344,153.062623 281.379672,149.242951 276.694426,149.242951 C272.015738,149.242951 268.192787,153.062623 268.192787,157.74459 C268.192787,162.426557 272.015738,166.249508 276.694426,166.249508" id="Fill-36" fill="#FFFFFF"></path>
                <path d="M125.147869,214.11082 C138.987213,214.11082 150.275738,211.212459 150.275738,207.658361 C150.275738,204.107541 138.987213,201.20918 125.147869,201.20918 C111.308525,201.20918 100.023279,204.107541 100.023279,207.658361 C100.023279,211.212459 111.308525,214.11082 125.147869,214.11082" id="Fill-38" fill="#EF838A"></path>
                <path d="M274.683607,214.11082 C288.519672,214.11082 299.808197,211.212459 299.808197,207.658361 C299.808197,204.107541 288.519672,201.20918 274.683607,201.20918 C260.840984,201.20918 249.552459,204.107541 249.552459,207.658361 C249.552459,211.212459 260.840984,214.11082 274.683607,214.11082" id="Fill-40" fill="#EF838A"></path>
            </g>
        </g>
    </g>
</svg>