<?xml version="1.0" encoding="UTF-8"?>
<svg width="400px" height="343px" viewBox="0 0 400 343" version="1.1" xmlns="http://www.w3.org/2000/svg" xmlns:xlink="http://www.w3.org/1999/xlink">
    <!-- Generator: Sketch 55.2 (78181) - https://sketchapp.com -->
    <title>Group 39</title>
    <desc>Created with Sketch.</desc>
    <defs>
        <polygon id="path-1" points="0 1.7442623 399.606557 1.7442623 399.606557 344.262295 0 344.262295"></polygon>
        <polygon id="path-3" points="0 1.7442623 399.606557 1.7442623 399.606557 344.261967 0 344.261967"></polygon>
    </defs>
    <g id="Page-1" stroke="none" stroke-width="1" fill="none" fill-rule="evenodd">
        <g id="Desktop" transform="translate(0.000000, -29.000000)">
            <g id="Group-39" transform="translate(0.000000, 26.000000)">
                <g id="Group-3" transform="translate(0.000000, 1.534426)">
                    <mask id="mask-2" fill="white">
                        <use xlink:href="#path-1"></use>
                    </mask>
                    <g id="Clip-2"></g>
                    <path d="M199.802623,344.262295 C178.179672,344.262295 166.491148,334.570492 161.53377,328.957377 C131.061639,338.918033 108.369836,322.655738 100.743607,316 C75.1370492,324.567213 60.9927869,302.367213 56.9632787,294.659016 C16.5763934,282.390164 20.907541,238.354098 23.5796721,223.616393 C18.9009836,221.272131 14.6878689,217.770492 11.1501639,213.190164 C1.94360656,201.259016 -2.65311475,181.803279 1.59278689,156.419672 C8.11737705,117.416393 31.8190164,74.7672131 71.1272131,44.1737705 C103.651803,18.852459 146.851803,1.7442623 199.802623,1.7442623 C252.756721,1.7442623 295.956721,18.852459 328.48459,44.1737705 C367.78623,74.7672131 391.491148,117.416393 398.015738,156.419672 C402.261639,181.803279 397.664918,201.259016 388.458361,213.190164 C384.923934,217.770492 380.707541,221.272131 376.028852,223.616393 C378.700984,238.354098 383.03541,282.390164 342.645246,294.659016 C338.615738,302.367213 324.471475,324.567213 298.864918,316 C291.238689,322.655738 268.546885,338.918033 238.074754,328.957377 C233.117377,334.570492 221.428852,344.262295 199.802623,344.262295" id="Fill-1" fill="#5B0030" mask="url(#mask-2)"></path>
                </g>
                <path d="M199.802623,14.5898361 C149.615738,14.5898361 108.76,30.737377 78.064918,54.632459 C41.0911475,83.4095082 18.8255738,123.360328 12.7304918,159.809508 C9.0452459,181.82918 12.6452459,198.199672 20.0747541,207.82918 C23.3763934,212.107869 27.4288525,214.999672 31.8813115,216.376721 C36.3468852,217.763607 41.3009836,217.668525 46.3895082,215.98 C57.7501639,212.212787 69.7108197,200.75377 79.0321311,180.35377 C90.0944262,156.117705 102.163279,136.124262 120.63541,122.016066 C139.196066,107.832459 163.838689,99.8455738 199.802623,99.8455738 C235.769836,99.8455738 260.412459,107.832459 278.973115,122.016066 C297.448525,136.124262 309.514098,156.117705 320.579672,180.35377 C329.894426,200.75377 341.858361,212.212787 353.219016,215.98 C358.307541,217.668525 363.261639,217.763607 367.727213,216.376721 C372.179672,214.999672 376.232131,212.107869 379.530492,207.82918 C386.966557,198.199672 390.563279,181.82918 386.881311,159.809508 C380.782951,123.360328 358.517377,83.4095082 321.543607,54.632459 C290.848525,30.737377 249.992787,14.5898361 199.802623,14.5898361" id="Fill-4" fill="#F08400"></path>
                <path d="M17.5777049,204.08459 C18.3514754,205.428852 19.187541,206.681311 20.0760656,207.832131 C23.3777049,212.107541 27.4268852,214.999344 31.8793443,216.379672 C36.3481967,217.763279 41.2990164,217.671475 46.3908197,215.979672 C57.7514754,212.212459 69.7121311,200.753443 79.0301639,180.353443 C90.0957377,156.117377 102.161311,136.123934 120.633443,122.015738 C139.194098,107.83541 163.836721,99.8485246 199.803934,99.8485246 C235.771148,99.8485246 260.41377,107.83541 278.974426,122.015738 C297.446557,136.123934 309.51541,156.117377 320.580984,180.353443 C329.895738,200.753443 341.856393,212.212459 353.217049,215.979672 C358.308852,217.671475 363.262951,217.763279 367.725246,216.379672 C372.177705,214.999344 376.233443,212.107541 379.531803,207.832131 C382.620328,203.832131 385.043279,198.668197 386.561311,192.419016 C363.912131,210.996066 343.96459,175.33377 338.902295,153.569836 C331.84,123.20918 298.997377,65.7829508 208.01377,64.9862295 C117.033443,64.1862295 88.5908197,125.294426 42.8104918,181.504262 C33.0006557,193.553443 24.6531148,200.530492 17.5777049,204.08459" id="Fill-6" fill="#EC6C00"></path>
                <path d="M317.355082,173.482951 C318.443607,175.732131 319.515738,178.020656 320.578033,180.351803 C322.13541,183.758361 323.764918,186.919016 325.456721,189.83377 C343.669836,183.738689 364.178033,178.682951 388.256721,180.073115 C388.512459,174.482951 388.181311,168.322295 387.164918,161.617377 C360.263279,160.420656 337.519016,166.528852 317.355082,173.482951 M291.807541,133.781311 C295.846885,138.178033 299.548525,142.945246 303.004262,148.050164 C319.66,132.88623 340.03377,118.164918 369.414098,110.643607 C366.397705,105.141967 363.03377,99.7091803 359.322295,94.3944262 C329.866557,102.938689 309.007541,118.141967 291.807541,133.781311 M251.850164,107.512459 C262.794426,85.4895082 277.86,62.5091803 305.10918,43.2206557 C310.741967,46.6927869 316.102623,50.417377 321.187869,54.355082 C293.866557,72.1616393 278.978033,93.9681967 268.345246,114.981311 C263.282951,112.102623 257.81082,109.600984 251.850164,107.512459 M193.78459,99.9255738 C195.755082,99.8763934 197.761639,99.8468852 199.800984,99.8468852 C204.105902,99.8468852 208.243607,99.964918 212.230492,100.187869 C217.755082,75.0370492 227.61082,47.555082 254.040328,21.4140984 C247.269836,19.6304918 240.250164,18.1681967 232.997705,17.06 C208.151803,44.9452459 199.115738,73.7354098 193.78459,99.9255738 M66.4304918,64.4862295 C56.4862295,73.6403279 47.8337705,83.6272131 40.5091803,94.0698361 C36.8206557,124.48623 42.964918,150.541967 48.3845902,173.515738 C51.7157377,187.630492 54.7288525,200.41082 54.3911475,212.076393 C60.2140984,208.305902 65.9944262,202.476393 71.3157377,194.423934 C70.007541,186.456721 68.0501639,178.148525 65.9878689,169.414098 C59.1944262,140.627213 51.1583607,106.568197 66.4304918,64.4862295 M115.463279,32.0829508 C106.971475,35.9190164 98.9747541,40.2993443 91.4763934,45.1222951 C82.3518033,78.0108197 86.1681967,106.978033 89.502623,132.276393 C90.5681967,140.387869 91.5813115,148.063279 91.9878689,155.292787 C96.7518033,147.361639 101.951803,140.132131 107.879672,133.692787 L107.387869,129.945246 C103.732131,102.214098 99.4501639,69.6698361 115.463279,32.0829508 M180.938689,15.3747541 C173.01082,16.0370492 165.341967,17.1190164 157.93541,18.5747541 C140.155082,52.3321311 138.902623,83.4108197 139.630492,110.745246 C145.138689,108.279672 151.089508,106.21082 157.568197,104.558361 C157.292787,78.0009836 160.178033,47.8665574 180.938689,15.3747541" id="Fill-8" fill="#FFF7BD"></path>
                <path d="M342.883607,165.960328 C345.211475,171.720984 348.240984,177.586557 351.814754,182.678361 C342.47377,184.511148 333.729508,187.065246 325.457377,189.832459 C323.765574,186.917705 322.136066,183.760328 320.578689,180.35377 C319.516393,178.019344 318.440984,175.73082 317.355738,173.481639 C325.418033,170.701311 333.893443,168.058689 342.883607,165.960328 M318.713115,112.845574 C322.709836,117.917705 326.060656,123.05541 328.844262,128.075082 C319.103279,134.202951 310.660656,141.078361 303.004918,148.048852 C299.54918,142.943934 295.847541,138.176721 291.808197,133.78 C299.818033,126.498033 308.618033,119.311148 318.713115,112.845574 M270.522951,76.7439344 C276.529508,79.2455738 282.067213,82.0652459 287.165574,85.1308197 C279.362295,94.9209836 273.378689,105.039016 268.345902,114.983279 C263.283607,112.10459 257.811475,109.602951 251.85082,107.511148 C256.919672,97.3078689 262.877049,86.8980328 270.522951,76.7439344 M203.67377,64.9963934 C205.106557,64.9767213 206.552459,64.9734426 208.014754,64.9865574 C213.27377,65.032459 218.32623,65.275082 223.201639,65.6816393 C217.981967,77.432459 214.680328,89.0390164 212.231148,100.189836 C208.244262,99.9636066 204.106557,99.8455738 199.801639,99.8455738 C197.762295,99.8455738 195.755738,99.875082 193.781967,99.9242623 C196.077049,88.6685246 199.054098,76.9340984 203.67377,64.9963934 M88.3131148,123.10459 C93.5491803,116.924262 98.9393443,111.016066 104.627869,105.494754 C105.290164,114.025902 106.362295,122.173443 107.388525,129.943934 L107.880328,133.691475 C101.952459,140.13082 96.752459,147.363607 91.9885246,155.294754 C91.5819672,148.065246 90.5688525,140.389836 89.5032787,132.278361 C89.1032787,129.275082 88.7032787,126.212787 88.3131148,123.10459 M48.5721311,174.298033 C53.4606557,168.088197 58.1819672,161.848852 62.8377049,155.671803 C63.857377,160.386557 64.9393443,164.963607 65.9885246,169.416066 C68.0508197,178.147213 70.0081967,186.45541 71.3131148,194.425902 C65.995082,202.475082 60.2147541,208.307869 54.3918033,212.075082 C54.7229508,200.62918 51.8278689,188.10459 48.5721311,174.298033 M140.32623,79.4586885 C139.365574,90.3472131 139.365574,100.796393 139.631148,110.743934 C145.136066,108.281639 151.090164,106.209508 157.568852,104.557049 C157.460656,94.1045902 157.840984,83.1013115 159.608197,71.6127869 C152.74918,73.7701639 146.34918,76.4095082 140.32623,79.4586885" id="Fill-10" fill="#DBD37C"></path>
                <path d="M199.802623,111.157377 C166.550164,111.157377 144.081311,118.301639 127.481311,130.983607 C110.796066,143.734426 99.6452459,162.337705 89.2813115,185.036066 C78.5436066,208.55082 64.0419672,221.990164 49.9272131,226.672131 C44.6518033,228.422951 39.4288525,228.977049 34.4419672,228.4 C32.1501639,241.931148 29.464918,277.495082 62.3501639,286.003279 C64.1108197,286.455738 65.4616393,287.698361 66.1239344,289.24918 L66.1272131,289.245902 C66.16,289.321311 77.1239344,315.55082 99.8288525,305.819672 C102.11082,304.84918 104.671475,305.495082 106.241967,307.242623 C107.98623,309.055738 129.969836,330.960656 161.412459,318.521311 C164.169836,317.432787 167.274754,318.665574 168.56,321.281967 C169.851803,323.285246 178.041967,334.485246 199.802623,334.485246 C221.566557,334.485246 229.756721,323.285246 231.048525,321.281967 C232.33377,318.665574 235.43541,317.432787 238.196066,318.521311 C269.638689,330.960656 291.622295,309.055738 293.369836,307.242623 C294.93377,305.495082 297.500984,304.84918 299.779672,305.819672 C322.48459,315.55082 333.448525,289.321311 333.478033,289.245902 L333.48459,289.24918 C334.146885,287.698361 335.497705,286.455738 337.258361,286.003279 C370.143607,277.495082 367.458361,241.931148 365.166557,228.4 C360.179672,228.977049 354.956721,228.422951 349.681311,226.672131 C335.566557,221.990164 321.064918,208.55082 310.327213,185.036066 C299.963279,162.337705 288.815738,143.734426 272.123934,130.983607 C255.523934,118.301639 233.058361,111.157377 199.802623,111.157377" id="Fill-12" fill="#FFFFFF"></path>
                <path d="M199.802623,111.157377 C166.550164,111.157377 144.081311,118.301639 127.481311,130.983607 C115.43541,140.186885 106.271475,152.445902 98.2091803,167.091803 C100.91082,162.327869 122.796066,127.177049 180.081311,126.436066 C241.53377,125.639344 263.602623,144.02623 277.048525,165.540984 C290.497705,187.055738 296.202623,226.996721 321.343607,239.363934 C321.343607,239.363934 317.153443,248.940984 328.727213,254.327869 C328.727213,254.327869 322.343607,260.714754 327.527213,267.898361 C327.527213,267.898361 319.946885,271.288525 313.763279,262.908197 C313.763279,262.908197 309.973115,267.898361 314.36,278.272131 C318.750164,288.645902 307.179672,295.829508 297.602623,293.236066 C288.025574,290.642623 288.025574,297.62623 276.451803,305.206557 C264.881311,312.790164 239.940328,309.596721 237.146885,291.439344 C234.353443,273.285246 231.48459,329.803279 190.723934,333.767213 C193.448525,334.219672 196.464918,334.485246 199.802623,334.485246 C221.566557,334.485246 229.756721,323.285246 231.048525,321.281967 C232.33377,318.665574 235.43541,317.432787 238.196066,318.521311 C269.638689,330.960656 291.622295,309.055738 293.369836,307.242623 C294.93377,305.495082 297.500984,304.84918 299.779672,305.819672 C322.48459,315.55082 333.448525,289.321311 333.478033,289.245902 L333.48459,289.24918 C334.146885,287.698361 335.497705,286.455738 337.258361,286.003279 C370.143607,277.495082 367.458361,241.931148 365.166557,228.4 C360.179672,228.977049 354.956721,228.422951 349.681311,226.672131 C335.566557,221.990164 321.064918,208.55082 310.327213,185.036066 C299.963279,162.337705 288.815738,143.734426 272.123934,130.983607 C255.523934,118.301639 233.058361,111.157377 199.802623,111.157377" id="Fill-14" fill="#F7C8DC"></path>
                <g id="Group-18" transform="translate(0.000000, 1.534426)">
                    <mask id="mask-4" fill="white">
                        <use xlink:href="#path-3"></use>
                    </mask>
                    <g id="Clip-17"></g>
                    <path d="M199.802623,13.0554098 C249.992787,13.0554098 290.848525,29.2029508 321.543607,53.0980328 C358.517377,81.875082 380.782951,121.825902 386.881311,158.275082 C390.563279,180.294754 386.966557,196.665246 379.530492,206.294754 C376.232131,210.573443 372.179672,213.465246 367.727213,214.842295 C363.261639,216.22918 358.307541,216.134098 353.219016,214.445574 C341.858361,210.678361 329.894426,199.219344 320.579672,178.819344 C309.514098,154.583279 297.448525,134.589836 278.973115,120.481639 C260.412459,106.298033 235.769836,98.3111475 199.802623,98.3111475 C163.838689,98.3111475 139.196066,106.298033 120.63541,120.481639 C102.163279,134.589836 90.0944262,154.583279 79.0321311,178.819344 C69.7108197,199.219344 57.7501639,210.678361 46.3895082,214.445574 C41.3009836,216.134098 36.3468852,216.22918 31.8813115,214.842295 C27.4288525,213.465246 23.3763934,210.573443 20.0747541,206.294754 C12.6452459,196.665246 9.0452459,180.294754 12.7304918,158.275082 C18.8255738,121.825902 41.0911475,81.875082 78.064918,53.0980328 C108.76,29.2029508 149.615738,13.0554098 199.802623,13.0554098 M199.802623,344.261967 C178.179672,344.261967 166.491148,334.570164 161.53377,328.957049 C131.061639,338.917705 108.369836,322.65541 100.743607,315.999672 C75.1370492,324.566885 60.9927869,302.366885 56.9632787,294.658689 C16.5763934,282.389836 20.907541,238.35377 23.5796721,223.616066 C18.9009836,221.271803 14.6878689,217.770164 11.1501639,213.189836 C1.94360656,201.258689 -2.65311475,181.802951 1.59278689,156.419344 C8.11737705,117.419344 31.8190164,74.7668852 71.1272131,44.1734426 C103.651803,18.8554098 146.851803,1.74393443 199.802623,1.74393443 C252.756721,1.74393443 295.956721,18.8554098 328.48459,44.1734426 C367.78623,74.7668852 391.491148,117.419344 398.015738,156.419344 C402.261639,181.802951 397.664918,201.258689 388.458361,213.189836 C384.923934,217.770164 380.707541,221.271803 376.028852,223.616066 C378.700984,238.35377 383.03541,282.389836 342.645246,294.658689 C338.615738,302.366885 324.471475,324.566885 298.864918,315.999672 C291.238689,322.65541 268.546885,338.917705 238.074754,328.957049 C233.117377,334.570164 221.428852,344.261967 199.802623,344.261967 M199.802623,109.622623 C166.550164,109.622623 144.081311,116.766885 127.481311,129.448852 C110.796066,142.199672 99.6452459,160.802951 89.2813115,183.501311 C78.5436066,207.016066 64.0419672,220.45541 49.9272131,225.137377 C44.6518033,226.888197 39.4288525,227.442295 34.4419672,226.865246 C32.1501639,240.396393 29.464918,275.963607 62.3501639,284.468525 C64.1108197,284.920984 65.4616393,286.163607 66.1239344,287.714426 L66.1272131,287.714426 C66.16,287.786557 77.1239344,314.016066 99.8288525,304.284918 C102.11082,303.314426 104.671475,303.960328 106.241967,305.707869 C107.98623,307.520984 129.969836,329.425902 161.412459,316.986557 C164.169836,315.898033 167.274754,317.13082 168.56,319.747213 C169.851803,321.750492 178.041967,332.950492 199.802623,332.950492 C221.566557,332.950492 229.756721,321.750492 231.048525,319.747213 C232.33377,317.13082 235.43541,315.898033 238.196066,316.986557 C269.638689,329.425902 291.622295,307.520984 293.369836,305.707869 C294.93377,303.960328 297.500984,303.314426 299.779672,304.284918 C322.48459,314.016066 333.448525,287.786557 333.478033,287.714426 L333.48459,287.714426 C334.146885,286.163607 335.497705,284.920984 337.258361,284.468525 C370.143607,275.963607 367.458361,240.396393 365.166557,226.865246 C360.179672,227.442295 354.956721,226.888197 349.681311,225.137377 C335.566557,220.45541 321.064918,207.016066 310.327213,183.501311 C299.963279,160.802951 288.815738,142.199672 272.123934,129.448852 C255.523934,116.766885 233.058361,109.622623 199.802623,109.622623" id="Fill-16" fill="#5B0030" mask="url(#mask-4)"></path>
                </g>
                <path d="M109.837377,113.240328 C111.981639,112.787869 116.617705,108.787869 118.581639,107.21082 C128.32918,99.3681967 134.984918,95.702623 147.775082,91.1878689 C170.427541,83.1944262 198.90623,78.755082 223.45377,84.1780328 C227.181639,85.0009836 238.575082,89.5747541 240.620984,88.6895082 C239.896393,86.1321311 236.532459,84.9845902 233.696393,83.5944262 C208.948852,71.4698361 167.414426,78.3157377 144.519344,87.3255738 C133.95541,91.4796721 124.05377,96.764918 116.12918,104.115738 C113.68,106.387869 109.971803,109.06 109.837377,113.240328 M19.3980328,212.538689 C20.0898361,217.614098 32.1259016,222.951803 42.9816393,213.761639 C51.4701639,206.574754 64.9783607,181.568197 70.8177049,170.558361 C73.9914754,164.568197 81.3816393,152.696066 82.8767213,146.502623 C80.3980328,147.03377 80.984918,146.38459 77.88,150.469836 C64.2537705,168.417377 47.8439344,210.076393 32.7259016,214.541967 C27.6963934,216.027213 24.1685246,213.279672 19.3980328,212.538689 M357.335738,281.089508 C354.696393,280.217377 343.709508,290.204262 326.227541,280.446885 C322.411148,278.315738 321.28,275.273115 317.925902,274.88623 C316.545574,281.951803 328.584918,287.519016 335.368525,288.827213 C339.791475,289.679672 345.257049,289.751803 349.666885,288.505902 C353.28,287.482951 358.257049,284.663279 357.335738,281.089508 M63.8734426,285.561639 C57.6537705,285.561639 52.2898361,281.581311 48.5095082,283.073115 C49.0537705,286.243607 63.2963934,296.941967 74.7488525,284.938689 C77.0963934,282.482951 79.784918,281.000984 80.2537705,276.423934 C73.9095082,276.837049 70.9980328,285.561639 63.8734426,285.561639 M222.52918,333.053443 C227.486557,332.722295 231.335738,328.964918 233.260328,326.502623 C238.024262,320.407541 239.542295,309.217377 235.519344,306.63377 C231.788197,310.171475 235.132459,318.240328 226.847213,326.564918 C224.771803,328.653443 222.811148,329.374754 222.52918,333.053443 M86.4865574,141.174754 C89.5586885,142.079672 94.5095082,136.023934 92.3783607,133.78459 C90.1685246,131.463279 83.8963934,137.158361 86.4865574,141.174754 M247.332459,95.3386885 C250.23082,96.8960656 250.473443,97.9386885 253.352131,96.4403279 C253.978361,94.0206557 253.496393,92.8436066 251.102951,91.9157377 C247.840656,90.6436066 247.483279,92.4140984 247.332459,95.3386885 M80.1488525,273.905902 C83.7914754,275.361639 86.4504918,272.397705 84.9160656,269.866557 C83.0767213,266.830492 79.6865574,269.66 80.1488525,273.905902 M268.965246,99.0272131 C270.686557,101.082951 282.512787,108.302623 285.702951,110.427213 C296.447213,117.578033 294.001311,116.991148 300.893115,124.279672 C308.348852,132.161639 317.348852,147.345246 323.463607,159.187869 C330.027541,171.899344 335.873443,185.256721 342.673443,197.466557 C344.52918,200.800984 345.876721,203.18459 348.024262,206.355082 C352.345574,212.728852 355.647213,217.437049 362.234098,221.204262 C364.781639,222.66 370.725902,224.964918 373.158689,222.394426 C370.896393,220.502623 366.647213,220.319016 363.493115,218.01082 C350.099672,208.197705 334.761967,170.191148 326.689836,154.692787 C321.424262,144.587869 311.073443,127.915738 303.565246,120.319016 C298.417705,115.105902 295.276721,111.50918 288.375082,107.096066 C285.063607,104.981311 272.817705,96.7714754 268.965246,99.0272131" id="Fill-19" fill="#5B0030"></path>
                <path d="M216.753115,224.717377 C216.772787,225.281311 216.78918,225.848525 216.78918,226.422295 C216.78918,241.307541 209.182623,253.369836 199.802295,253.369836 C190.425246,253.369836 182.821967,241.307541 182.821967,226.422295 C182.821967,225.674754 182.838361,224.937049 182.877705,224.205902 C187.012131,227.025574 196.38918,217.08459 198.736721,216.553443 C201.080984,216.022295 213.828525,226.648525 216.753115,224.717377" id="Fill-21" fill="#CD5B5A"></path>
                <path d="M197.346885,209.546885 C197.346885,208.189508 198.445246,207.087869 199.802623,207.087869 C201.163279,207.087869 202.261639,208.189508 202.261639,209.546885 C202.261639,214.602623 200.212459,219.176393 196.900984,222.491148 C193.58623,225.802623 189.012459,227.851803 183.956721,227.851803 C178.900984,227.851803 174.323934,225.802623 171.012459,222.491148 C167.697705,219.176393 165.651803,214.602623 165.651803,209.546885 C165.651803,208.189508 166.750164,207.087869 168.107541,207.087869 C169.464918,207.087869 170.566557,208.189508 170.566557,209.546885 C170.566557,213.241967 172.064918,216.592787 174.48459,219.015738 C176.91082,221.438689 180.258361,222.937049 183.956721,222.937049 C187.651803,222.937049 191.002623,221.438689 193.425574,219.015738 C195.845246,216.592787 197.346885,213.241967 197.346885,209.546885" id="Fill-23" fill="#5B0030"></path>
                <path d="M197.346885,209.546885 C197.346885,208.189508 198.445246,207.087869 199.802623,207.087869 C201.163279,207.087869 202.261639,208.189508 202.261639,209.546885 C202.261639,213.241967 203.76,216.592787 206.182951,219.015738 C208.605902,221.438689 211.953443,222.937049 215.651803,222.937049 C219.350164,222.937049 222.697705,221.438689 225.120656,219.015738 C227.543607,216.592787 229.041967,213.241967 229.041967,209.546885 C229.041967,208.189508 230.143607,207.087869 231.500984,207.087869 C232.858361,207.087869 233.96,208.189508 233.96,209.546885 C233.96,214.602623 231.91082,219.176393 228.596066,222.491148 C225.28459,225.802623 220.707541,227.851803 215.651803,227.851803 C210.599344,227.851803 206.022295,225.802623 202.707541,222.491148 C199.396066,219.176393 197.346885,214.602623 197.346885,209.546885" id="Fill-25" fill="#5B0030"></path>
                <path d="M277.3,231.060328 C290.509836,231.060328 301.280328,220.289836 301.280328,207.083279 C301.280328,193.876721 290.509836,183.102951 277.3,183.102951 C264.093443,183.102951 253.319672,193.876721 253.319672,207.083279 C253.319672,220.289836 264.093443,231.060328 277.3,231.060328" id="Fill-27" fill="#5B0030"></path>
                <path d="M272.279672,206.756721 C276.961639,206.756721 280.781311,202.937049 280.781311,198.255082 C280.781311,193.573115 276.961639,189.753443 272.279672,189.753443 C267.597705,189.753443 263.778033,193.573115 263.778033,198.255082 C263.778033,202.937049 267.597705,206.756721 272.279672,206.756721" id="Fill-29" fill="#FFFFFF"></path>
                <path d="M122.306885,231.060328 C135.513443,231.060328 146.287213,220.289836 146.287213,207.083279 C146.287213,193.876721 135.513443,183.102951 122.306885,183.102951 C109.100328,183.102951 98.3265574,193.876721 98.3265574,207.083279 C98.3265574,220.289836 109.100328,231.060328 122.306885,231.060328" id="Fill-31" fill="#5B0030"></path>
                <path d="M127.328852,206.756721 C132.01082,206.756721 135.827213,202.937049 135.827213,198.255082 C135.827213,193.573115 132.01082,189.753443 127.328852,189.753443 C122.646885,189.753443 118.827213,193.573115 118.827213,198.255082 C118.827213,202.937049 122.646885,206.756721 127.328852,206.756721" id="Fill-33" fill="#FFFFFF"></path>
                <path d="M125.038033,250.45541 C138.877377,250.45541 150.162623,247.557049 150.162623,244.00623 C150.162623,240.452131 138.877377,237.55377 125.038033,237.55377 C111.198689,237.55377 99.9134426,240.452131 99.9134426,244.00623 C99.9134426,247.557049 111.198689,250.45541 125.038033,250.45541" id="Fill-35" fill="#EF838A"></path>
                <path d="M274.570492,250.45541 C288.409836,250.45541 299.698361,247.557049 299.698361,244.00623 C299.698361,240.452131 288.409836,237.55377 274.570492,237.55377 C260.731148,237.55377 249.442623,240.452131 249.442623,244.00623 C249.442623,247.557049 260.731148,250.45541 274.570492,250.45541" id="Fill-37" fill="#EF838A"></path>
            </g>
        </g>
    </g>
</svg>