<?xml version="1.0" encoding="UTF-8"?>
<svg width="331px" height="397px" viewBox="0 0 331 397" version="1.1" xmlns="http://www.w3.org/2000/svg" xmlns:xlink="http://www.w3.org/1999/xlink">
    <!-- Generator: Sketch 55.2 (78181) - https://sketchapp.com -->
    <title>Group 67</title>
    <desc>Created with Sketch.</desc>
    <defs>
        <polygon id="path-1" points="0 0.260850079 330.461789 0.260850079 330.461789 396.747967 0 396.747967"></polygon>
        <polygon id="path-3" points="7.97032991e-05 0.260162602 330.461789 0.260162602 330.461789 396.747202 7.97032991e-05 396.747202"></polygon>
    </defs>
    <g id="Page-1" stroke="none" stroke-width="1" fill="none" fill-rule="evenodd">
        <g id="Desktop" transform="translate(-34.000000, -3.000000)">
            <g id="Group-67" transform="translate(34.000000, 0.000000)">
                <g id="Group-3" transform="translate(0.000000, 2.991870)">
                    <mask id="mask-2" fill="white">
                        <use xlink:href="#path-1"></use>
                    </mask>
                    <g id="Clip-2"></g>
                    <path d="M12.241626,173.213984 C5.35056911,161.926179 -19.2347967,114.898537 30.0107317,87.0806504 C32.5798374,77.8773984 43.6237398,47.5879675 77.2562602,49.9684553 C91.2074797,19.6985366 121.01561,3.56520325 155.548943,0.719674797 C175.679024,-0.945365854 197.43187,1.93268293 218.518049,9.16845528 C239.545691,16.3879675 259.958699,27.9619512 277.467642,43.7213008 C316.511545,78.8660163 341.083902,134.66439 325.935935,209.122927 C326.534309,213.763577 325.750569,219.158699 322.329431,225.126179 C325.835122,234.820488 335.077398,267.558699 310.774959,291.812358 C311.783089,298.394472 311.773333,312.479024 295.626992,320.163577 C294.287154,329.295285 287.939187,352.540813 257.939187,358.924553 C255.103415,364.287154 247.438374,374.563577 230.222114,375.002602 C226.134309,379.444878 215.779837,388.482276 201.253008,385.363577 C195.500163,391.594472 180.739187,404.21561 165.06439,390.817236 C149.379837,404.21561 134.625366,391.594472 128.869268,385.363577 C114.342439,388.482276 103.984715,379.444878 99.9034146,375.002602 C82.6839024,374.563577 75.0188618,364.287154 72.1863415,358.924553 C42.1830894,352.540813 35.838374,329.295285 34.5017886,320.163577 C18.3489431,312.479024 18.339187,298.394472 19.3505691,291.812358 C-4.95512195,267.558699 4.28715447,234.820488 7.79609756,225.126179 C-0.792520325,210.166829 7.24,198.781463 11.935935,193.922927 C10.1505691,185.698537 10.5960976,178.853008 12.241626,173.213984" id="Fill-1" fill="#5B0030" mask="url(#mask-2)"></path>
                </g>
                <path d="M167.445203,88.5710569 C166.697236,88.9222764 165.897236,89.0978862 165.10374,89.1043902 L165.064715,89.1043902 L165.015935,89.1043902 C164.222439,89.0978862 163.425691,88.9222764 162.680976,88.5710569 C162.316748,88.3986992 161.965528,88.1905691 161.643577,87.9369106 C159.90374,86.6686179 132.75252,67.484878 115.776911,96.3043902 C114.537886,98.4214634 112.118374,99.4198374 109.841951,98.9547967 C109.783415,98.9417886 89.8712195,94.6263415 87.4874797,113.10439 C87.1134959,116.057236 84.5021138,118.177561 81.5720325,117.979187 L81.5687805,117.992195 C81.4419512,117.982439 36.3362602,114.567805 39.9004878,158.294634 C40.1021138,160.886504 38.5086179,163.205203 36.1639024,164.024715 C33.6468293,165.195447 17.0256911,173.914146 23.5492683,197.289756 C24.2029268,199.650732 23.2403252,202.076748 21.3281301,203.390569 C19.8061789,204.623089 10.6777236,212.743415 18.6582114,224.375935 C19.8289431,226.09626 19.9134959,228.232846 19.0712195,229.979187 C17.8126829,232.919024 4.24195122,266.427967 29.2078049,288.766179 C30.8956098,290.275122 31.4517073,292.580813 30.8110569,294.610081 L30.8305691,294.616585 C30.817561,294.65561 26.2939837,308.327154 41.6793496,314.06374 C43.9069919,314.893008 45.2891057,316.993821 45.318374,319.234472 C45.3573984,320.626341 46.5053659,346.382439 77.0029268,351.449106 C79.1330081,351.797073 80.7850407,353.306016 81.419187,355.224715 L81.4289431,355.221463 C81.4386992,355.253984 85.1947967,367.403577 102.333008,366.805203 C104.258211,366.746667 105.985041,367.666992 107.035447,369.114146 L107.045203,369.107642 C107.07122,369.140163 115.74439,381.341789 128.980163,376.727154 C131.389919,375.884878 133.985041,376.792195 135.389919,378.772683 C136.437073,380.164553 148.918374,396.06374 160.798049,382.278374 C160.882602,382.174309 160.980163,382.070244 161.074472,381.975935 L161.10374,381.943415 L161.13626,381.914146 C161.47122,381.585691 161.838699,381.302764 162.228943,381.075122 L162.245203,381.062114 L162.349268,381.003577 L162.36878,380.993821 L162.463089,380.945041 L162.51187,380.915772 L162.576911,380.883252 L162.641951,380.850732 L162.70374,380.824715 L162.801301,380.779187 L162.807805,380.779187 L162.924878,380.727154 L162.937886,380.723902 C163.516748,380.483252 164.131382,380.349919 164.742764,380.310894 L164.781789,380.310894 L164.882602,380.307642 L164.908618,380.307642 L164.999675,380.30439 L165.064715,380.30439 L165.126504,380.30439 L165.217561,380.307642 L165.240325,380.307642 L165.34439,380.310894 L165.380163,380.310894 C165.994797,380.349919 166.606179,380.483252 167.185041,380.723902 L167.198049,380.727154 L167.315122,380.779187 L167.321626,380.779187 L167.419187,380.824715 L167.477724,380.850732 L167.542764,380.883252 L167.611057,380.915772 L167.659837,380.945041 L167.754146,380.993821 L167.773659,381.003577 L167.874472,381.062114 L167.893984,381.075122 C168.284228,381.302764 168.654959,381.585691 168.986667,381.914146 L169.015935,381.943415 L169.048455,381.975935 C169.142764,382.070244 169.237073,382.174309 169.32813,382.278374 C181.201301,396.06374 193.685854,380.164553 194.73626,378.772683 C196.137886,376.792195 198.73626,375.884878 201.142764,376.727154 C214.378537,381.341789 223.051707,369.140163 223.077724,369.107642 L223.084228,369.114146 C224.137886,367.666992 225.864715,366.746667 227.789919,366.805203 C244.92813,367.403577 248.684228,355.253984 248.697236,355.221463 L248.706992,355.224715 C249.337886,353.306016 250.993171,351.797073 253.12,351.449106 C283.617561,346.382439 284.765528,320.626341 284.801301,319.234472 C284.830569,316.993821 286.219187,314.893008 288.443577,314.06374 C303.832195,308.327154 299.302114,294.65561 299.289106,294.616585 L299.308618,294.610081 C298.67122,292.580813 299.227317,290.275122 300.915122,288.766179 C325.877724,266.427967 312.310244,232.919024 311.054959,229.979187 C310.209431,228.232846 310.290732,226.09626 311.464715,224.375935 C319.445203,212.743415 310.316748,204.623089 308.794797,203.390569 C306.882602,202.076748 305.92,199.650732 306.573659,197.289756 C313.100488,173.914146 296.476098,165.195447 293.962276,164.024715 C291.617561,163.205203 290.020813,160.886504 290.222439,158.294634 C293.783415,114.567805 248.680976,117.982439 248.554146,117.992195 L248.554146,117.979187 C245.620813,118.177561 243.009431,116.057236 242.638699,113.10439 C240.251707,94.6263415 220.339512,98.9417886 220.284228,98.9547967 C218.001301,99.4198374 215.585041,98.4214634 214.342764,96.3043902 C197.370407,67.484878 170.215935,86.6686179 168.47935,87.9369106 C168.154146,88.1905691 167.809431,88.3986992 167.445203,88.5710569" id="Fill-4" fill="#FFFFFF"></path>
                <path d="M207.185691,377.763902 C216.958049,377.715122 223.05561,369.13626 223.078374,369.106992 L223.084878,369.113496 C224.138537,367.666341 225.865366,366.746016 227.790569,366.804553 C244.925528,367.402927 248.684878,355.256585 248.697886,355.220813 L248.707642,355.224065 C249.338537,353.305366 250.993821,351.799675 253.12065,351.451707 C283.618211,346.385041 284.762927,320.625691 284.801951,319.233821 C284.83122,316.993171 286.219837,314.892358 288.440976,314.063089 C303.832846,308.326504 299.302764,294.654959 299.289756,294.619187 L299.309268,294.612683 C298.67187,292.583415 299.227967,290.277724 300.915772,288.765528 C325.878374,266.427317 312.310894,232.918374 311.052358,229.978537 C310.210081,228.232195 310.291382,226.09561 311.462114,224.375285 C319.445854,212.742764 310.317398,204.622439 308.795447,203.389919 C306.883252,202.07935 305.917398,199.650081 306.574309,197.289106 C313.097886,173.913496 296.476748,165.194797 293.962927,164.024065 C291.618211,163.204553 290.021463,160.885854 290.223089,158.293984 C292.281626,133.032195 278.09626,123.50374 265.722276,119.965528 C265.741789,119.972033 281.117398,126.258211 280.317398,146.066341 C279.507642,165.884228 253.403577,173.767154 253.403577,173.767154 L207.494634,351.773659 C207.494634,351.773659 217.995447,364.713496 207.185691,377.763902 L207.185691,377.763902 Z" id="Fill-6" fill="#F7C8DC"></path>
                <path d="M318.879024,180.699837 C322.303415,125.298211 301.087154,83.0478049 269.971707,55.0380488 C253.633496,40.3323577 234.553821,29.5193496 214.879024,22.764878 C195.253008,16.0299187 175.077398,13.3502439 156.47252,14.8852033 C124.628618,17.5095935 97.444878,32.563252 86.0302439,60.8526829 C85.1554472,63.3047154 82.6481301,64.8949593 79.9652033,64.5112195 C48.6708943,59.9486179 41.0026016,91.7860163 40.3652033,94.6998374 C40.0920325,96.3746341 39.0676423,97.8998374 37.4481301,98.7518699 C1.34081301,117.867317 11.1944715,149.558374 18.4530081,164.31935 C21.8839024,160.036423 25.7668293,157.18439 28.5180488,155.499837 C26.9928455,112.283577 63.7570732,107.181138 77.3538211,106.764878 C82.3912195,87.6331707 100.157073,86.8136585 108.140813,87.4705691 C127.757073,58.1502439 155.565203,71.1226016 165.06439,76.8331707 C174.557073,71.1226016 202.365203,58.1502439 221.981463,87.4705691 C229.965203,86.8136585 247.731057,87.6331707 252.771707,106.764878 C266.365203,107.181138 303.129431,112.283577 301.604228,155.499837 C306.983089,158.787642 316.674146,166.546992 318.879024,180.699837" id="Fill-8" fill="#E94F4D"></path>
                <path d="M318.879024,180.699837 C321.347317,140.787642 311.022114,107.698211 293.422114,81.8445528 C260.498537,102.101463 180.140813,57.3925203 160.586341,51.0738211 C134.859512,42.761626 106.755447,55.4282927 62.6026016,95.4770732 C46.1700813,110.381138 30.8204878,115.164878 18.0172358,115.304715 C6.19284553,132.901463 13.041626,153.314472 18.4530081,164.31935 C21.8839024,160.036423 25.7668293,157.18439 28.5180488,155.499837 C26.9928455,112.283577 63.7570732,107.181138 77.3538211,106.764878 C82.3912195,87.6331707 100.157073,86.8136585 108.140813,87.4705691 C127.757073,58.1502439 155.565203,71.1226016 165.06439,76.8331707 C174.557073,71.1226016 202.365203,58.1502439 221.981463,87.4705691 C229.965203,86.8136585 247.731057,87.6331707 252.771707,106.764878 C266.365203,107.181138 303.129431,112.283577 301.604228,155.499837 C306.983089,158.787642 316.674146,166.546992 318.879024,180.699837" id="Fill-10" fill="#CC3A3A"></path>
                <path d="M39.2565854,97.2409756 C38.7817886,97.8491057 38.1736585,98.3694309 37.4484553,98.7499187 C1.34113821,117.865366 11.1947967,149.559675 18.4533333,164.32065 C21.8842276,160.037724 25.7671545,157.182439 28.518374,155.501138 C26.9931707,112.281626 63.7573984,107.179187 77.3541463,106.766179 C82.3915447,87.6344715 100.157398,86.8149593 108.141138,87.4686179 C108.67122,86.675122 109.207805,85.9206504 109.750894,85.1856911 C97.7443902,82.4117073 81.2468293,87.3190244 56.5508943,94.1743089 C50.32,95.9011382 44.5541463,96.8507317 39.2565854,97.2409756 M118.573659,25.384065 C137.614309,24.7076423 187.69561,27.6604878 209.292358,74.4604878 C191.864715,63.1011382 172.635447,72.275122 165.064715,76.8312195 C164.241951,76.3369106 163.285854,75.7905691 162.212683,75.2247154 C160.846829,66.3596748 153.47122,51.2604878 117.884228,58.7369106 C104.189919,61.6117073 93.7834146,62.2491057 85.7671545,61.4686179 C85.8647154,61.2702439 85.9525203,61.0621138 86.0305691,60.8539837 C92.4923577,44.8312195 104.014309,33.0621138 118.573659,25.384065 M272.222439,57.1108943 C271.477724,56.4117073 270.726504,55.7222764 269.972033,55.0393496 C253.630569,40.3304065 234.554146,29.5173984 214.876098,22.7661789 C210.089106,21.1206504 205.263089,19.7190244 200.440325,18.5613008 C242.32,50.2100813 256.700488,90.8962602 261.035447,107.491382 C269.815935,108.769431 281.240325,112.102764 289.734634,120.519024 C286.957398,92.6946341 280.183415,72.1645528 272.222439,57.1108943" id="Fill-12" fill="#FFF7BD"></path>
                <path d="M108.171707,60.4920325 C128.542439,48.7034146 144.997724,46.04 160.584715,51.0741463 C168.568455,53.6530081 186.695285,62.638374 207.589593,70.9863415 C208.174959,72.1213008 208.747317,73.2725203 209.290407,74.4595122 C191.866016,63.1034146 172.636748,72.2773984 165.062764,76.8302439 C164.243252,76.339187 163.287154,75.7928455 162.213984,75.2237398 C160.844878,66.3619512 153.47252,51.2627642 117.882276,58.735935 C114.444878,59.4578862 111.212358,60.036748 108.171707,60.4920325 M18.0188618,115.301789 C30.8188618,115.165203 46.1684553,110.381463 62.6009756,95.4773984 C64.2334959,94.0009756 65.836748,92.5603252 67.4269919,91.1586992 C86.24,85.9879675 99.6026016,82.843252 109.752195,85.1879675 C109.209106,85.9196748 108.669268,86.6773984 108.139187,87.4676423 C100.158699,86.8139837 82.3928455,87.6334959 77.3521951,106.765203 C63.7586992,107.178211 26.9912195,112.283902 28.5196748,155.500163 C25.7652033,157.181463 21.8855285,160.036748 18.4546341,164.319675 C13.04,153.314797 6.19447154,132.901789 18.0188618,115.301789 M253.196098,85.2009756 C257.222114,94.3782114 259.64813,102.173333 261.033496,107.493659 C269.817236,108.771707 281.238374,112.101789 289.735935,120.518049 C288.425366,107.392846 286.22374,95.8936585 283.433496,85.8221138 C274.727805,87.8318699 264.295285,87.2887805 253.196098,85.2009756" id="Fill-14" fill="#DBD37C"></path>
                <path d="M165.229919,119.257236 C197.756748,119.257236 227.207154,132.440976 248.517724,153.754797 C269.838049,175.075122 283.021789,204.519024 283.021789,237.045854 C283.021789,269.572683 269.838049,299.023089 248.517724,320.336911 C227.207154,341.653984 197.756748,354.837724 165.229919,354.837724 C132.703089,354.837724 103.255935,341.653984 81.9388618,320.336911 C60.6217886,299.023089 47.4380488,269.572683 47.4380488,237.045854 C47.4380488,204.519024 60.6217886,175.075122 81.9388618,153.754797 C103.255935,132.440976 132.703089,119.257236 165.229919,119.257236" id="Fill-16" fill="#FBBE00"></path>
                <path d="M140.319024,23.3938211 L123.808455,23.3938211 C121.571057,24.4052033 113.405203,24.2946341 104.507642,28.2360976 C101.515772,29.5629268 99.2588618,31.1141463 96.8328455,32.7499187 C93.0442276,35.3060163 91.2686179,35.5076423 91.2360976,39.2507317 C101.021463,36.6068293 111.795447,23.9304065 144.091382,29.0003252 C172.868618,33.5173984 180.676748,48.5385366 189.72065,48.7239024 C189.388943,45.7873171 183.070244,41.6084553 180.559675,39.881626 C176.657236,37.2019512 173.450732,34.1645528 169.200325,32.0344715 C165.037724,29.9564228 160.891382,28.0930081 155.990569,26.6653659 C153.04748,25.8068293 141.258862,23.8426016 140.319024,23.3938211" id="Fill-18" fill="#5B0030"></path>
                <path d="M217.341789,34.7947967 C217.634472,38.7785366 221.940163,41.6956098 224.050732,43.819187 C236.086504,55.9330081 248.005203,76.1899187 254.893008,92.417561 C256.466992,96.124878 258.106016,100.51187 259.058862,104.264715 C259.50439,106.024065 261.432846,116.450081 263.201951,114.918374 C266.762927,111.832195 260.076748,92.8013008 258.691382,89.2695935 C253.462114,75.923252 243.897886,60.2647154 235.078374,49.4614634 C231.12065,44.615935 223.45561,35.6305691 217.341789,34.7947967" id="Fill-20" fill="#5B0030"></path>
                <path d="M245.314472,34.2582114 C246.586016,38.4565854 252.615285,36.2419512 260.303089,47.2858537 C264.475447,53.2760976 267.685203,57.9069919 271.047805,64.7590244 C275.782764,74.4273171 279.925854,85.0972358 282.387642,95.7411382 C283.301463,99.6630894 283.421789,104.75252 286.130732,105.848455 C291.867317,97.2468293 273.903089,48.32 255.454309,36.7687805 C253.252683,35.3899187 247.685203,32.1639024 245.314472,34.2582114" id="Fill-22" fill="#5B0030"></path>
                <path d="M10.1138211,209.189919 L10.2341463,210.594797 C11.6195122,210.87122 12.0195122,210.893984 13.2422764,209.963902 C14.1105691,209.30374 14.9073171,208.126504 15.7691057,207.313496 L34.3154472,195.209431 C34.3934959,195.339512 34.4715447,195.411057 34.4943089,195.635447 L35.2,198.074472 C36.0195122,200.812683 34.9918699,199.521626 36.8780488,200.799675 C40.6894309,198.689106 37.5934959,194.474472 41.4504065,186.864715 C45.5219512,178.838699 50.6731707,183.339512 53.0569106,179.716748 C50.5593496,174.741138 42.2373984,178.350894 39.7918699,180.702114 C35.5219512,184.809431 37.8829268,187.739512 31.5317073,191.648455 C26.1463415,194.965528 9.51219512,203.362276 10.1138211,209.189919" id="Fill-24" fill="#5B0030"></path>
                <path d="M57.801626,62.059187 C60.1821138,62.9014634 65.9186992,61.564878 73.7886179,62.7095935 C83.5317073,64.1242276 115.15122,69.4282927 119.873171,58.9274797 C117.63252,58.0884553 107.980488,60.1795122 104.172358,60.462439 C98.9268293,60.8526829 91.9349593,60.4104065 86.9463415,59.8217886 C82.0617886,59.2429268 57.5089431,54.8429268 57.801626,62.059187" id="Fill-26" fill="#5B0030"></path>
                <path d="M72.4341463,88.3645528 C67.4357724,88.4621138 62.804878,91.0995122 57.4617886,92.078374 C47.4130081,93.9190244 27.0162602,94.3060163 20.603252,100.66374 C19.9138211,101.349919 16.3073171,104.611707 17.7219512,106.05561 C19.2894309,107.658862 20.996748,103.024715 29.3284553,101.057236 C41.6504065,98.1531707 69.5593496,98.3385366 72.4341463,88.3645528" id="Fill-28" fill="#5B0030"></path>
                <path d="M165.096585,98.3525203 C164.706341,98.7265041 164.680325,98.7525203 163.987642,99.2370732 C163.386016,99.6663415 163.054309,99.8289431 162.436423,100.245203 C161.620163,100.791545 160.699837,101.480976 159.971382,102.277724 C158.267317,104.150894 157.626667,105.985041 158.221789,108.889106 C162.309593,107.806179 161.012033,106.189919 164.501463,104.235447 C168.97626,101.72813 175.844553,101.962276 179.720976,106.742764 C181.893333,109.422439 180.898211,111.90374 184.254309,112.580163 C186.690081,108.131382 183.278699,103.783415 181.086829,101.549268 C177.681951,98.0695935 174.920976,98.0793496 168.946992,97.7769106 C168.946992,90.3134959 166.777886,79.5850407 156.940488,79.6760976 C156.146992,83.8582114 159.854309,83.6956098 162.068943,87.8484553 C164.312846,92.0630894 164.078699,93.822439 165.096585,98.3525203" id="Fill-30" fill="#5B0030"></path>
                <path d="M260.517073,113.99187 C260.120325,111.328455 259.713821,111.321951 256.969106,110.928455 C247.980488,109.621138 242.663415,113.673171 236.887805,118.307317 C231.544715,122.593496 223.970732,136.593496 230.325203,133.022764 C231.82439,132.180488 239.154472,120.073171 248.920325,116.242276 C253.6,114.404878 256.078049,115.152846 260.517073,113.99187" id="Fill-32" fill="#5B0030"></path>
                <path d="M63.7993496,116.319675 C69.0773984,117.805854 81.7082927,112.911545 89.6302439,123.763577 C91.142439,125.835122 92.9343089,128.885528 96.2513821,128.296911 C96.1115447,121.197724 84.8855285,107.483902 67.5456911,113.009106 C64.7099187,113.913171 64.2904065,113.835122 63.7993496,116.319675" id="Fill-34" fill="#5B0030"></path>
                <path d="M297.127805,274.567154 C286.744065,276.124878 298.542439,297.337886 303.810732,301.191545 C307.45626,303.858211 306.519675,298.73626 305.596098,296.765528 C304.535935,294.485854 303.059512,292.661463 301.635122,290.417561 C294.626992,279.380163 298.740813,280.921626 297.127805,274.567154" id="Fill-36" fill="#5B0030"></path>
                <path d="M311.92065,184.299512 C309.068618,186.416585 309.907642,197.252358 299.585691,201.506016 C288.571057,206.045854 310.67187,210.205203 314.001951,190.364553 C314.327154,188.429593 314.89626,182.08813 311.92065,184.299512" id="Fill-38" fill="#5B0030"></path>
                <path d="M47.1310569,331.531707 C49.2286179,329.011382 46.9782114,327.35935 46.9782114,320.026016 C46.9782114,313.154472 51.0822764,308.97561 50.7505691,305.515447 C41.5960976,303.694309 38.841626,329.957724 47.1310569,331.531707" id="Fill-40" fill="#5B0030"></path>
                <path d="M248.811057,363.758374 C257.233821,362.994146 255.259837,341.264065 254.163902,338.477073 C252.976911,335.465691 254.261463,337.231545 252.173659,336.555122 C249.370407,338.912846 250.300488,345.76813 250.267967,350.174634 C250.232195,354.652683 248.07935,360.509593 248.811057,363.758374" id="Fill-42" fill="#5B0030"></path>
                <path d="M279.508618,165.882927 C284.302114,166.715447 286.383415,162.845528 292.53626,162.845528 C295.323252,162.845528 299.667967,165.447154 298.815935,161.39187 C297.625691,155.765854 280.347642,157.222764 279.508618,165.882927" id="Fill-44" fill="#5B0030"></path>
                <path d="M195.247805,53.5053659 C193.878699,55.8891057 195.156748,57.0826016 196.506341,58.5395122 C197.888455,60.0289431 198.701463,61.1541463 201.065691,60.7281301 C202.53561,56.7671545 198.925854,52.0614634 195.247805,53.5053659" id="Fill-46" fill="#5B0030"></path>
                <path d="M159.851707,369.574959 C159.972033,372.66439 160.941138,376.557073 162.202927,379.392846 C162.212683,379.418862 162.232195,379.44813 162.251707,379.470894 C162.251707,379.487154 162.264715,379.513171 162.264715,379.526179 C162.264715,379.532683 162.274472,379.555447 162.277724,379.561951 C163.53626,382.352195 165.780163,385.695285 167.861463,387.926179 C168.573659,388.690407 171.240325,391.65626 172.508618,390.511545 C173.653333,389.376585 171.445203,386.566829 170.833821,385.60748 C169.093984,382.87252 167.71187,380.687154 166.36878,377.714797 C166.365528,377.705041 166.355772,377.68878 166.35252,377.685528 C166.342764,377.67252 166.33626,377.65626 166.323252,377.643252 C166.323252,377.617236 166.313496,377.59122 166.30374,377.568455 C164.976911,374.589593 164.313496,372.28065 163.594797,369.103415 C163.321626,367.874146 162.957398,364.462764 161.425691,364.387967 C159.669593,364.387967 159.812683,368.540813 159.851707,369.574959" id="Fill-48" fill="#5B0030"></path>
                <path d="M110.750569,362.66439 C110.357073,363.204228 110.035122,363.555447 109.521301,363.994472 C108.077398,365.109919 106.763577,365.620488 105.059512,366.170081 C105.033496,366.179837 105.010732,366.186341 104.99122,366.202602 C104.965203,366.202602 104.939187,366.205854 104.913171,366.21561 C104.81561,366.24813 104.386341,366.381463 104.350569,366.404228 C101.462764,367.295285 98.8318699,367.62374 95.9798374,368.316423 C94.6595122,368.693659 92.8643902,369.054634 93.3489431,370.722927 C93.8562602,372.244878 94.9944715,372.062764 96.5099187,372.053008 C99.3912195,371.984715 102.835122,371.425366 105.612358,370.683902 C105.84,370.625366 106.070894,370.557073 106.292033,370.485528 C106.324553,370.475772 106.350569,370.462764 106.376585,370.446504 C106.409106,370.446504 106.435122,370.44 106.467642,370.430244 C108.731057,369.653008 110.578211,368.654634 112.327805,366.989593 C113.108293,366.179837 113.667642,365.422114 114.109919,364.381463 C114.20748,364.140813 114.28878,363.913171 114.360325,363.662764 C114.59122,362.592846 115.010732,359.561951 113.137561,359.636748 C111.979837,359.776585 111.618862,361.282276 110.99122,362.309919 C110.978211,362.345691 110.786341,362.609106 110.750569,362.66439" id="Fill-50" fill="#5B0030"></path>
                <path d="M155.597724,247.822114 C153.197724,246.482276 151.139187,244.976585 148.768455,244.628618 C142.550569,243.714797 142.966829,252.300163 145.152195,256.19935 C149.461138,263.900163 157.376585,267.679024 165.230244,267.548943 C173.083902,267.679024 181.002602,263.900163 185.308293,256.19935 C187.490407,252.300163 187.909919,243.714797 181.685528,244.628618 C179.321301,244.976585 177.262764,246.482276 174.862764,247.822114 C171.812358,249.522927 168.511545,250.293659 165.230244,250.202602 C161.945691,250.293659 158.64813,249.522927 155.597724,247.822114" id="Fill-52" fill="#5B0030"></path>
                <path d="M99.5398374,272.696585 C111.699187,272.696585 121.614634,270.150244 121.614634,267.028293 C121.614634,263.906341 111.699187,261.36 99.5398374,261.36 C87.3804878,261.36 77.4617886,263.906341 77.4617886,267.028293 C77.4617886,270.150244 87.3804878,272.696585 99.5398374,272.696585" id="Fill-54" fill="#EF838A"></path>
                <path d="M230.918374,272.696585 C243.077724,272.696585 252.996423,270.150244 252.996423,267.028293 C252.996423,263.906341 243.077724,261.36 230.918374,261.36 C218.762276,261.36 208.843577,263.906341 208.843577,267.028293 C208.843577,270.150244 218.762276,272.696585 230.918374,272.696585" id="Fill-56" fill="#EF838A"></path>
                <g id="Group-60" transform="translate(0.000000, 2.991870)">
                    <mask id="mask-4" fill="white">
                        <use xlink:href="#path-3"></use>
                    </mask>
                    <g id="Clip-59"></g>
                    <path d="M245.489106,153.797073 C224.949268,133.257236 196.572033,120.551545 165.228943,120.551545 C133.885854,120.551545 105.51187,133.257236 84.9720325,153.797073 C64.4321951,174.333659 51.7265041,202.714146 51.7265041,234.053984 C51.7265041,265.397073 64.4321951,293.771057 84.9720325,314.314146 C105.51187,334.853984 133.885854,347.559675 165.228943,347.559675 C196.572033,347.559675 224.949268,334.853984 245.489106,314.314146 C266.025691,293.771057 278.734634,265.397073 278.734634,234.053984 C278.734634,202.714146 266.025691,174.333659 245.489106,153.797073 M167.443577,85.579187 C166.69561,85.9304065 165.898862,86.1060163 165.102114,86.1125203 L165.063089,86.1125203 L165.017561,86.1125203 C164.220813,86.1060163 163.427317,85.9304065 162.67935,85.579187 C162.318374,85.4068293 161.963902,85.1986992 161.641951,84.9450407 C159.905366,83.676748 132.750894,64.4930081 115.778537,93.3125203 C114.53626,95.4295935 112.116748,96.4279675 109.840325,95.9629268 C109.781789,95.9499187 89.8695935,91.6344715 87.4891057,110.11252 C87.115122,113.065366 84.5037398,115.185691 81.5704065,114.987317 L81.5704065,115.000325 C81.4403252,114.990569 36.3346341,111.575935 39.8988618,155.302764 C40.1037398,157.894634 38.5069919,160.213333 36.1655285,161.032846 C33.6452033,162.203577 17.0273171,170.922276 23.5508943,194.297886 C24.2045528,196.658862 23.2386992,199.084878 21.3265041,200.398699 C19.8045528,201.63122 10.6760976,209.751545 18.6565854,221.384065 C19.8305691,223.10439 19.915122,225.240976 19.0695935,226.987317 C17.8110569,229.927154 4.2403252,263.436098 29.2094309,285.774309 C30.8972358,287.283252 31.4533333,289.588943 30.8126829,291.618211 L30.8289431,291.624715 C30.819187,291.66374 26.2923577,305.335285 41.6809756,311.07187 C43.9053659,311.901138 45.2907317,314.001951 45.316748,316.242602 C45.3590244,317.634472 46.5037398,343.390569 77.0013008,348.457236 C79.1313821,348.805203 80.7834146,350.314146 81.417561,352.232846 L81.4273171,352.229593 C81.4370732,352.262114 85.1964228,364.411707 102.331382,363.813333 C104.256585,363.754797 105.986667,364.675122 107.037073,366.122276 L107.046829,366.115772 C107.069593,366.148293 115.742764,378.349919 128.981789,373.735285 C131.391545,372.893008 133.983415,373.800325 135.388293,375.780813 C136.438699,377.172683 148.92,393.07187 160.799675,379.286504 C160.880976,379.182439 160.981789,379.078374 161.072846,378.984065 L161.105366,378.951545 L161.137886,378.922276 C161.469593,378.593821 161.837073,378.310894 162.227317,378.083252 L162.246829,378.070244 L162.350894,378.011707 L162.370407,378.001951 L162.464715,377.953171 L162.513496,377.923902 L162.578537,377.891382 L162.643577,377.858862 L162.702114,377.832846 L162.799675,377.787317 L162.806179,377.784065 L162.923252,377.735285 L162.93626,377.732033 C163.518374,377.491382 164.129756,377.358049 164.74439,377.319024 L164.780163,377.319024 L164.884228,377.315772 L164.906992,377.315772 L164.998049,377.31252 L165.063089,377.31252 L165.124878,377.31252 L165.215935,377.315772 L165.238699,377.315772 L165.342764,377.319024 L165.378537,377.319024 C165.993171,377.358049 166.607805,377.491382 167.186667,377.732033 L167.196423,377.735285 L167.313496,377.784065 L167.32,377.787317 L167.417561,377.832846 L167.476098,377.858862 L167.541138,377.891382 L167.612683,377.923902 L167.658211,377.953171 L167.755772,378.001951 L167.775285,378.011707 L167.876098,378.070244 L167.89561,378.083252 C168.282602,378.310894 168.656585,378.593821 168.988293,378.922276 L169.017561,378.951545 L169.050081,378.984065 C169.141138,379.078374 169.238699,379.182439 169.326504,379.286504 C181.199675,393.07187 193.684228,377.172683 194.737886,375.780813 C196.13626,373.800325 198.734634,372.893008 201.141138,373.735285 C214.380163,378.349919 223.053333,366.148293 223.076098,366.115772 L223.082602,366.122276 C224.139512,364.675122 225.866341,363.754797 227.791545,363.813333 C244.926504,364.411707 248.682602,352.262114 248.69561,352.229593 L248.705366,352.232846 C249.339512,350.314146 250.991545,348.805203 253.121626,348.457236 C283.619187,343.390569 284.763902,317.634472 284.802927,316.242602 C284.832195,314.001951 286.217561,311.901138 288.441951,311.07187 C303.830569,305.335285 299.30374,291.66374 299.290732,291.624715 L299.310244,291.618211 C298.672846,289.588943 299.225691,287.283252 300.916748,285.774309 C325.87935,263.436098 312.31187,229.927154 311.053333,226.987317 C310.207805,225.240976 310.292358,223.10439 311.463089,221.384065 C319.443577,209.751545 310.318374,201.63122 308.796423,200.398699 C306.884228,199.084878 305.918374,196.658862 306.572033,194.297886 C313.098862,170.922276 296.477724,162.203577 293.96065,161.032846 C291.619187,160.213333 290.019187,157.894634 290.224065,155.302764 C293.785041,111.575935 248.67935,114.990569 248.55252,115.000325 L248.55252,114.987317 C245.619187,115.185691 243.007805,113.065366 242.637073,110.11252 C240.253333,91.6344715 220.341138,95.9499187 220.282602,95.9629268 C218.002927,96.4279675 215.586667,95.4295935 214.34439,93.3125203 C197.36878,64.4930081 170.217561,83.676748 168.477724,84.9450407 C168.155772,85.1986992 167.811057,85.4068293 167.443577,85.579187 M318.877724,177.709268 C322.302114,122.30439 301.089106,80.0572358 269.970407,52.0474797 C253.632195,37.3385366 234.555772,26.5255285 214.877724,19.7743089 C195.254959,13.0393496 175.07935,10.3564228 156.47122,11.8946341 C124.627317,14.5190244 97.4435772,29.5694309 86.0289431,57.8621138 C85.1573984,60.3141463 82.6468293,61.9011382 79.9671545,61.5206504 C48.6728455,56.9580488 41.0045528,88.7954472 40.3639024,91.7092683 C40.0907317,93.380813 39.0663415,94.9092683 37.4500813,95.7580488 C1.3395122,114.873496 11.1964228,146.567805 18.4549593,161.32878 C21.8858537,157.045854 25.7655285,154.190569 28.52,152.509268 C26.9915447,109.289756 63.7590244,104.187317 77.3525203,103.774309 C82.3931707,84.6426016 100.159024,83.8230894 108.139512,84.476748 C127.759024,55.1596748 155.567154,68.1287805 165.063089,73.8393496 C174.555772,68.1287805 202.363902,55.1596748 221.980163,84.476748 C229.967154,83.8230894 247.729756,84.6426016 252.770407,103.774309 C266.363902,104.187317 303.131382,109.289756 301.602927,152.509268 C306.981789,155.793821 316.676098,163.553171 318.877724,177.709268 M12.2403252,173.214959 C10.5947967,178.853984 10.1492683,185.699512 11.9378862,193.92065 C7.24195122,198.782439 -0.790569106,210.164553 7.79479675,225.127154 C4.28585366,234.821463 -4.95317073,267.556423 19.3492683,291.813333 C18.3378862,298.392195 18.3476423,312.476748 34.5004878,320.164553 C35.8370732,329.293008 42.1817886,352.538537 72.1850407,358.925528 C75.020813,364.28813 82.6826016,374.561301 99.9021138,375.003577 C103.986667,379.445854 114.341138,388.483252 128.87122,385.364553 C134.624065,391.595447 149.381789,404.213333 165.063089,390.814959 C180.741138,404.213333 195.498862,391.595447 201.251707,385.364553 C215.778537,388.483252 226.13626,379.445854 230.224065,375.003577 C247.440325,374.561301 255.102114,364.28813 257.937886,358.925528 C287.941138,352.538537 294.285854,329.293008 295.625691,320.164553 C311.775285,312.476748 311.785041,298.392195 310.773659,291.813333 C335.07935,267.556423 325.833821,234.821463 322.32813,225.127154 C325.75252,219.159675 326.533008,213.764553 325.934634,209.123902 C341.085854,134.665366 316.510244,78.8637398 277.466341,43.7222764 C259.957398,27.9629268 239.547642,16.3889431 218.516748,9.16617886 C197.433821,1.9304065 175.677724,-0.944390244 155.550894,0.717398374 C121.014309,3.56617886 91.2061789,19.6995122 77.2549593,49.9694309 C43.6256911,47.5856911 32.5817886,77.875122 30.0126829,87.078374 C-19.2360976,114.899512 5.35252033,161.927154 12.2403252,173.214959 M165.228943,111.826341 C198.981789,111.826341 229.541138,125.507642 251.654959,147.627967 C273.778537,169.745041 287.459837,200.30439 287.459837,234.053984 C287.459837,267.806829 273.778537,298.366179 251.654959,320.483252 C229.541138,342.603577 198.981789,356.284878 165.228943,356.284878 C131.47935,356.284878 100.92,342.603577 78.8029268,320.483252 C56.6826016,298.366179 43.0013008,267.806829 43.0013008,234.053984 C43.0013008,200.30439 56.6826016,169.745041 78.8029268,147.627967 C100.92,125.507642 131.47935,111.826341 165.228943,111.826341" id="Fill-58" fill="#5B0030" mask="url(#mask-4)"></path>
                </g>
                <path d="M92.2117073,214.803252 C92.2117073,212.058537 89.984065,209.834146 87.2393496,209.834146 C84.4978862,209.834146 82.2734959,212.058537 82.2734959,214.803252 C82.2734959,221.993496 85.1873171,228.504065 89.8995122,233.21626 C94.6117073,237.928455 101.119024,240.842276 108.309268,240.842276 C115.499512,240.842276 122.010081,237.928455 126.722276,233.21626 C131.434472,228.504065 134.351545,221.993496 134.351545,214.803252 C134.351545,212.058537 132.123902,209.834146 129.382439,209.834146 C126.634472,209.834146 124.410081,212.058537 124.410081,214.803252 C124.410081,219.24878 122.608455,223.274797 119.694634,226.188618 C116.784065,229.102439 112.754797,230.904065 108.309268,230.904065 C103.86374,230.904065 99.8377236,229.102439 96.9271545,226.188618 C94.0133333,223.274797 92.2117073,219.24878 92.2117073,214.803252" id="Fill-61" fill="#5B0030"></path>
                <path d="M206.04878,214.803252 C206.04878,212.058537 203.821138,209.834146 201.079675,209.834146 C198.334959,209.834146 196.110569,212.058537 196.110569,214.803252 C196.110569,221.993496 199.02439,228.504065 203.736585,233.21626 C208.445528,237.928455 214.95935,240.842276 222.149593,240.842276 C229.336585,240.842276 235.847154,237.928455 240.55935,233.21626 C245.274797,228.504065 248.188618,221.993496 248.188618,214.803252 C248.188618,212.058537 245.960976,209.834146 243.219512,209.834146 C240.474797,209.834146 238.247154,212.058537 238.247154,214.803252 C238.247154,219.24878 236.44878,223.274797 233.531707,226.188618 C230.621138,229.102439 226.595122,230.904065 222.149593,230.904065 C217.704065,230.904065 213.681301,229.102439 210.764228,226.188618 C207.853659,223.274797 206.04878,219.24878 206.04878,214.803252" id="Fill-63" fill="#5B0030"></path>
                <path d="M269.904715,214.225366 C269.904715,246.748943 256.714472,276.19935 235.403902,297.516423 C214.086829,318.833496 184.636423,332.017236 152.106341,332.017236 C120.047805,332.017236 90.9746341,319.204228 69.7356098,298.42374 C74.1356098,305.253008 79.2510569,311.581463 84.9713821,317.305041 C105.51122,337.844878 133.885203,350.550569 165.228293,350.550569 C196.571382,350.550569 224.948618,337.844878 245.488455,317.305041 C266.028293,296.765203 278.733984,268.39122 278.733984,237.04813 C278.733984,218.482276 274.275447,200.953821 266.369756,185.483902 C268.675447,194.68065 269.904715,204.309919 269.904715,214.225366" id="Fill-65" fill="#EE8E00"></path>
            </g>
        </g>
    </g>
</svg>