<?xml version="1.0" encoding="UTF-8"?>
<svg width="399px" height="285px" viewBox="0 0 399 285" version="1.1" xmlns="http://www.w3.org/2000/svg" xmlns:xlink="http://www.w3.org/1999/xlink">
    <!-- Generator: Sketch 55.2 (78181) - https://sketchapp.com -->
    <title>Group 29</title>
    <desc>Created with Sketch.</desc>
    <defs>
        <polygon id="path-1" points="0.000281690141 0 398.583099 0 398.583099 284.507042 0.000281690141 284.507042"></polygon>
        <polygon id="path-3" points="0 0 398.583099 0 398.583099 284.506761 0 284.506761"></polygon>
    </defs>
    <g id="Page-1" stroke="none" stroke-width="1" fill="none" fill-rule="evenodd">
        <g id="Desktop" transform="translate(0.000000, -58.000000)">
            <g id="Group-29" transform="translate(0.000000, 58.000000)">
                <g id="Group-3">
                    <mask id="mask-2" fill="white">
                        <use xlink:href="#path-1"></use>
                    </mask>
                    <g id="Clip-2"></g>
                    <path d="M199.293239,0 C253.25662,0 302.166479,3.90140845 337.614366,10.2084507 C374.986197,16.856338 398.211549,27.0309859 398.57493,39.1661972 C398.58338,39.2647887 398.58338,39.3633803 398.58338,39.4591549 C398.58338,100.526761 376.341127,155.853521 340.380563,195.938028 C326.177746,211.769014 309.839718,225.222535 291.884789,235.723944 C285.603099,249.943662 273.242535,262.16338 257.02,270.811268 C240.884789,279.408451 220.890423,284.507042 199.293239,284.507042 C177.696056,284.507042 157.70169,279.408451 141.569296,270.811268 C125.341127,262.16338 112.980563,249.943662 106.698873,235.723944 C88.7439437,225.222535 72.4030986,211.769014 58.2002817,195.938028 C22.2425352,155.853521 0.000281690141,100.526761 0.000281690141,39.4591549 C0.000281690141,39.3633803 0.000281690141,39.2647887 0.00873239437,39.1661972 C0.372112676,27.0309859 23.5974648,16.856338 60.9721127,10.2084507 C96.42,3.90140845 145.329859,0 199.293239,0" id="Fill-1" fill="#5B0030" mask="url(#mask-2)"></path>
                </g>
                <path d="M275.008451,244.489859 C251.664789,255.165915 226.098592,261.050423 199.292958,261.050423 C172.487324,261.050423 146.921127,255.165915 123.577465,244.489859 C129.357746,251.382817 137.03662,257.427887 146.121127,262.270141 C160.870423,270.132113 179.278873,274.788451 199.292958,274.788451 C219.309859,274.788451 237.715493,270.132113 252.461972,262.270141 C261.549296,257.427887 269.225352,251.382817 275.008451,244.489859" id="Fill-4" fill="#FFFFFF"></path>
                <path d="M363.102535,53.2653521 C348.48,49.0907042 328.744789,45.4991549 305.392676,42.7695775 C274.978592,39.2146479 238.522254,37.1470423 199.294085,37.1470423 C160.063099,37.1470423 123.603944,39.2146479 93.1870423,42.7695775 C69.8405634,45.4991549 50.108169,49.0907042 35.4856338,53.2653521 C43.1109859,55.3160563 52.2461972,57.2878873 62.6433803,59.1357746 C97.564507,65.3498592 145.874366,69.1921127 199.294085,69.1921127 C252.710986,69.1921127 301.020845,65.3498592 335.941972,59.1357746 C346.339155,57.2878873 355.477183,55.3132394 363.102535,53.2653521" id="Fill-6" fill="#ACD190"></path>
                <path d="M20.1338028,48.1898592 C35.8070423,41.9983099 60.9225352,36.7729577 92.0859155,33.1307042 C122.914085,29.5250704 159.756338,27.423662 199.294366,27.423662 C238.826761,27.423662 275.669014,29.5250704 306.494366,33.1307042 C337.657746,36.7729577 362.773239,41.9983099 378.449296,48.1898592 C385.192958,45.3166197 388.86338,42.3701408 388.86338,39.4574648 C388.86338,32.6152113 368.640845,25.595493 335.942254,19.7757746 C301.021127,13.5616901 252.708451,9.71943662 199.294366,9.71943662 C145.874648,9.71943662 97.5647887,13.5616901 62.6464789,19.7757746 C29.9450704,25.595493 9.71971831,32.6152113 9.71971831,39.4574648 C9.71971831,42.3701408 13.3873239,45.3166197 20.1338028,48.1898592" id="Fill-8" fill="#F7C8DC"></path>
                <path d="M20.5960563,58.0104225 C19.3678873,57.9766197 18.1904225,57.4723944 17.3171831,56.6076056 C14.6101408,55.3794366 12.1960563,54.1090141 10.091831,52.7935211 C13.0495775,106.106197 33.635493,154.05831 65.4129577,189.483662 C79.2608451,204.917465 95.235493,217.970986 112.80169,228.049859 C112.914366,228.111831 113.027042,228.173803 113.139718,228.247042 C138.984789,243.004789 168.272113,251.331549 199.294648,251.331549 C230.311549,251.331549 259.598873,243.004789 285.446761,228.247042 C285.559437,228.173803 285.669296,228.111831 285.784789,228.049859 C303.350986,217.970986 319.325634,204.917465 333.167887,189.483662 C364.950986,154.05831 385.531268,106.106197 388.494648,52.7935211 C386.387606,54.1090141 383.973521,55.3794366 381.263662,56.6076056 C380.393239,57.4723944 379.218592,57.9766197 377.987606,58.0104225 C367.762254,62.1709859 354.058028,65.7766197 337.612958,68.7005634 C302.16507,75.0104225 253.258028,78.911831 199.294648,78.911831 C145.328451,78.911831 96.4214085,75.0104225 60.9735211,68.7005634 C44.5256338,65.7766197 30.8214085,62.1709859 20.5960563,58.0104225" id="Fill-10" fill="#FFFFFF"></path>
                <path d="M199.548169,251.332676 C230.47493,251.284789 259.669296,242.963662 285.446761,228.245352 C285.55662,228.17493 285.666479,228.110141 285.784789,228.050986 C303.350986,217.972113 319.325634,204.918592 333.167887,189.481972 C364.950986,154.05662 385.531268,106.107324 388.494648,52.7946479 C386.387606,54.1101408 383.973521,55.3805634 381.263662,56.6087324 C380.390423,57.4707042 379.215775,57.9777465 377.987606,58.0115493 C367.762254,62.1692958 354.058028,65.7749296 337.612958,68.7016901 C313.708732,72.9552113 283.680563,76.1157746 250.111549,77.7242254 C272.012958,77.648169 314.069296,81.276338 323.108732,109.386197 C334.058028,143.45662 302.700282,230.194648 199.548169,251.332676 L199.548169,251.332676 Z" id="Fill-12" fill="#F7C8DC"></path>
                <g id="Group-16">
                    <mask id="mask-4" fill="white">
                        <use xlink:href="#path-3"></use>
                    </mask>
                    <g id="Clip-15"></g>
                    <path d="M275.008451,244.489859 C251.664789,255.165915 226.098592,261.050423 199.292958,261.050423 C172.487324,261.050423 146.921127,255.165915 123.577465,244.489859 C129.357746,251.382817 137.03662,257.427887 146.121127,262.270141 C160.870423,270.132113 179.278873,274.788451 199.292958,274.788451 C219.309859,274.788451 237.715493,270.132113 252.461972,262.270141 C261.549296,257.427887 269.225352,251.382817 275.008451,244.489859 M363.101408,53.264507 C348.478873,49.0898592 328.743662,45.4983099 305.391549,42.7715493 C274.977465,39.2138028 238.523944,37.1490141 199.292958,37.1490141 C160.061972,37.1490141 123.602817,39.2138028 93.1859155,42.7715493 C69.8394366,45.4983099 50.1070423,49.0898592 35.4873239,53.264507 C43.1126761,55.3152113 52.2450704,57.2870423 62.6422535,59.1349296 C97.5661972,65.3490141 145.873239,69.1940845 199.292958,69.1940845 C252.709859,69.1940845 301.019718,65.3490141 335.943662,59.1349296 C346.338028,57.2870423 355.476056,55.3123944 363.101408,53.264507 M20.1352113,48.1884507 C35.8084507,41.9969014 60.9239437,36.7743662 92.084507,33.1321127 C122.915493,29.523662 159.757746,27.4222535 199.292958,27.4222535 C238.825352,27.4222535 275.667606,29.523662 306.495775,33.1321127 C337.656338,36.7743662 362.771831,41.9969014 378.450704,48.1884507 C385.191549,45.3180282 388.864789,42.3687324 388.864789,39.4588732 C388.864789,32.6138028 368.639437,25.5940845 335.943662,19.7771831 C301.019718,13.5602817 252.709859,9.71802817 199.292958,9.71802817 C145.873239,9.71802817 97.5661972,13.5602817 62.6450704,19.7771831 C29.9464789,25.5940845 9.71830986,32.6138028 9.71830986,39.4588732 C9.71830986,42.3687324 13.3887324,45.3180282 20.1352113,48.1884507 M20.5971831,58.0109859 C19.3690141,57.9771831 18.1887324,57.4701408 17.3183099,56.608169 C14.6112676,55.38 12.1943662,54.1095775 10.0901408,52.7940845 C13.0507042,106.106761 33.6338028,154.056056 65.4140845,189.484225 C79.2619718,204.918028 95.2366197,217.971549 112.802817,228.050423 C112.915493,228.112394 113.028169,228.174366 113.138028,228.244789 C138.985915,243.005352 168.270423,251.332113 199.292958,251.332113 C230.312676,251.332113 259.597183,243.005352 285.447887,228.244789 C285.557746,228.174366 285.667606,228.112394 285.783099,228.050423 C303.352113,217.971549 319.323944,204.918028 333.166197,189.484225 C364.952113,154.056056 385.529577,106.106761 388.495775,52.7940845 C386.388732,54.1095775 383.974648,55.38 381.264789,56.608169 C380.391549,57.4701408 379.216901,57.9771831 377.988732,58.0109859 C367.76338,62.1687324 354.056338,65.7771831 337.614085,68.7011268 C302.166197,75.0109859 253.256338,78.9123944 199.292958,78.9123944 C145.329577,78.9123944 96.4225352,75.0109859 60.9746479,68.7011268 C44.5267606,65.7771831 30.8197183,62.1687324 20.5971831,58.0109859 M199.292958,-0.000281690141 C253.256338,-0.000281690141 302.166197,3.90112676 337.614085,10.208169 C374.985915,16.8560563 398.211268,27.0307042 398.574648,39.1659155 C398.583099,39.264507 398.583099,39.3630986 398.583099,39.4588732 C398.583099,100.526479 376.340845,155.853239 340.380282,195.937746 C326.177465,211.768732 309.839437,225.222254 291.884507,235.723662 C285.602817,249.94338 273.242254,262.163099 257.019718,270.810986 C240.884507,279.408169 220.890141,284.506761 199.292958,284.506761 C177.695775,284.506761 157.701408,279.408169 141.569014,270.810986 C125.340845,262.163099 112.980282,249.94338 106.698592,235.723662 C88.743662,225.222254 72.4028169,211.768732 58.2,195.937746 C22.2450704,155.853239 0,100.526479 0,39.4588732 C0,39.3630986 0,39.264507 0.00845070423,39.1659155 C0.371830986,27.0307042 23.5971831,16.8560563 60.9746479,10.208169 C96.4225352,3.90112676 145.329577,-0.000281690141 199.292958,-0.000281690141" id="Fill-14" fill="#5B0030" mask="url(#mask-4)"></path>
                </g>
                <path d="M346.297465,148.715211 C352.821408,147.622254 362.553803,127.627887 364.858028,122.529296 C368.846761,113.712394 373.815775,98.4222535 373.815775,87.5630986 L373.390423,83.2250704 C371.663662,83.7856338 372.734085,82.4504225 371.511549,84.7856338 L369.990423,91.6278873 C367.500282,106.182817 361.570704,121.118028 354.452394,133.785634 C351.458028,139.112394 347.043944,144.526479 346.297465,148.715211 L346.297465,148.715211 Z M95.0805634,203.58 C85.7594366,196.42507 78.463662,190.027887 70.548169,180.377183 C67.5819718,176.751831 63.2298592,168.844789 60.1369014,166.946197 C59.3735211,168.205352 59.2946479,166.957465 59.8101408,169.512394 C60.7340845,174.132113 69.9030986,186.492676 72.8411268,189.74338 C78.2439437,195.723662 101.877746,216.363099 108.145352,214.377183 C107.379155,211.729296 98.2298592,205.994085 95.0805634,203.58 L95.0805634,203.58 Z M235.27493,44.5377465 C226.173521,41.5208451 223.931268,50.2138028 235.542535,47.5095775 L235.27493,44.5377465 Z M342.63831,160.177183 C344.117183,157.82507 343.945352,156.923662 340.973521,155.996901 C340.069296,156.796901 339.666479,157.005352 339.32,158.599718 C340.584789,160.185634 340.134085,160.157465 342.63831,160.177183 L342.63831,160.177183 Z M297.311549,52.4701408 C306.421408,53.4447887 315.187606,54.3067606 324.289014,55.4701408 C328.725634,56.0419718 348.111549,59.3912676 350.449577,58.3574648 C349.863662,56.9152113 350.939718,56.9208451 345.472113,55.3208451 C327.922817,50.1828169 253.418592,42.7743662 244.317183,45.3095775 C244.948169,46.5321127 243.573521,46.4560563 246.311549,47.3574648 L297.311549,52.4701408 Z" id="Fill-17" fill="#5B0030"></path>
                <path d="M189.874085,152.54169 C187.530423,151.229014 185.513521,149.761408 183.195211,149.420563 C177.116338,148.521972 177.521972,156.921972 179.657183,160.733239 C183.871268,168.262817 191.612113,171.961408 199.293803,171.834648 C206.972676,171.961408 214.713521,168.262817 218.924789,160.733239 C221.057183,156.921972 221.468451,148.521972 215.386761,149.420563 C213.068451,149.761408 211.057183,151.229014 208.710704,152.54169 C205.730423,154.206479 202.502254,154.955775 199.293803,154.868451 C196.079718,154.955775 192.86,154.206479 189.874085,152.54169" id="Fill-19" fill="#5B0030"></path>
                <path d="M127.748169,125.475775 C126.105915,124.441972 125.612958,122.275775 126.643944,120.636338 C127.680563,118.999718 129.843944,118.503944 131.480563,119.537746 C131.548169,119.574366 153.624225,133.377183 154.097465,140.394085 C154.632676,148.301127 129.976338,156.585634 129.903099,156.613803 C128.069296,157.22507 126.080563,156.236338 125.463662,154.399718 C124.849577,152.563099 125.83831,150.574366 127.677746,149.960282 C127.731268,149.94338 147.258028,143.377183 147.089014,140.858873 C146.855211,137.450423 127.80169,125.509577 127.748169,125.475775" id="Fill-21" fill="#5B0030"></path>
                <path d="M267.099437,119.53662 C268.738873,118.505634 270.90507,119.001408 271.936056,120.638028 C272.969859,122.277465 272.476901,124.440845 270.840282,125.474648 C270.783944,125.508451 251.724789,137.449296 251.49662,140.857746 C251.324789,143.378873 270.851549,149.942254 270.907887,149.961972 C272.744507,150.576056 273.730423,152.564789 273.121972,154.398592 C272.50507,156.235211 270.519155,157.223944 268.682535,156.612676 C268.609296,156.584507 243.952958,148.3 244.488169,140.392958 C244.961408,133.376056 267.037465,119.576056 267.099437,119.53662" id="Fill-23" fill="#5B0030"></path>
                <path d="M135.057183,176.86507 C146.944507,176.86507 156.643099,174.372113 156.643099,171.318592 C156.643099,168.270704 146.944507,165.777746 135.057183,165.777746 C123.167042,165.777746 113.468451,168.270704 113.468451,171.318592 C113.468451,174.372113 123.167042,176.86507 135.057183,176.86507" id="Fill-25" fill="#EF838A"></path>
                <path d="M263.529014,176.86507 C275.421972,176.86507 285.11493,174.372113 285.11493,171.318592 C285.11493,168.270704 275.421972,165.777746 263.529014,165.777746 C251.638873,165.777746 241.940282,168.270704 241.940282,171.318592 C241.940282,174.372113 251.638873,176.86507 263.529014,176.86507" id="Fill-27" fill="#EF838A"></path>
            </g>
        </g>
    </g>
</svg>